SplineFontDB: 3.2
FontName: RusimezSansRegular
FullName: Rusimez sans regular
FamilyName: Rusimez sans
Weight: Book
Copyright: Copyright (c) 2022, Daco77
UComments: "2022-11-25: Created with FontForge (http://fontforge.org)"
Version: 001.000
ItalicAngle: 0
UnderlinePosition: -100
UnderlineWidth: 50
Ascent: 800
Descent: 200
InvalidEm: 0
LayerCount: 2
Layer: 0 0 "+tLe6dAAA" 1
Layer: 1 0 "+xV66dAAA" 0
XUID: [1021 328 918690791 307]
StyleMap: 0x0000
FSType: 0
OS2Version: 0
OS2_WeightWidthSlopeOnly: 0
OS2_UseTypoMetrics: 1
CreationTime: 1669386597
ModificationTime: 1732623385
OS2TypoAscent: 0
OS2TypoAOffset: 1
OS2TypoDescent: 0
OS2TypoDOffset: 1
OS2TypoLinegap: 90
OS2WinAscent: 0
OS2WinAOffset: 1
OS2WinDescent: 0
OS2WinDOffset: 1
HheadAscent: 0
HheadAOffset: 1
HheadDescent: 0
HheadDOffset: 1
MarkAttachClasses: 1
DEI: 91125
Encoding: UnicodeBmp
UnicodeInterp: none
NameList: AGL For New Fonts
DisplaySize: -96
AntiAlias: 1
FitToEm: 0
WinInfo: 57324 17 8
BeginPrivate: 0
EndPrivate
BeginChars: 65536 379

StartChar: uniE111
Encoding: 57617 57617 0
Width: 1000
HStem: -99.7002 83.1006<561.621 691.08> 211.9 98.8994<487.982 676.716> 416.7 82.0996<122.7 198 296.1 442.623 561.8 877.4>
VStem: 172 82.9004<-86.5 26.167> 198 86.0996<170.296 416.7> 429 83<32.9705 164.11> 623.3 75.2998<669.021 696.903> 740.6 83.2002<32.9374 164.044>
LayerCount: 2
Fore
SplineSet
172 -83.900390625 m 2xf7
 172 83.900390625 177.5 251.5 198 416.700195312 c 1
 122.700195312 416.700195312 l 1
 122.700195312 498.799804688 l 1
 209.599609375 498.799804688 l 1
 225 597 246.200195312 694.200195312 275.5 790 c 1
 357.200195312 765 l 1
 330.700195312 678.200195312 310.799804688 589 296.099609375 498.799804688 c 1
 367.599609375 498.799804688 l 2
 486.900390625 517.200195312 586.599609375 601.700195312 623.299804688 718.400390625 c 1
 698.599609375 694.700195312 l 1
 673.599609375 615.099609375 625 547.5 561.799804688 498.799804688 c 1
 877.400390625 498.799804688 l 1
 877.400390625 416.700195312 l 1
 284.099609375 416.700195312 l 1xef
 273.400390625 333.400390625 266.700195312 249.5 263 166.400390625 c 1
 335.900390625 250.700195312 427.299804688 310.799804688 547.400390625 310.799804688 c 0
 594.900390625 310.799804688 642 302.200195312 686.299804688 285.700195312 c 0
 698.400390625 281.799804688 710 276.799804688 721 270.799804688 c 2
 721.599609375 270.5 l 2
 782.5 236.900390625 823.700195312 172.099609375 823.799804688 97.7001953125 c 0
 823.799804688 -11.2998046875 735.400390625 -99.7001953125 626.400390625 -99.7001953125 c 0
 517.400390625 -99.7001953125 429 -11.2998046875 429 97.7001953125 c 0
 429 143.099609375 444.400390625 184.900390625 470.200195312 218.299804688 c 1
 383.700195312 196.299804688 329 137.799804688 286.799804688 51.2998046875 c 0
 271.799804688 20.7001953125 262 -12.099609375 257.599609375 -45.7001953125 c 0
 255.599609375 -58.599609375 254.900390625 -71.2001953125 254.900390625 -83.900390625 c 2
 254.900390625 -86.5 l 1
 172 -86.5 l 1
 172 -83.900390625 l 2xf7
626.299804688 211.900390625 m 0
 563.200195312 211.900390625 512 160.799804688 512 97.7001953125 c 0
 512 34.599609375 563.200195312 -16.599609375 626.299804688 -16.599609375 c 0
 689.400390625 -16.599609375 740.599609375 34.5 740.599609375 97.599609375 c 0
 740.599609375 141.700195312 715.599609375 180 679 199 c 0
 673.900390625 201.400390625 668.799804688 203.599609375 663.700195312 205.599609375 c 0
 652 209.700195312 639.400390625 211.900390625 626.299804688 211.900390625 c 0
EndSplineSet
EndChar

StartChar: uniE112
Encoding: 57618 57618 1
Width: 1000
HStem: 416.7 82.0996<122.7 197.9 295.5 442.523 561.7 877.3>
VStem: 172 82.9004<-86.5 26.2468> 623.2 75.2998<669.021 696.903>
LayerCount: 2
Fore
SplineSet
172 -83.900390625 m 2
 172 84.099609375 177.400390625 251.5 197.900390625 416.700195312 c 1
 122.700195312 416.700195312 l 1
 122.700195312 498.799804688 l 1
 209.599609375 498.799804688 l 1
 225 596.900390625 246.099609375 694.099609375 275.5 790 c 1
 357.099609375 765 l 1
 330.200195312 677 310.200195312 588.400390625 295.5 498.799804688 c 1
 367.5 498.799804688 l 2
 486.799804688 517.200195312 586.5 601.700195312 623.200195312 718.400390625 c 1
 698.5 694.700195312 l 1
 673.5 615.099609375 624.900390625 547.5 561.700195312 498.799804688 c 1
 877.299804688 498.799804688 l 1
 877.299804688 416.700195312 l 1
 283.5 416.700195312 l 1
 273 334.299804688 266.400390625 250.900390625 262.900390625 166.400390625 c 1
 335.700195312 254.599609375 424 310.799804688 547.299804688 310.799804688 c 0
 597.799804688 310.799804688 647.900390625 301.400390625 694.599609375 282.799804688 c 0
 703.700195312 279.400390625 712.400390625 275.5 720.599609375 271 c 0
 720.900390625 270.799804688 721.200195312 270.700195312 721.5 270.5 c 0
 805.700195312 224.299804688 845.700195312 122.099609375 811.5 29.400390625 c 0
 773.799804688 -72.900390625 660.299804688 -125.200195312 558 -87.400390625 c 0
 542.200195312 -81.599609375 527.299804688 -73.7998046875 513.5 -64.2001953125 c 1
 560.599609375 3.400390625 l 1
 612.700195312 -32.900390625 684.400390625 -20.099609375 720.700195312 32 c 0
 757 84.099609375 744.200195312 155.799804688 692.099609375 192.099609375 c 0
 689.900390625 193.599609375 687.700195312 195 685.400390625 196.400390625 c 0
 529.200195312 272.5 362.900390625 207.5 286.700195312 51.400390625 c 0
 265.799804688 8.400390625 254.900390625 -38.7001953125 254.900390625 -86.5 c 1
 172 -86.5 l 1
 172 -83.900390625 l 2
EndSplineSet
EndChar

StartChar: uniE113
Encoding: 57619 57619 2
Width: 1000
HStem: -100.6 83.0996<169.42 300.336> 211.1 83.1006<169.42 300.873> 416.7 82.0996<122.7 309.1 561.7 877.3>
VStem: 36.7998 83<32.0703 161.53> 308.8 85.9004<279.6 416.7 504.4 773.2> 623.2 75.2998<670.038 696.903>
LayerCount: 2
Fore
SplineSet
694 2.7001953125 m 0
 772.5 4.7001953125 847.299804688 36.099609375 903.700195312 90.7001953125 c 1
 963.200195312 29.400390625 l 1
 805.400390625 -123.599609375 573.5 -139.599609375 420.599609375 18.2001953125 c 0
 419.400390625 19.5 418.099609375 20.7998046875 416.900390625 22.099609375 c 1
 387.5 -49.900390625 316.799804688 -100.599609375 234.200195312 -100.599609375 c 0
 125.200195312 -100.599609375 36.7998046875 -12.2001953125 36.7998046875 96.7998046875 c 0
 36.7998046875 205.799804688 125.200195312 294.200195312 234.200195312 294.200195312 c 0
 260.599609375 294.200195312 285.799804688 289 308.799804688 279.599609375 c 1
 308.700195312 281.5 308.599609375 283.400390625 308.599609375 285.299804688 c 2
 309.099609375 416.700195312 l 1
 122.700195312 416.700195312 l 1
 122.700195312 498.799804688 l 1
 309.400390625 498.799804688 l 1
 310.5 773.200195312 l 1
 394.700195312 773.200195312 l 1
 394.700195312 504.400390625 l 1
 501.799804688 530.599609375 589.299804688 610.700195312 623.200195312 718.400390625 c 1
 698.5 694.700195312 l 1
 673.5 615.099609375 624.900390625 547.5 561.700195312 498.799804688 c 1
 877.299804688 498.799804688 l 1
 877.299804688 416.700195312 l 1
 394.700195312 416.700195312 l 1
 394.700195312 273.400390625 l 2
 406.099609375 107.599609375 526.200195312 -1.400390625 694 2.7001953125 c 0
234.099609375 -17.5 m 0
 297.200195312 -17.5 348.400390625 33.7001953125 348.400390625 96.7998046875 c 0
 348.400390625 111.700195312 345.599609375 125.900390625 340.299804688 138.900390625 c 0
 339.799804688 140.299804688 339.200195312 141.700195312 338.599609375 143.099609375 c 0
 320.900390625 183.099609375 280.799804688 211.099609375 234.099609375 211.099609375 c 0
 171 211.099609375 119.799804688 159.900390625 119.799804688 96.7998046875 c 0
 119.799804688 33.7001953125 171 -17.5 234.099609375 -17.5 c 0
EndSplineSet
EndChar

StartChar: uniE114
Encoding: 57620 57620 3
Width: 1000
HStem: -20.7002 83<314.99 450.715> 290.9 83.0996<314.943 450.716> 416.7 82.0996<122.7 198.1 295.5 442.523 561.7 877.3>
VStem: 172 82.9004<-86.5 16.0829> 499.4 83.0996<111.92 241.374> 623.2 75.2998<669.021 696.903>
LayerCount: 2
Fore
SplineSet
172 -86.5 m 1
 172 81.7998046875 177.5 250.5 198.099609375 416.700195312 c 1
 122.700195312 416.700195312 l 1
 122.700195312 498.799804688 l 1
 209.700195312 498.799804688 l 1
 225.099609375 597.099609375 246.200195312 694.299804688 275.5 790 c 1
 357 765 l 1
 330.400390625 678.099609375 310.299804688 589.400390625 295.5 498.799804688 c 1
 367.5 498.799804688 l 2
 486.799804688 517.200195312 586.5 601.700195312 623.200195312 718.400390625 c 1
 698.5 694.700195312 l 1
 673.5 615.099609375 624.900390625 547.5 561.700195312 498.799804688 c 1
 877.299804688 498.799804688 l 1
 877.299804688 416.700195312 l 1
 283.599609375 416.700195312 l 2
 280.5 391.900390625 277.5 367.099609375 275 342 c 1
 302.299804688 360.799804688 346.900390625 374 382.5 374 c 0
 492.900390625 374 582.5 285.700195312 582.5 176.700195312 c 0
 582.5 67.7001953125 493 -20.7001953125 382.5 -20.7001953125 c 0
 333.599609375 -20.7001953125 293.099609375 -9.7001953125 258.400390625 19 c 1
 257 -17.400390625 254.900390625 -50.099609375 254.900390625 -86.5 c 1
 172 -86.5 l 1
382.5 290.900390625 m 0
 317.900390625 290.900390625 265.599609375 239.700195312 265.599609375 176.599609375 c 0
 265.599609375 113.5 318 62.2998046875 382.5 62.2998046875 c 0
 447 62.2998046875 499.400390625 113.5 499.400390625 176.599609375 c 0
 499.400390625 239.700195312 447.099609375 290.900390625 382.5 290.900390625 c 0
EndSplineSet
EndChar

StartChar: uniE115
Encoding: 57621 57621 4
Width: 1000
HStem: -93 85.5996<397.925 585.681> 416.7 82.0996<122.7 198.5 296.1 442.623 561.8 877.4>
VStem: 186.9 86<116.252 413.381> 623.3 75.2998<669.021 696.903> 788.7 85.5<264.325 297.9>
LayerCount: 2
Fore
SplineSet
187 203.099609375 m 1
 186.900390625 203.099609375 l 1
 186.900390625 274.599609375 190.900390625 345.900390625 198.5 416.700195312 c 1
 122.700195312 416.700195312 l 1
 122.700195312 498.799804688 l 1
 209.099609375 498.799804688 l 1
 223.900390625 597.299804688 246 694.599609375 275.5 790 c 1
 357.599609375 764.700195312 l 1
 330.700195312 677.5 310.200195312 588.700195312 296.099609375 498.799804688 c 1
 367.599609375 498.799804688 l 2
 486.900390625 517.200195312 586.599609375 601.700195312 623.299804688 718.400390625 c 1
 698.599609375 694.700195312 l 1
 673.599609375 615.099609375 625 547.5 561.799804688 498.799804688 c 1
 877.400390625 498.799804688 l 1
 877.400390625 416.700195312 l 1
 285 416.700195312 l 1
 277.200195312 347.700195312 273.099609375 278.299804688 272.900390625 208.799804688 c 0
 270.900390625 93.7001953125 361.900390625 -1.7001953125 476.200195312 -7.400390625 c 2
 480.799804688 -7.400390625 l 2
 649.200195312 -5.099609375 785.799804688 130.599609375 788.700195312 299.400390625 c 1
 874.200195312 297.900390625 l 2
 874 286.400390625 873.400390625 275 872.200195312 263.799804688 c 0
 959.099609375 217.599609375 1000.70019531 113.099609375 965.700195312 18 c 0
 927.400390625 -85.599609375 812.400390625 -138.599609375 708.799804688 -100.299804688 c 0
 683.299804688 -90.900390625 660 -76.400390625 640.400390625 -57.7998046875 c 0
 590.799804688 -80.2001953125 535.799804688 -92.7998046875 477.900390625 -93 c 0
 316.099609375 -89.5 187.900390625 42 187 203.099609375 c 1
852.900390625 176.200195312 m 1
 827.099609375 100.700195312 779.299804688 35.5 717.200195312 -11.7998046875 c 1
 758 -36.7001953125 811.799804688 -34.7998046875 851.099609375 -3 c 0
 901.099609375 37.2998046875 908.799804688 110.599609375 868.299804688 160.5 c 0
 863.700195312 166.200195312 858.5 171.5 852.900390625 176.200195312 c 1
EndSplineSet
EndChar

StartChar: uniE116
Encoding: 57622 57622 5
Width: 1000
HStem: -93 85.7002<394.366 528.141> 293.9 83<542.27 673.097> 416.7 82.0996<122.7 198.5 296.1 442.623 561.8 877.4>
VStem: 186.9 86<114.619 413.381> 409.6 83.1006<113.69 244.28> 623.3 75.2998<669.021 696.903> 721.3 151.5<113.444 245.756> 788.6 84.2002<-91.5996 61.5>
LayerCount: 2
Fore
SplineSet
187 210.299804688 m 1xfd
 186.900390625 210.299804688 l 1
 187.200195312 279.299804688 191.099609375 348.200195312 198.5 416.700195312 c 1
 122.700195312 416.700195312 l 1
 122.700195312 498.799804688 l 1
 209.099609375 498.799804688 l 1
 223.900390625 597.299804688 246 694.599609375 275.5 790 c 1
 357.599609375 764.700195312 l 1
 330.700195312 677.5 310.200195312 588.700195312 296.099609375 498.799804688 c 1
 367.599609375 498.799804688 l 2
 486.900390625 517.200195312 586.599609375 601.700195312 623.299804688 718.400390625 c 1
 698.599609375 694.700195312 l 1
 673.599609375 615.099609375 625 547.5 561.799804688 498.799804688 c 1
 877.400390625 498.799804688 l 1
 877.400390625 416.700195312 l 1
 284.900390625 416.700195312 l 1
 276.900390625 345.900390625 272.900390625 274.599609375 272.900390625 203.200195312 c 0
 273.900390625 90.599609375 361.200195312 -1.7998046875 473.599609375 -7.2998046875 c 2
 478.200195312 -7.2998046875 l 2
 495.900390625 -7.099609375 513.200195312 -5.400390625 530.099609375 -2.2998046875 c 1
 459.299804688 27.599609375 409.599609375 97.7998046875 409.599609375 179.5 c 0
 409.599609375 288.5 498 376.900390625 607 376.900390625 c 0
 684.5 376.900390625 753.5 327.799804688 785.799804688 262.799804688 c 1
 787.200195312 274.299804688 788.599609375 299.400390625 788.599609375 299.400390625 c 1
 872.799804688 299.400390625 l 1
 872.799804688 -91.599609375 l 1
 788.599609375 -91.599609375 l 1
 788.599609375 61.5 l 1
 716.099609375 -32.2001953125 602.700195312 -92.5 475.299804688 -93 c 0
 311 -89.400390625 184.099609375 46 187 210.299804688 c 1xfd
492.700195312 179.599609375 m 0
 492.700195312 116.5 543.900390625 65.2998046875 607 65.2998046875 c 0
 670.099609375 65.2998046875 721.299804688 116.5 721.299804688 179.599609375 c 0xfe
 721.299804688 242.700195312 670.099609375 293.900390625 607 293.900390625 c 0
 543.900390625 293.900390625 492.700195312 242.700195312 492.700195312 179.599609375 c 0
EndSplineSet
EndChar

StartChar: uniE117
Encoding: 57623 57623 6
Width: 1000
HStem: -93 85.5996<397.798 585.569> 416.7 82.0996<122.7 198.5 296.1 442.623 561.8 877.4>
VStem: 186.9 86<116.252 413.381> 623.3 75.2998<669.021 696.903> 788.6 84.2002<-86.4004 58.2998 194.485 299.5>
LayerCount: 2
Fore
SplineSet
187 203.099609375 m 1
 186.900390625 203.099609375 l 1
 186.900390625 274.599609375 190.900390625 345.900390625 198.5 416.700195312 c 1
 122.700195312 416.700195312 l 1
 122.700195312 498.799804688 l 1
 209.099609375 498.799804688 l 1
 223.900390625 597.299804688 246 694.599609375 275.5 790 c 1
 357.599609375 764.700195312 l 1
 330.700195312 677.5 310.200195312 588.700195312 296.099609375 498.799804688 c 1
 367.599609375 498.799804688 l 2
 486.900390625 517.200195312 586.599609375 601.700195312 623.299804688 718.400390625 c 1
 698.599609375 694.700195312 l 1
 673.599609375 615.099609375 625 547.5 561.799804688 498.799804688 c 1
 877.400390625 498.799804688 l 1
 877.400390625 416.700195312 l 1
 285 416.700195312 l 1
 277.200195312 347.799804688 273.099609375 278.400390625 272.900390625 208.799804688 c 0
 270.900390625 93.7001953125 361.700195312 -1.7001953125 476.099609375 -7.400390625 c 2
 480.700195312 -7.400390625 l 2
 649.099609375 -5 785.599609375 130.599609375 788.599609375 299.5 c 1
 872.799804688 300 l 1
 872.799804688 -86.400390625 l 1
 788.599609375 -86.400390625 l 1
 788.599609375 58.2998046875 l 1
 716 -33.599609375 603.700195312 -92.5 477.799804688 -93 c 0
 315.900390625 -89.5 187.900390625 42 187 203.099609375 c 1
EndSplineSet
EndChar

StartChar: uniE118
Encoding: 57624 57624 7
Width: 1000
HStem: 304.3 83.1006<566.92 696.379> 416.7 82.0996<122.7 198.5 296 442.623 561.8 877.4>
VStem: 186.9 85.8994<117.788 413.381> 434.2 83.2002<120.577 255.636> 623.3 75.2998<669.021 696.903> 746 83<119.029 255.636> 896 86.9004<-87.5996 -22.9855>
LayerCount: 2
Fore
SplineSet
813.200195312 108.799804688 m 2
 813.099609375 108.799804688 l 1
 865.099609375 101.099609375 913.900390625 73 946.5 26.7001953125 c 0
 970.099609375 -6.7001953125 982.799804688 -46.599609375 982.900390625 -87.599609375 c 1
 896 -87.7998046875 l 1
 895.900390625 -25.900390625 845.700195312 24.099609375 783.799804688 24 c 0
 760.700195312 23.900390625 737.700195312 17.5 718.900390625 4.2001953125 c 2
 644 -48.2998046875 l 2
 510.599609375 -131.5 333.900390625 -97 242.299804688 33.099609375 c 0
 207.200195312 83 187.299804688 142.299804688 186.900390625 203.099609375 c 0
 186.900390625 274.599609375 190.900390625 345.900390625 198.5 416.700195312 c 1
 122.700195312 416.700195312 l 1
 122.700195312 498.799804688 l 1
 209.099609375 498.799804688 l 1
 223.900390625 597.299804688 246 694.599609375 275.5 790 c 1
 357.599609375 764.700195312 l 1
 330.700195312 677.5 310.099609375 588.700195312 296 498.799804688 c 1
 367.599609375 498.799804688 l 2
 486.900390625 517.200195312 586.599609375 601.700195312 623.299804688 718.400390625 c 1
 698.599609375 694.700195312 l 1
 673.599609375 615.099609375 625 547.5 561.799804688 498.799804688 c 1
 877.400390625 498.799804688 l 1
 877.400390625 416.700195312 l 1
 284.900390625 416.700195312 l 1
 277.299804688 350 273.299804688 282.799804688 272.799804688 215.5 c 0
 270.799804688 98.2001953125 358.900390625 -1 475.799804688 -6.7001953125 c 0
 502.200195312 -8 528.299804688 -4.2998046875 553 3.900390625 c 1
 483.099609375 34.7001953125 434.200195312 105.200195312 434.200195312 187.400390625 c 0
 434.200195312 297.900390625 522.599609375 387.400390625 631.599609375 387.400390625 c 0
 740.599609375 387.400390625 829 297.900390625 829 187.400390625 c 0
 829 159.5 823.400390625 132.900390625 813.200195312 108.799804688 c 2
694.299804688 89.599609375 m 0
 725.400390625 110.5 746 146.5 746 187.400390625 c 0
 746 252 694.799804688 304.299804688 631.700195312 304.299804688 c 0
 568.599609375 304.299804688 517.400390625 252 517.400390625 187.400390625 c 0
 517.400390625 122.799804688 568.599609375 70.5 631.700195312 70.5 c 0
 648.5 70.5 664.5 74.2001953125 678.900390625 80.900390625 c 0
 684 84.099609375 689.099609375 87 694.299804688 89.599609375 c 0
EndSplineSet
EndChar

StartChar: uniE119
Encoding: 57625 57625 8
Width: 1000
HStem: 72.2002 94<888.405 967.595> 211 94<841.493 920.706> 416.7 82.0996<122.7 197.9 295.5 442.523 561.7 877.3>
VStem: 172 82.9004<-86.5 26.2468> 623.2 75.2998<669.021 696.903> 834.1 94<218.419 297.606> 881 94<79.6045 158.796>
LayerCount: 2
Fore
SplineSet
172 -83.900390625 m 2xf8
 172 84.099609375 177.400390625 251.5 197.900390625 416.700195312 c 1
 122.700195312 416.700195312 l 1
 122.700195312 498.799804688 l 1
 209.599609375 498.799804688 l 1
 225 596.900390625 246.099609375 694.099609375 275.5 790 c 1
 357.099609375 765 l 1
 330.200195312 677 310.200195312 588.400390625 295.5 498.799804688 c 1
 367.5 498.799804688 l 2
 486.799804688 517.200195312 586.5 601.700195312 623.200195312 718.400390625 c 1
 698.5 694.700195312 l 1
 673.5 615.099609375 624.900390625 547.5 561.700195312 498.799804688 c 1
 877.299804688 498.799804688 l 1
 877.299804688 416.700195312 l 1
 283.5 416.700195312 l 1
 273 334.299804688 266.400390625 250.900390625 262.900390625 166.400390625 c 1
 335.700195312 254.599609375 424 310.799804688 547.299804688 310.799804688 c 0
 597.799804688 310.799804688 647.900390625 301.400390625 694.599609375 282.799804688 c 0
 703.700195312 279.400390625 712.400390625 275.5 720.599609375 271 c 0
 720.900390625 270.799804688 721.200195312 270.700195312 721.5 270.5 c 0
 805.700195312 224.299804688 845.700195312 122.099609375 811.5 29.400390625 c 0
 773.799804688 -72.900390625 660.299804688 -125.200195312 558 -87.400390625 c 0
 542.200195312 -81.599609375 527.299804688 -73.7998046875 513.5 -64.2001953125 c 1
 560.599609375 3.400390625 l 1
 612.700195312 -32.900390625 684.400390625 -20.099609375 720.700195312 32 c 0
 757 84.099609375 744.200195312 155.799804688 692.099609375 192.099609375 c 0
 689.900390625 193.599609375 687.700195312 195 685.400390625 196.400390625 c 0
 529.200195312 272.5 362.900390625 207.5 286.700195312 51.400390625 c 0
 265.799804688 8.400390625 254.900390625 -38.7001953125 254.900390625 -86.5 c 1
 172 -86.5 l 1
 172 -83.900390625 l 2xf8
834.099609375 258 m 0xfc
 834.099609375 284 855.099609375 305 881.099609375 305 c 0
 907.099609375 305 928.099609375 284 928.099609375 258 c 0
 928.099609375 232 907.099609375 211 881.099609375 211 c 0
 855.099609375 211 834.099609375 232.099609375 834.099609375 258 c 0xfc
881 119.200195312 m 0xfa
 881 145.157226562 902.04296875 166.200195312 928 166.200195312 c 0
 953.95703125 166.200195312 975 145.157226562 975 119.200195312 c 0
 975 93.2421875 953.95703125 72.2001953125 928 72.2001953125 c 0
 902.04296875 72.2001953125 881 93.2421875 881 119.200195312 c 0xfa
EndSplineSet
EndChar

StartChar: uniE11A
Encoding: 57626 57626 9
Width: 1000
HStem: -91.5996 84.1992<542.8 855.3> 272.7 83.0996<366.947 502.536> 416.7 82.0996<122.7 198.5 296.3 442.623 561.8 877.4>
VStem: 186.9 130.5<94.5052 223.236> 186.9 87.3994<276.8 413.489> 551.2 83.0996<92.781 223.13> 623.3 75.2998<669.021 696.903>
LayerCount: 2
Fore
SplineSet
187 210.299804688 m 1xec
 186.900390625 210.299804688 l 1
 187.200195312 279.299804688 191.099609375 348.200195312 198.5 416.700195312 c 1
 122.700195312 416.700195312 l 1
 122.700195312 498.799804688 l 1
 209.099609375 498.799804688 l 1
 223.900390625 597.299804688 246 694.599609375 275.5 790 c 1
 357.700195312 764.700195312 l 1
 330.799804688 677.599609375 310.400390625 588.700195312 296.299804688 498.799804688 c 1
 367.599609375 498.799804688 l 2
 486.900390625 517.200195312 586.599609375 601.700195312 623.299804688 718.400390625 c 1
 698.599609375 694.700195312 l 1xf2
 673.599609375 615.099609375 625 547.5 561.799804688 498.799804688 c 1
 877.400390625 498.799804688 l 1
 877.400390625 416.700195312 l 1
 285.099609375 416.700195312 l 1
 279.799804688 370.200195312 276.099609375 323.599609375 274.299804688 276.799804688 c 1
 310.799804688 324.799804688 368.900390625 355.799804688 434.299804688 355.799804688 c 0
 544.799804688 355.799804688 634.299804688 267.400390625 634.299804688 158.400390625 c 0
 634.299804688 88.900390625 597.799804688 27.7998046875 542.799804688 -7.400390625 c 1
 855.299804688 -7.400390625 l 1
 855.299804688 -91.599609375 l 1
 478.400390625 -91.599609375 l 2
 314.099609375 -88 184.099609375 46 187 210.299804688 c 1xec
434.299804688 272.700195312 m 0
 369.700195312 272.700195312 317.400390625 221.5 317.400390625 158.400390625 c 0
 317.400390625 95.2998046875 369.700195312 44.099609375 434.299804688 44.099609375 c 0
 498.900390625 44.099609375 551.200195312 95.2998046875 551.200195312 158.400390625 c 0xf4
 551.200195312 221.5 498.900390625 272.700195312 434.299804688 272.700195312 c 0
EndSplineSet
EndChar

StartChar: uniE11B
Encoding: 57627 57627 10
Width: 1000
HStem: -91.5996 84.1992<542.8 855.3> 269.8 94<640.294 719.507 797.004 876.195> 272.7 83.0996<366.947 502.536> 416.7 82.0996<122.7 198.5 296.3 442.623 561.8 877.4>
VStem: 186.9 130.5<94.5052 223.236> 186.9 87.3994<276.8 413.489> 551.2 83.0996<92.781 223.13> 623.3 75.2998<669.021 696.903> 632.9 94<277.219 356.406> 789.6 94<277.204 356.396>
LayerCount: 2
Fore
SplineSet
632.900390625 316.799804688 m 0xd0c0
 632.900390625 342.799804688 653.900390625 363.799804688 679.900390625 363.799804688 c 0
 705.900390625 363.799804688 726.900390625 342.799804688 726.900390625 316.799804688 c 0
 726.900390625 290.799804688 705.900390625 269.799804688 679.900390625 269.799804688 c 0
 653.900390625 269.799804688 632.900390625 290.900390625 632.900390625 316.799804688 c 0xd0c0
789.599609375 316.799804688 m 0
 789.599609375 342.7578125 810.642578125 363.799804688 836.599609375 363.799804688 c 0
 862.557617188 363.799804688 883.599609375 342.7578125 883.599609375 316.799804688 c 0
 883.599609375 290.842773438 862.557617188 269.799804688 836.599609375 269.799804688 c 0
 810.642578125 269.799804688 789.599609375 290.842773438 789.599609375 316.799804688 c 0
187 210.299804688 m 1
 186.900390625 210.299804688 l 1
 187.200195312 279.299804688 191.099609375 348.200195312 198.5 416.700195312 c 1
 122.700195312 416.700195312 l 1
 122.700195312 498.799804688 l 1
 209.099609375 498.799804688 l 1
 223.900390625 597.299804688 246 694.599609375 275.5 790 c 1
 357.700195312 764.700195312 l 1
 330.799804688 677.599609375 310.400390625 588.700195312 296.299804688 498.799804688 c 1
 367.599609375 498.799804688 l 2
 486.900390625 517.200195312 586.599609375 601.700195312 623.299804688 718.400390625 c 1
 698.599609375 694.700195312 l 1xb940
 673.599609375 615.099609375 625 547.5 561.799804688 498.799804688 c 1
 877.400390625 498.799804688 l 1
 877.400390625 416.700195312 l 1
 285.099609375 416.700195312 l 1
 279.799804688 370.200195312 276.099609375 323.599609375 274.299804688 276.799804688 c 1
 310.799804688 324.799804688 368.900390625 355.799804688 434.299804688 355.799804688 c 0
 544.799804688 355.799804688 634.299804688 267.400390625 634.299804688 158.400390625 c 0xb640
 634.299804688 88.900390625 597.799804688 27.7998046875 542.799804688 -7.400390625 c 1
 855.299804688 -7.400390625 l 1
 855.299804688 -91.599609375 l 1
 478.400390625 -91.599609375 l 2
 314.099609375 -88 184.099609375 46 187 210.299804688 c 1
434.299804688 272.700195312 m 0
 369.700195312 272.700195312 317.400390625 221.5 317.400390625 158.400390625 c 0
 317.400390625 95.2998046875 369.700195312 44.099609375 434.299804688 44.099609375 c 0
 498.900390625 44.099609375 551.200195312 95.2998046875 551.200195312 158.400390625 c 0xba40
 551.200195312 221.5 498.900390625 272.700195312 434.299804688 272.700195312 c 0
EndSplineSet
EndChar

StartChar: uniE11C
Encoding: 57628 57628 11
Width: 1000
HStem: -102.8 83<190.27 319.73> -29.0996 84.1992<700.895 812.708> 208.8 83.2998<190.27 309.714> 286.6 84.3008<681.491 812.687> 416.7 82.0996<122.7 310.3 561.8 877.4>
VStem: 57.5996 83.1006<29.8652 159.33> 310.4 84.1992<284.2 416.7 504.3 773.2> 369.3 83.1006<29.8203 111.877> 547.1 84.2002<156.249 236.437> 610.3 84.2002<-97.5 -22.0996> 623.3 75.2998<669.991 696.903> 862.9 84.1992<105.258 236.459>
LayerCount: 2
Fore
SplineSet
255 -102.799804688 m 0x8d50
 146 -102.799804688 57.599609375 -14.2998046875 57.599609375 94.7001953125 c 0
 57.599609375 203.700195312 146 292.099609375 255 292.099609375 c 0
 274.200195312 292.099609375 292.799804688 289.299804688 310.299804688 284.200195312 c 1
 310.299804688 416.700195312 l 1
 122.700195312 416.700195312 l 1
 122.700195312 498.799804688 l 1
 310.400390625 498.799804688 l 1
 310.400390625 773.200195312 l 1
 394.599609375 773.200195312 l 1
 394.599609375 504.299804688 l 1
 501.700195312 530.400390625 589.400390625 610.599609375 623.299804688 718.400390625 c 1
 698.599609375 694.700195312 l 1xae30
 673.599609375 615.099609375 625 547.5 561.799804688 498.799804688 c 1
 877.400390625 498.799804688 l 1
 877.400390625 416.700195312 l 1
 394.5 416.700195312 l 1
 394.5 244 l 1
 547.700195312 155.5 l 1
 547.299804688 160.599609375 547.099609375 165.700195312 547.099609375 170.900390625 c 0
 547.099609375 281.400390625 636.599609375 370.900390625 747.099609375 370.900390625 c 0
 857.599609375 370.900390625 947.099609375 281.400390625 947.099609375 170.900390625 c 0
 947.099609375 60.400390625 857.599609375 -29.099609375 747.099609375 -29.099609375 c 0x5c90
 728.900390625 -29.099609375 711.299804688 -26.7001953125 694.5 -22.099609375 c 1
 694.5 -97.5 l 1
 610.299804688 -97.5 l 1
 610.299804688 20.599609375 l 1
 451.599609375 112.200195312 l 1
 452.099609375 106.400390625 452.400390625 100.5 452.400390625 94.599609375 c 0
 452.400390625 -14.400390625 364 -102.799804688 255 -102.799804688 c 0x8d50
747.099609375 286.599609375 m 0x5c90
 683.099609375 286.599609375 631.299804688 234.700195312 631.299804688 170.799804688 c 0
 631.299804688 137 645.900390625 106.599609375 669 85.400390625 c 2
 706.5 63.7001953125 l 1
 705.900390625 62.599609375 l 1
 718.700195312 57.7998046875 732.599609375 55.099609375 747.099609375 55.099609375 c 0
 811.099609375 55.099609375 862.900390625 106.799804688 862.900390625 170.799804688 c 0
 862.900390625 234.799804688 811 286.599609375 747.099609375 286.599609375 c 0x5c90
255 208.799804688 m 0xad10
 191.900390625 208.799804688 140.700195312 157.599609375 140.700195312 94.5 c 0
 140.700195312 31.400390625 191.900390625 -19.7998046875 255 -19.7998046875 c 0
 318.099609375 -19.7998046875 369.299804688 31.400390625 369.299804688 94.5 c 0
 369.299804688 132.200195312 351 165.599609375 322.900390625 186.5 c 2
 300.5 199.400390625 l 2
 286.5 205.400390625 271.200195312 208.799804688 255 208.799804688 c 0xad10
EndSplineSet
EndChar

StartChar: uniE11D
Encoding: 57629 57629 12
Width: 1000
HStem: -99.7002 83.1006<561.621 691.08> 211.9 98.8994<487.982 676.716> 416.7 82.0996<122.7 198 296.1 442.623 561.8 877.4>
VStem: 172 82.9004<-86.5 26.167> 198 86.0996<170.296 416.7> 429 83<32.9705 164.11> 623.3 75.2998<669.021 696.903> 740.6 83.2002<32.9374 164.044> 888 79.9004<105.2 200.603>
LayerCount: 2
Fore
SplineSet
172 -83.900390625 m 2xf780
 172 83.900390625 177.5 251.5 198 416.700195312 c 1
 122.700195312 416.700195312 l 1
 122.700195312 498.799804688 l 1
 209.599609375 498.799804688 l 1
 225 597 246.200195312 694.200195312 275.5 790 c 1
 357.200195312 765 l 1
 330.700195312 678.200195312 310.799804688 589 296.099609375 498.799804688 c 1
 367.599609375 498.799804688 l 2
 486.900390625 517.200195312 586.599609375 601.700195312 623.299804688 718.400390625 c 1
 698.599609375 694.700195312 l 1
 673.599609375 615.099609375 625 547.5 561.799804688 498.799804688 c 1
 877.400390625 498.799804688 l 1
 877.400390625 416.700195312 l 1
 284.099609375 416.700195312 l 1xef80
 273.400390625 333.400390625 266.700195312 249.5 263 166.400390625 c 1
 335.900390625 250.700195312 427.299804688 310.799804688 547.400390625 310.799804688 c 0
 594.900390625 310.799804688 642 302.200195312 686.299804688 285.700195312 c 0
 698.400390625 281.799804688 710 276.799804688 721 270.799804688 c 2
 721.599609375 270.5 l 2
 782.5 236.900390625 823.700195312 172.099609375 823.799804688 97.7001953125 c 0
 823.799804688 -11.2998046875 735.400390625 -99.7001953125 626.400390625 -99.7001953125 c 0
 517.400390625 -99.7001953125 429 -11.2998046875 429 97.7001953125 c 0
 429 143.099609375 444.400390625 184.900390625 470.200195312 218.299804688 c 1
 383.700195312 196.299804688 329 137.799804688 286.799804688 51.2998046875 c 0
 271.799804688 20.7001953125 262 -12.099609375 257.599609375 -45.7001953125 c 0
 255.599609375 -58.599609375 254.900390625 -71.2001953125 254.900390625 -83.900390625 c 2
 254.900390625 -86.5 l 1
 172 -86.5 l 1
 172 -83.900390625 l 2xf780
626.299804688 211.900390625 m 0
 563.200195312 211.900390625 512 160.799804688 512 97.7001953125 c 0
 512 34.599609375 563.200195312 -16.599609375 626.299804688 -16.599609375 c 0
 689.400390625 -16.599609375 740.599609375 34.5 740.599609375 97.599609375 c 0
 740.599609375 141.700195312 715.599609375 180 679 199 c 0
 673.900390625 201.400390625 668.799804688 203.599609375 663.700195312 205.599609375 c 0
 652 209.700195312 639.400390625 211.900390625 626.299804688 211.900390625 c 0
831.400390625 263.5 m 1
 831.299804688 263.5 l 1
 897 309.200195312 l 1
 943.400390625 242.400390625 965.299804688 179.5 967.900390625 105.200195312 c 1
 888 102.400390625 l 1
 885.900390625 162 869.5 208.599609375 831.400390625 263.5 c 1
EndSplineSet
EndChar

StartChar: uniE11E
Encoding: 57630 57630 13
Width: 1000
HStem: 416.7 82.0996<122.7 197.9 295.5 442.523 561.7 877.3>
VStem: 172 82.9004<-86.5 26.2468> 623.2 75.2998<669.021 696.903> 888 79.9004<105.2 200.603>
LayerCount: 2
Fore
SplineSet
172 -83.900390625 m 2
 172 84.099609375 177.400390625 251.5 197.900390625 416.700195312 c 1
 122.700195312 416.700195312 l 1
 122.700195312 498.799804688 l 1
 209.599609375 498.799804688 l 1
 225 596.900390625 246.099609375 694.099609375 275.5 790 c 1
 357.099609375 765 l 1
 330.200195312 677 310.200195312 588.400390625 295.5 498.799804688 c 1
 367.5 498.799804688 l 2
 486.799804688 517.200195312 586.5 601.700195312 623.200195312 718.400390625 c 1
 698.5 694.700195312 l 1
 673.5 615.099609375 624.900390625 547.5 561.700195312 498.799804688 c 1
 877.299804688 498.799804688 l 1
 877.299804688 416.700195312 l 1
 283.5 416.700195312 l 1
 273 334.299804688 266.400390625 250.900390625 262.900390625 166.400390625 c 1
 335.700195312 254.599609375 424 310.799804688 547.299804688 310.799804688 c 0
 597.799804688 310.799804688 647.900390625 301.400390625 694.599609375 282.799804688 c 0
 703.700195312 279.400390625 712.400390625 275.5 720.599609375 271 c 0
 720.900390625 270.799804688 721.200195312 270.700195312 721.5 270.5 c 0
 805.700195312 224.299804688 845.700195312 122.099609375 811.5 29.400390625 c 0
 773.799804688 -72.900390625 660.299804688 -125.200195312 558 -87.400390625 c 0
 542.200195312 -81.599609375 527.299804688 -73.7998046875 513.5 -64.2001953125 c 1
 560.599609375 3.400390625 l 1
 612.700195312 -32.900390625 684.400390625 -20.099609375 720.700195312 32 c 0
 757 84.099609375 744.200195312 155.799804688 692.099609375 192.099609375 c 0
 689.900390625 193.599609375 687.700195312 195 685.400390625 196.400390625 c 0
 529.200195312 272.5 362.900390625 207.5 286.700195312 51.400390625 c 0
 265.799804688 8.400390625 254.900390625 -38.7001953125 254.900390625 -86.5 c 1
 172 -86.5 l 1
 172 -83.900390625 l 2
831.400390625 263.5 m 1
 831.299804688 263.5 l 1
 897 309.200195312 l 1
 943.400390625 242.400390625 965.299804688 179.5 967.900390625 105.200195312 c 1
 888 102.400390625 l 1
 885.900390625 162 869.5 208.599609375 831.400390625 263.5 c 1
EndSplineSet
EndChar

StartChar: uniE11F
Encoding: 57631 57631 14
Width: 1000
HStem: -100.6 83.0996<169.42 300.336> 211.1 83.1006<169.42 300.873> 275.9 82.0996<633.4 817.3> 416.7 82.0996<122.7 309.1 561.7 877.3>
VStem: 36.7998 83<32.0703 161.53> 308.8 85.9004<279.6 416.7 504.4 773.2> 623.2 75.2998<670.038 696.903>
LayerCount: 2
Fore
SplineSet
633.400390625 275.900390625 m 1xbe
 633.400390625 358 l 1
 817.299804688 358 l 1
 817.299804688 275.900390625 l 1
 633.400390625 275.900390625 l 1xbe
694 2.7001953125 m 0
 772.5 4.7001953125 847.299804688 36.099609375 903.700195312 90.7001953125 c 1
 963.200195312 29.400390625 l 1
 805.400390625 -123.599609375 573.5 -139.599609375 420.599609375 18.2001953125 c 0
 419.400390625 19.5 418.099609375 20.7998046875 416.900390625 22.099609375 c 1
 387.5 -49.900390625 316.799804688 -100.599609375 234.200195312 -100.599609375 c 0
 125.200195312 -100.599609375 36.7998046875 -12.2001953125 36.7998046875 96.7998046875 c 0
 36.7998046875 205.799804688 125.200195312 294.200195312 234.200195312 294.200195312 c 0xde
 260.599609375 294.200195312 285.799804688 289 308.799804688 279.599609375 c 1
 308.700195312 281.5 308.599609375 283.400390625 308.599609375 285.299804688 c 2
 309.099609375 416.700195312 l 1
 122.700195312 416.700195312 l 1
 122.700195312 498.799804688 l 1
 309.400390625 498.799804688 l 1
 310.5 773.200195312 l 1
 394.700195312 773.200195312 l 1
 394.700195312 504.400390625 l 1
 501.799804688 530.599609375 589.299804688 610.700195312 623.200195312 718.400390625 c 1
 698.5 694.700195312 l 1
 673.5 615.099609375 624.900390625 547.5 561.700195312 498.799804688 c 1
 877.299804688 498.799804688 l 1
 877.299804688 416.700195312 l 1
 394.700195312 416.700195312 l 1
 394.700195312 273.400390625 l 2
 406.099609375 107.599609375 526.200195312 -1.400390625 694 2.7001953125 c 0
234.099609375 -17.5 m 0
 297.200195312 -17.5 348.400390625 33.7001953125 348.400390625 96.7998046875 c 0
 348.400390625 111.700195312 345.599609375 125.900390625 340.299804688 138.900390625 c 0
 339.799804688 140.299804688 339.200195312 141.700195312 338.599609375 143.099609375 c 0
 320.900390625 183.099609375 280.799804688 211.099609375 234.099609375 211.099609375 c 0
 171 211.099609375 119.799804688 159.900390625 119.799804688 96.7998046875 c 0
 119.799804688 33.7001953125 171 -17.5 234.099609375 -17.5 c 0
EndSplineSet
EndChar

StartChar: uniE120
Encoding: 57632 57632 15
Width: 1000
HStem: -20.7002 83<314.99 450.715> 275.9 82.0996<633.4 817.3> 290.9 83.0996<314.943 450.716> 416.7 82.0996<122.7 198.1 295.5 442.523 561.7 877.3>
VStem: 172 82.9004<-86.5 16.0829> 499.4 83.0996<111.92 241.374> 623.2 75.2998<669.021 696.903>
LayerCount: 2
Fore
SplineSet
633.400390625 275.900390625 m 1xde
 633.400390625 358 l 1
 817.299804688 358 l 1
 817.299804688 275.900390625 l 1
 633.400390625 275.900390625 l 1xde
172 -86.5 m 1
 172 81.7998046875 177.5 250.5 198.099609375 416.700195312 c 1
 122.700195312 416.700195312 l 1
 122.700195312 498.799804688 l 1
 209.700195312 498.799804688 l 1
 225.099609375 597.099609375 246.200195312 694.299804688 275.5 790 c 1
 357 765 l 1
 330.400390625 678.099609375 310.299804688 589.400390625 295.5 498.799804688 c 1
 367.5 498.799804688 l 2
 486.799804688 517.200195312 586.5 601.700195312 623.200195312 718.400390625 c 1
 698.5 694.700195312 l 1
 673.5 615.099609375 624.900390625 547.5 561.700195312 498.799804688 c 1
 877.299804688 498.799804688 l 1
 877.299804688 416.700195312 l 1
 283.599609375 416.700195312 l 2
 280.5 391.900390625 277.5 367.099609375 275 342 c 1
 302.299804688 360.799804688 346.900390625 374 382.5 374 c 0xbe
 492.900390625 374 582.5 285.700195312 582.5 176.700195312 c 0
 582.5 67.7001953125 493 -20.7001953125 382.5 -20.7001953125 c 0
 333.599609375 -20.7001953125 293.099609375 -9.7001953125 258.400390625 19 c 1
 257 -17.400390625 254.900390625 -50.099609375 254.900390625 -86.5 c 1
 172 -86.5 l 1
382.5 290.900390625 m 0
 317.900390625 290.900390625 265.599609375 239.700195312 265.599609375 176.599609375 c 0
 265.599609375 113.5 318 62.2998046875 382.5 62.2998046875 c 0
 447 62.2998046875 499.400390625 113.5 499.400390625 176.599609375 c 0
 499.400390625 239.700195312 447.099609375 290.900390625 382.5 290.900390625 c 0
EndSplineSet
EndChar

StartChar: uniE121
Encoding: 57633 57633 16
Width: 1000
HStem: -93 85.5996<397.798 585.569> 275.9 82.0996<540.2 724.1> 416.7 82.0996<122.7 198.5 296.1 442.623 561.8 877.4>
VStem: 186.9 86<116.252 413.381> 623.3 75.2998<669.021 696.903> 788.6 84.2002<-86.4004 58.2998 194.485 299.5>
LayerCount: 2
Fore
SplineSet
187 203.099609375 m 1
 186.900390625 203.099609375 l 1
 186.900390625 274.599609375 190.900390625 345.900390625 198.5 416.700195312 c 1
 122.700195312 416.700195312 l 1
 122.700195312 498.799804688 l 1
 209.099609375 498.799804688 l 1
 223.900390625 597.299804688 246 694.599609375 275.5 790 c 1
 357.599609375 764.700195312 l 1
 330.700195312 677.5 310.200195312 588.700195312 296.099609375 498.799804688 c 1
 367.599609375 498.799804688 l 2
 486.900390625 517.200195312 586.599609375 601.700195312 623.299804688 718.400390625 c 1
 698.599609375 694.700195312 l 1
 673.599609375 615.099609375 625 547.5 561.799804688 498.799804688 c 1
 877.400390625 498.799804688 l 1
 877.400390625 416.700195312 l 1
 285 416.700195312 l 1
 277.200195312 347.799804688 273.099609375 278.400390625 272.900390625 208.799804688 c 0
 270.900390625 93.7001953125 361.700195312 -1.7001953125 476.099609375 -7.400390625 c 2
 480.700195312 -7.400390625 l 2
 649.099609375 -5 785.599609375 130.599609375 788.599609375 299.5 c 1
 872.799804688 300 l 1
 872.799804688 -86.400390625 l 1
 788.599609375 -86.400390625 l 1
 788.599609375 58.2998046875 l 1
 716 -33.599609375 603.700195312 -92.5 477.799804688 -93 c 0
 315.900390625 -89.5 187.900390625 42 187 203.099609375 c 1
540.200195312 275.900390625 m 1
 540.200195312 358 l 1
 724.099609375 358 l 1
 724.099609375 275.900390625 l 1
 540.200195312 275.900390625 l 1
EndSplineSet
EndChar

StartChar: uniE122
Encoding: 57634 57634 17
Width: 1000
Flags: W
HStem: -99.7002 83.1006<561.621 691.08> 211.9 98.8994<487.982 676.716> 416.7 82.0996<122.7 198 296.1 442.623 561.8 877.4> 566.7 64.2998<815.607 879.786> 701.2 64.2998<815.607 879.793>
VStem: 172 82.9004<-86.5 26.167> 198 86.0996<170.296 416.7> 429 83<32.9705 164.11> 623.3 75.2998<669.021 696.903> 740.6 83.2002<32.9374 164.044> 748.3 64.2998<634.007 698.193> 882.8 64.2998<634.007 698.193>
LayerCount: 2
Fore
SplineSet
847.700195312 765.5 m 4xf9b0
 902.5 765.5 947.099609375 720.900390625 947.099609375 666.099609375 c 4
 947.099609375 611.299804688 902.5 566.700195312 847.700195312 566.700195312 c 4
 792.900390625 566.700195312 748.299804688 611.299804688 748.299804688 666.099609375 c 4
 748.299804688 720.900390625 792.900390625 765.5 847.700195312 765.5 c 4xf9b0
847.700195312 631 m 4
 867 631 882.799804688 646.700195312 882.799804688 666.099609375 c 4
 882.799804688 685.5 867.099609375 701.200195312 847.700195312 701.200195312 c 4
 828.299804688 701.200195312 812.599609375 685.5 812.599609375 666.099609375 c 4
 812.599609375 646.700195312 828.299804688 631 847.700195312 631 c 4
172 -83.900390625 m 2xfdd0
 172 83.900390625 177.5 251.5 198 416.700195312 c 1
 122.700195312 416.700195312 l 1
 122.700195312 498.799804688 l 1
 209.599609375 498.799804688 l 1
 225 597 246.200195312 694.200195312 275.5 790 c 1
 357.200195312 765 l 1
 330.700195312 678.200195312 310.799804688 589 296.099609375 498.799804688 c 1
 367.599609375 498.799804688 l 2
 486.900390625 517.200195312 586.599609375 601.700195312 623.299804688 718.400390625 c 1
 698.599609375 694.700195312 l 1
 673.599609375 615.099609375 625 547.5 561.799804688 498.799804688 c 1
 877.400390625 498.799804688 l 1
 877.400390625 416.700195312 l 1
 284.099609375 416.700195312 l 1xfb90
 273.400390625 333.400390625 266.700195312 249.5 263 166.400390625 c 1
 335.900390625 250.700195312 427.299804688 310.799804688 547.400390625 310.799804688 c 0
 594.900390625 310.799804688 642 302.200195312 686.299804688 285.700195312 c 0
 698.400390625 281.799804688 710 276.799804688 721 270.799804688 c 2
 721.599609375 270.5 l 2
 782.5 236.900390625 823.700195312 172.099609375 823.799804688 97.7001953125 c 0
 823.799804688 -11.2998046875 735.400390625 -99.7001953125 626.400390625 -99.7001953125 c 0
 517.400390625 -99.7001953125 429 -11.2998046875 429 97.7001953125 c 0
 429 143.099609375 444.400390625 184.900390625 470.200195312 218.299804688 c 1
 383.700195312 196.299804688 329 137.799804688 286.799804688 51.2998046875 c 0
 271.799804688 20.7001953125 262 -12.099609375 257.599609375 -45.7001953125 c 0
 255.599609375 -58.599609375 254.900390625 -71.2001953125 254.900390625 -83.900390625 c 2
 254.900390625 -86.5 l 1
 172 -86.5 l 1
 172 -83.900390625 l 2xfdd0
626.299804688 211.900390625 m 0
 563.200195312 211.900390625 512 160.799804688 512 97.7001953125 c 0
 512 34.599609375 563.200195312 -16.599609375 626.299804688 -16.599609375 c 0
 689.400390625 -16.599609375 740.599609375 34.5 740.599609375 97.599609375 c 0xf9d0
 740.599609375 141.700195312 715.599609375 180 679 199 c 0
 673.900390625 201.400390625 668.799804688 203.599609375 663.700195312 205.599609375 c 0
 652 209.700195312 639.400390625 211.900390625 626.299804688 211.900390625 c 0
EndSplineSet
EndChar

StartChar: uniE123
Encoding: 57635 57635 18
Width: 1000
Flags: W
HStem: 416.7 82.0996<122.7 197.9 295.5 442.523 561.7 877.3> 566.7 64.2998<815.607 879.786> 701.2 64.2998<815.607 879.793>
VStem: 172 82.9004<-86.5 26.2468> 623.2 75.2998<669.021 696.903> 748.3 64.2998<634.007 698.193> 882.8 64.2998<634.007 698.193>
LayerCount: 2
Fore
SplineSet
847.700195312 765.5 m 4
 902.5 765.5 947.099609375 720.900390625 947.099609375 666.099609375 c 4
 947.099609375 611.299804688 902.5 566.700195312 847.700195312 566.700195312 c 4
 792.900390625 566.700195312 748.299804688 611.299804688 748.299804688 666.099609375 c 4
 748.299804688 720.900390625 792.900390625 765.5 847.700195312 765.5 c 4
847.700195312 631 m 4
 867 631 882.799804688 646.700195312 882.799804688 666.099609375 c 4
 882.799804688 685.5 867.099609375 701.200195312 847.700195312 701.200195312 c 4
 828.299804688 701.200195312 812.599609375 685.5 812.599609375 666.099609375 c 4
 812.599609375 646.700195312 828.299804688 631 847.700195312 631 c 4
172 -83.900390625 m 2
 172 84.099609375 177.400390625 251.5 197.900390625 416.700195312 c 1
 122.700195312 416.700195312 l 1
 122.700195312 498.799804688 l 1
 209.599609375 498.799804688 l 1
 225 596.900390625 246.099609375 694.099609375 275.5 790 c 1
 357.099609375 765 l 1
 330.200195312 677 310.200195312 588.400390625 295.5 498.799804688 c 1
 367.5 498.799804688 l 2
 486.799804688 517.200195312 586.5 601.700195312 623.200195312 718.400390625 c 1
 698.5 694.700195312 l 1
 673.5 615.099609375 624.900390625 547.5 561.700195312 498.799804688 c 1
 877.299804688 498.799804688 l 1
 877.299804688 416.700195312 l 1
 283.5 416.700195312 l 1
 273 334.299804688 266.400390625 250.900390625 262.900390625 166.400390625 c 1
 335.700195312 254.599609375 424 310.799804688 547.299804688 310.799804688 c 0
 597.799804688 310.799804688 647.900390625 301.400390625 694.599609375 282.799804688 c 0
 703.700195312 279.400390625 712.400390625 275.5 720.599609375 271 c 0
 720.900390625 270.799804688 721.200195312 270.700195312 721.5 270.5 c 0
 805.700195312 224.299804688 845.700195312 122.099609375 811.5 29.400390625 c 0
 773.799804688 -72.900390625 660.299804688 -125.200195312 558 -87.400390625 c 0
 542.200195312 -81.599609375 527.299804688 -73.7998046875 513.5 -64.2001953125 c 1
 560.599609375 3.400390625 l 1
 612.700195312 -32.900390625 684.400390625 -20.099609375 720.700195312 32 c 0
 757 84.099609375 744.200195312 155.799804688 692.099609375 192.099609375 c 0
 689.900390625 193.599609375 687.700195312 195 685.400390625 196.400390625 c 0
 529.200195312 272.5 362.900390625 207.5 286.700195312 51.400390625 c 0
 265.799804688 8.400390625 254.900390625 -38.7001953125 254.900390625 -86.5 c 1
 172 -86.5 l 1
 172 -83.900390625 l 2
EndSplineSet
EndChar

StartChar: uniE124
Encoding: 57636 57636 19
Width: 1000
Flags: W
HStem: -100.6 83.0996<169.42 300.336> 211.1 83.1006<169.42 300.873> 416.7 82.0996<122.7 309.1 561.7 877.3> 566.7 64.2998<815.607 879.786> 701.2 64.2998<815.607 879.793>
VStem: 36.7998 83<32.0703 161.53> 308.8 85.9004<279.6 416.7 504.4 773.2> 623.2 75.2998<670.038 696.903> 748.3 64.2998<634.007 698.193> 882.8 64.2998<634.007 698.193>
LayerCount: 2
Fore
SplineSet
847.700195312 765.5 m 4
 902.5 765.5 947.099609375 720.900390625 947.099609375 666.099609375 c 4
 947.099609375 611.299804688 902.5 566.700195312 847.700195312 566.700195312 c 4
 792.900390625 566.700195312 748.299804688 611.299804688 748.299804688 666.099609375 c 4
 748.299804688 720.900390625 792.900390625 765.5 847.700195312 765.5 c 4
847.700195312 631 m 4
 867 631 882.799804688 646.700195312 882.799804688 666.099609375 c 4
 882.799804688 685.5 867.099609375 701.200195312 847.700195312 701.200195312 c 4
 828.299804688 701.200195312 812.599609375 685.5 812.599609375 666.099609375 c 4
 812.599609375 646.700195312 828.299804688 631 847.700195312 631 c 4
694 2.7001953125 m 0
 772.5 4.7001953125 847.299804688 36.099609375 903.700195312 90.7001953125 c 1
 963.200195312 29.400390625 l 1
 805.400390625 -123.599609375 573.5 -139.599609375 420.599609375 18.2001953125 c 0
 419.400390625 19.5 418.099609375 20.7998046875 416.900390625 22.099609375 c 1
 387.5 -49.900390625 316.799804688 -100.599609375 234.200195312 -100.599609375 c 0
 125.200195312 -100.599609375 36.7998046875 -12.2001953125 36.7998046875 96.7998046875 c 0
 36.7998046875 205.799804688 125.200195312 294.200195312 234.200195312 294.200195312 c 0
 260.599609375 294.200195312 285.799804688 289 308.799804688 279.599609375 c 1
 308.700195312 281.5 308.599609375 283.400390625 308.599609375 285.299804688 c 2
 309.099609375 416.700195312 l 1
 122.700195312 416.700195312 l 1
 122.700195312 498.799804688 l 1
 309.400390625 498.799804688 l 1
 310.5 773.200195312 l 1
 394.700195312 773.200195312 l 1
 394.700195312 504.400390625 l 1
 501.799804688 530.599609375 589.299804688 610.700195312 623.200195312 718.400390625 c 1
 698.5 694.700195312 l 1
 673.5 615.099609375 624.900390625 547.5 561.700195312 498.799804688 c 1
 877.299804688 498.799804688 l 1
 877.299804688 416.700195312 l 1
 394.700195312 416.700195312 l 1
 394.700195312 273.400390625 l 2
 406.099609375 107.599609375 526.200195312 -1.400390625 694 2.7001953125 c 0
234.099609375 -17.5 m 0
 297.200195312 -17.5 348.400390625 33.7001953125 348.400390625 96.7998046875 c 0
 348.400390625 111.700195312 345.599609375 125.900390625 340.299804688 138.900390625 c 0
 339.799804688 140.299804688 339.200195312 141.700195312 338.599609375 143.099609375 c 0
 320.900390625 183.099609375 280.799804688 211.099609375 234.099609375 211.099609375 c 0
 171 211.099609375 119.799804688 159.900390625 119.799804688 96.7998046875 c 0
 119.799804688 33.7001953125 171 -17.5 234.099609375 -17.5 c 0
EndSplineSet
EndChar

StartChar: uniE125
Encoding: 57637 57637 20
Width: 1000
Flags: W
HStem: -20.7002 83<314.99 450.715> 290.9 83.0996<314.943 450.716> 416.7 82.0996<122.7 198.1 295.5 442.523 561.7 877.3> 566.7 64.2998<815.607 879.786> 701.2 64.2998<815.607 879.793>
VStem: 172 82.9004<-86.5 16.0829> 499.4 83.0996<111.92 241.374> 623.2 75.2998<669.021 696.903> 748.3 64.2998<634.007 698.193> 882.8 64.2998<634.007 698.193>
LayerCount: 2
Fore
SplineSet
847.700195312 765.5 m 4
 902.5 765.5 947.099609375 720.900390625 947.099609375 666.099609375 c 4
 947.099609375 611.299804688 902.5 566.700195312 847.700195312 566.700195312 c 4
 792.900390625 566.700195312 748.299804688 611.299804688 748.299804688 666.099609375 c 4
 748.299804688 720.900390625 792.900390625 765.5 847.700195312 765.5 c 4
847.700195312 631 m 4
 867 631 882.799804688 646.700195312 882.799804688 666.099609375 c 4
 882.799804688 685.5 867.099609375 701.200195312 847.700195312 701.200195312 c 4
 828.299804688 701.200195312 812.599609375 685.5 812.599609375 666.099609375 c 4
 812.599609375 646.700195312 828.299804688 631 847.700195312 631 c 4
172 -86.5 m 1
 172 81.7998046875 177.5 250.5 198.099609375 416.700195312 c 1
 122.700195312 416.700195312 l 1
 122.700195312 498.799804688 l 1
 209.700195312 498.799804688 l 1
 225.099609375 597.099609375 246.200195312 694.299804688 275.5 790 c 1
 357 765 l 1
 330.400390625 678.099609375 310.299804688 589.400390625 295.5 498.799804688 c 1
 367.5 498.799804688 l 2
 486.799804688 517.200195312 586.5 601.700195312 623.200195312 718.400390625 c 1
 698.5 694.700195312 l 1
 673.5 615.099609375 624.900390625 547.5 561.700195312 498.799804688 c 1
 877.299804688 498.799804688 l 1
 877.299804688 416.700195312 l 1
 283.599609375 416.700195312 l 2
 280.5 391.900390625 277.5 367.099609375 275 342 c 1
 302.299804688 360.799804688 346.900390625 374 382.5 374 c 0
 492.900390625 374 582.5 285.700195312 582.5 176.700195312 c 0
 582.5 67.7001953125 493 -20.7001953125 382.5 -20.7001953125 c 0
 333.599609375 -20.7001953125 293.099609375 -9.7001953125 258.400390625 19 c 1
 257 -17.400390625 254.900390625 -50.099609375 254.900390625 -86.5 c 1
 172 -86.5 l 1
382.5 290.900390625 m 0
 317.900390625 290.900390625 265.599609375 239.700195312 265.599609375 176.599609375 c 0
 265.599609375 113.5 318 62.2998046875 382.5 62.2998046875 c 0
 447 62.2998046875 499.400390625 113.5 499.400390625 176.599609375 c 0
 499.400390625 239.700195312 447.099609375 290.900390625 382.5 290.900390625 c 0
EndSplineSet
EndChar

StartChar: uniE126
Encoding: 57638 57638 21
Width: 1000
Flags: W
HStem: -93 85.5996<397.925 585.681> 416.7 82.0996<122.7 198.5 296.1 442.623 561.8 877.4> 566.7 64.2998<815.607 879.786> 701.2 64.2998<815.607 879.793>
VStem: 186.9 86<116.252 413.381> 623.3 75.2998<669.021 696.903> 748.3 64.2998<634.007 698.193> 788.7 85.5<264.325 297.9> 882.8 64.2998<634.007 698.193>
LayerCount: 2
Fore
SplineSet
847.700195312 765.5 m 4xfe80
 902.5 765.5 947.099609375 720.900390625 947.099609375 666.099609375 c 4
 947.099609375 611.299804688 902.5 566.700195312 847.700195312 566.700195312 c 4
 792.900390625 566.700195312 748.299804688 611.299804688 748.299804688 666.099609375 c 4
 748.299804688 720.900390625 792.900390625 765.5 847.700195312 765.5 c 4xfe80
847.700195312 631 m 4
 867 631 882.799804688 646.700195312 882.799804688 666.099609375 c 4
 882.799804688 685.5 867.099609375 701.200195312 847.700195312 701.200195312 c 4
 828.299804688 701.200195312 812.599609375 685.5 812.599609375 666.099609375 c 4
 812.599609375 646.700195312 828.299804688 631 847.700195312 631 c 4
187 203.099609375 m 1
 186.900390625 203.099609375 l 1
 186.900390625 274.599609375 190.900390625 345.900390625 198.5 416.700195312 c 1
 122.700195312 416.700195312 l 1
 122.700195312 498.799804688 l 1
 209.099609375 498.799804688 l 1
 223.900390625 597.299804688 246 694.599609375 275.5 790 c 1
 357.599609375 764.700195312 l 1
 330.700195312 677.5 310.200195312 588.700195312 296.099609375 498.799804688 c 1
 367.599609375 498.799804688 l 2
 486.900390625 517.200195312 586.599609375 601.700195312 623.299804688 718.400390625 c 1
 698.599609375 694.700195312 l 1
 673.599609375 615.099609375 625 547.5 561.799804688 498.799804688 c 1
 877.400390625 498.799804688 l 1
 877.400390625 416.700195312 l 1
 285 416.700195312 l 1
 277.200195312 347.700195312 273.099609375 278.299804688 272.900390625 208.799804688 c 0
 270.900390625 93.7001953125 361.900390625 -1.7001953125 476.200195312 -7.400390625 c 2
 480.799804688 -7.400390625 l 2
 649.200195312 -5.099609375 785.799804688 130.599609375 788.700195312 299.400390625 c 1
 874.200195312 297.900390625 l 2xfd80
 874 286.400390625 873.400390625 275 872.200195312 263.799804688 c 0
 959.099609375 217.599609375 1000.70019531 113.099609375 965.700195312 18 c 0
 927.400390625 -85.599609375 812.400390625 -138.599609375 708.799804688 -100.299804688 c 0
 683.299804688 -90.900390625 660 -76.400390625 640.400390625 -57.7998046875 c 0
 590.799804688 -80.2001953125 535.799804688 -92.7998046875 477.900390625 -93 c 0
 316.099609375 -89.5 187.900390625 42 187 203.099609375 c 1
852.900390625 176.200195312 m 1
 827.099609375 100.700195312 779.299804688 35.5 717.200195312 -11.7998046875 c 1
 758 -36.7001953125 811.799804688 -34.7998046875 851.099609375 -3 c 0
 901.099609375 37.2998046875 908.799804688 110.599609375 868.299804688 160.5 c 0
 863.700195312 166.200195312 858.5 171.5 852.900390625 176.200195312 c 1
EndSplineSet
EndChar

StartChar: uniE127
Encoding: 57639 57639 22
Width: 1000
Flags: W
HStem: -93 85.7002<394.366 528.141> 293.9 83<542.27 673.097> 416.7 82.0996<122.7 198.5 296.1 442.623 561.8 877.4> 566.7 64.2998<815.607 879.786> 701.2 64.2998<815.607 879.793>
VStem: 186.9 86<114.619 413.381> 409.6 83.1006<113.69 244.28> 623.3 75.2998<669.021 696.903> 721.3 151.5<113.444 245.756> 748.3 64.2998<634.007 698.193> 788.6 84.2002<-91.5996 61.5> 882.8 64.2998<634.007 698.193>
LayerCount: 2
Fore
SplineSet
847.700195312 765.5 m 4xff50
 902.5 765.5 947.099609375 720.900390625 947.099609375 666.099609375 c 4
 947.099609375 611.299804688 902.5 566.700195312 847.700195312 566.700195312 c 4
 792.900390625 566.700195312 748.299804688 611.299804688 748.299804688 666.099609375 c 4
 748.299804688 720.900390625 792.900390625 765.5 847.700195312 765.5 c 4xff50
847.700195312 631 m 4
 867 631 882.799804688 646.700195312 882.799804688 666.099609375 c 4
 882.799804688 685.5 867.099609375 701.200195312 847.700195312 701.200195312 c 4
 828.299804688 701.200195312 812.599609375 685.5 812.599609375 666.099609375 c 4
 812.599609375 646.700195312 828.299804688 631 847.700195312 631 c 4
187 210.299804688 m 1
 186.900390625 210.299804688 l 1
 187.200195312 279.299804688 191.099609375 348.200195312 198.5 416.700195312 c 1
 122.700195312 416.700195312 l 1
 122.700195312 498.799804688 l 1
 209.099609375 498.799804688 l 1
 223.900390625 597.299804688 246 694.599609375 275.5 790 c 1
 357.599609375 764.700195312 l 1
 330.700195312 677.5 310.200195312 588.700195312 296.099609375 498.799804688 c 1
 367.599609375 498.799804688 l 2
 486.900390625 517.200195312 586.599609375 601.700195312 623.299804688 718.400390625 c 1
 698.599609375 694.700195312 l 1
 673.599609375 615.099609375 625 547.5 561.799804688 498.799804688 c 1
 877.400390625 498.799804688 l 1
 877.400390625 416.700195312 l 1
 284.900390625 416.700195312 l 1
 276.900390625 345.900390625 272.900390625 274.599609375 272.900390625 203.200195312 c 0
 273.900390625 90.599609375 361.200195312 -1.7998046875 473.599609375 -7.2998046875 c 2
 478.200195312 -7.2998046875 l 2
 495.900390625 -7.099609375 513.200195312 -5.400390625 530.099609375 -2.2998046875 c 1
 459.299804688 27.599609375 409.599609375 97.7998046875 409.599609375 179.5 c 0
 409.599609375 288.5 498 376.900390625 607 376.900390625 c 0
 684.5 376.900390625 753.5 327.799804688 785.799804688 262.799804688 c 1
 787.200195312 274.299804688 788.599609375 299.400390625 788.599609375 299.400390625 c 1
 872.799804688 299.400390625 l 1
 872.799804688 -91.599609375 l 1
 788.599609375 -91.599609375 l 1
 788.599609375 61.5 l 1xff30
 716.099609375 -32.2001953125 602.700195312 -92.5 475.299804688 -93 c 0
 311 -89.400390625 184.099609375 46 187 210.299804688 c 1
492.700195312 179.599609375 m 0
 492.700195312 116.5 543.900390625 65.2998046875 607 65.2998046875 c 0
 670.099609375 65.2998046875 721.299804688 116.5 721.299804688 179.599609375 c 0xff90
 721.299804688 242.700195312 670.099609375 293.900390625 607 293.900390625 c 0
 543.900390625 293.900390625 492.700195312 242.700195312 492.700195312 179.599609375 c 0
EndSplineSet
EndChar

StartChar: uniE128
Encoding: 57640 57640 23
Width: 1000
Flags: W
HStem: -93 85.5996<397.798 585.569> 416.7 82.0996<122.7 198.5 296.1 442.623 561.8 877.4> 566.7 64.2998<815.607 879.786> 701.2 64.2998<815.607 879.793>
VStem: 186.9 86<116.252 413.381> 623.3 75.2998<669.021 696.903> 748.3 64.2998<634.007 698.193> 788.6 84.2002<-86.4004 58.2998 194.485 299.5> 882.8 64.2998<634.007 698.193>
LayerCount: 2
Fore
SplineSet
847.700195312 765.5 m 4xfe80
 902.5 765.5 947.099609375 720.900390625 947.099609375 666.099609375 c 4
 947.099609375 611.299804688 902.5 566.700195312 847.700195312 566.700195312 c 4
 792.900390625 566.700195312 748.299804688 611.299804688 748.299804688 666.099609375 c 4
 748.299804688 720.900390625 792.900390625 765.5 847.700195312 765.5 c 4xfe80
847.700195312 631 m 4
 867 631 882.799804688 646.700195312 882.799804688 666.099609375 c 4
 882.799804688 685.5 867.099609375 701.200195312 847.700195312 701.200195312 c 4
 828.299804688 701.200195312 812.599609375 685.5 812.599609375 666.099609375 c 4
 812.599609375 646.700195312 828.299804688 631 847.700195312 631 c 4
187 203.099609375 m 1
 186.900390625 203.099609375 l 1
 186.900390625 274.599609375 190.900390625 345.900390625 198.5 416.700195312 c 1
 122.700195312 416.700195312 l 1
 122.700195312 498.799804688 l 1
 209.099609375 498.799804688 l 1
 223.900390625 597.299804688 246 694.599609375 275.5 790 c 1
 357.599609375 764.700195312 l 1
 330.700195312 677.5 310.200195312 588.700195312 296.099609375 498.799804688 c 1
 367.599609375 498.799804688 l 2
 486.900390625 517.200195312 586.599609375 601.700195312 623.299804688 718.400390625 c 1
 698.599609375 694.700195312 l 1
 673.599609375 615.099609375 625 547.5 561.799804688 498.799804688 c 1
 877.400390625 498.799804688 l 1
 877.400390625 416.700195312 l 1
 285 416.700195312 l 1
 277.200195312 347.799804688 273.099609375 278.400390625 272.900390625 208.799804688 c 0
 270.900390625 93.7001953125 361.700195312 -1.7001953125 476.099609375 -7.400390625 c 2
 480.700195312 -7.400390625 l 2
 649.099609375 -5 785.599609375 130.599609375 788.599609375 299.5 c 1
 872.799804688 300 l 1
 872.799804688 -86.400390625 l 1
 788.599609375 -86.400390625 l 1
 788.599609375 58.2998046875 l 1xfd80
 716 -33.599609375 603.700195312 -92.5 477.799804688 -93 c 0
 315.900390625 -89.5 187.900390625 42 187 203.099609375 c 1
EndSplineSet
EndChar

StartChar: uniE129
Encoding: 57641 57641 24
Width: 1000
Flags: W
HStem: 304.3 83.1006<566.92 696.379> 416.7 82.0996<122.7 198.5 296 442.623 561.8 877.4> 566.7 64.2998<815.607 879.786> 701.2 64.2998<815.607 879.793>
VStem: 186.9 85.8994<117.788 413.381> 434.2 83.2002<120.577 255.636> 623.3 75.2998<669.021 696.903> 746 83<119.029 255.636> 748.3 64.2998<634.007 698.193> 882.8 64.2998<634.007 698.193> 896 86.9004<-87.5996 -22.9855>
LayerCount: 2
Fore
SplineSet
847.700195312 765.5 m 4xfec0
 902.5 765.5 947.099609375 720.900390625 947.099609375 666.099609375 c 4
 947.099609375 611.299804688 902.5 566.700195312 847.700195312 566.700195312 c 4
 792.900390625 566.700195312 748.299804688 611.299804688 748.299804688 666.099609375 c 4
 748.299804688 720.900390625 792.900390625 765.5 847.700195312 765.5 c 4xfec0
847.700195312 631 m 4
 867 631 882.799804688 646.700195312 882.799804688 666.099609375 c 4
 882.799804688 685.5 867.099609375 701.200195312 847.700195312 701.200195312 c 4
 828.299804688 701.200195312 812.599609375 685.5 812.599609375 666.099609375 c 4
 812.599609375 646.700195312 828.299804688 631 847.700195312 631 c 4
813.200195312 108.799804688 m 2
 813.099609375 108.799804688 l 1
 865.099609375 101.099609375 913.900390625 73 946.5 26.7001953125 c 0
 970.099609375 -6.7001953125 982.799804688 -46.599609375 982.900390625 -87.599609375 c 1
 896 -87.7998046875 l 1
 895.900390625 -25.900390625 845.700195312 24.099609375 783.799804688 24 c 0
 760.700195312 23.900390625 737.700195312 17.5 718.900390625 4.2001953125 c 2
 644 -48.2998046875 l 2
 510.599609375 -131.5 333.900390625 -97 242.299804688 33.099609375 c 0
 207.200195312 83 187.299804688 142.299804688 186.900390625 203.099609375 c 0
 186.900390625 274.599609375 190.900390625 345.900390625 198.5 416.700195312 c 1
 122.700195312 416.700195312 l 1
 122.700195312 498.799804688 l 1
 209.099609375 498.799804688 l 1
 223.900390625 597.299804688 246 694.599609375 275.5 790 c 1
 357.599609375 764.700195312 l 1
 330.700195312 677.5 310.099609375 588.700195312 296 498.799804688 c 1
 367.599609375 498.799804688 l 2
 486.900390625 517.200195312 586.599609375 601.700195312 623.299804688 718.400390625 c 1
 698.599609375 694.700195312 l 1
 673.599609375 615.099609375 625 547.5 561.799804688 498.799804688 c 1
 877.400390625 498.799804688 l 1
 877.400390625 416.700195312 l 1
 284.900390625 416.700195312 l 1
 277.299804688 350 273.299804688 282.799804688 272.799804688 215.5 c 0
 270.799804688 98.2001953125 358.900390625 -1 475.799804688 -6.7001953125 c 0
 502.200195312 -8 528.299804688 -4.2998046875 553 3.900390625 c 1
 483.099609375 34.7001953125 434.200195312 105.200195312 434.200195312 187.400390625 c 0
 434.200195312 297.900390625 522.599609375 387.400390625 631.599609375 387.400390625 c 0
 740.599609375 387.400390625 829 297.900390625 829 187.400390625 c 0xff20
 829 159.5 823.400390625 132.900390625 813.200195312 108.799804688 c 2
694.299804688 89.599609375 m 0
 725.400390625 110.5 746 146.5 746 187.400390625 c 0
 746 252 694.799804688 304.299804688 631.700195312 304.299804688 c 0
 568.599609375 304.299804688 517.400390625 252 517.400390625 187.400390625 c 0
 517.400390625 122.799804688 568.599609375 70.5 631.700195312 70.5 c 0
 648.5 70.5 664.5 74.2001953125 678.900390625 80.900390625 c 0
 684 84.099609375 689.099609375 87 694.299804688 89.599609375 c 0
EndSplineSet
EndChar

StartChar: uniE12A
Encoding: 57642 57642 25
Width: 1000
Flags: W
HStem: 72.2002 94<888.405 967.595> 211 94<841.493 920.706> 416.7 82.0996<122.7 197.9 295.5 442.523 561.7 877.3> 566.7 64.2998<815.607 879.786> 701.2 64.2998<815.607 879.793>
VStem: 172 82.9004<-86.5 26.2468> 623.2 75.2998<669.021 696.903> 748.3 64.2998<634.007 698.193> 834.1 94<218.419 297.606> 881 94<79.6045 158.796> 882.8 64.2998<634.007 698.193>
LayerCount: 2
Fore
SplineSet
847.700195312 765.5 m 4xff20
 902.5 765.5 947.099609375 720.900390625 947.099609375 666.099609375 c 4
 947.099609375 611.299804688 902.5 566.700195312 847.700195312 566.700195312 c 4
 792.900390625 566.700195312 748.299804688 611.299804688 748.299804688 666.099609375 c 4
 748.299804688 720.900390625 792.900390625 765.5 847.700195312 765.5 c 4xff20
847.700195312 631 m 4
 867 631 882.799804688 646.700195312 882.799804688 666.099609375 c 4
 882.799804688 685.5 867.099609375 701.200195312 847.700195312 701.200195312 c 4
 828.299804688 701.200195312 812.599609375 685.5 812.599609375 666.099609375 c 4
 812.599609375 646.700195312 828.299804688 631 847.700195312 631 c 4
172 -83.900390625 m 2
 172 84.099609375 177.400390625 251.5 197.900390625 416.700195312 c 1
 122.700195312 416.700195312 l 1
 122.700195312 498.799804688 l 1
 209.599609375 498.799804688 l 1
 225 596.900390625 246.099609375 694.099609375 275.5 790 c 1
 357.099609375 765 l 1
 330.200195312 677 310.200195312 588.400390625 295.5 498.799804688 c 1
 367.5 498.799804688 l 2
 486.799804688 517.200195312 586.5 601.700195312 623.200195312 718.400390625 c 1
 698.5 694.700195312 l 1
 673.5 615.099609375 624.900390625 547.5 561.700195312 498.799804688 c 1
 877.299804688 498.799804688 l 1
 877.299804688 416.700195312 l 1
 283.5 416.700195312 l 1
 273 334.299804688 266.400390625 250.900390625 262.900390625 166.400390625 c 1
 335.700195312 254.599609375 424 310.799804688 547.299804688 310.799804688 c 0
 597.799804688 310.799804688 647.900390625 301.400390625 694.599609375 282.799804688 c 0
 703.700195312 279.400390625 712.400390625 275.5 720.599609375 271 c 0
 720.900390625 270.799804688 721.200195312 270.700195312 721.5 270.5 c 0
 805.700195312 224.299804688 845.700195312 122.099609375 811.5 29.400390625 c 0
 773.799804688 -72.900390625 660.299804688 -125.200195312 558 -87.400390625 c 0
 542.200195312 -81.599609375 527.299804688 -73.7998046875 513.5 -64.2001953125 c 1
 560.599609375 3.400390625 l 1
 612.700195312 -32.900390625 684.400390625 -20.099609375 720.700195312 32 c 0
 757 84.099609375 744.200195312 155.799804688 692.099609375 192.099609375 c 0
 689.900390625 193.599609375 687.700195312 195 685.400390625 196.400390625 c 0
 529.200195312 272.5 362.900390625 207.5 286.700195312 51.400390625 c 0
 265.799804688 8.400390625 254.900390625 -38.7001953125 254.900390625 -86.5 c 1
 172 -86.5 l 1
 172 -83.900390625 l 2
834.099609375 258 m 0xff80
 834.099609375 284 855.099609375 305 881.099609375 305 c 0
 907.099609375 305 928.099609375 284 928.099609375 258 c 0
 928.099609375 232 907.099609375 211 881.099609375 211 c 0
 855.099609375 211 834.099609375 232.099609375 834.099609375 258 c 0xff80
881 119.200195312 m 0xff40
 881 145.157226562 902.04296875 166.200195312 928 166.200195312 c 0
 953.95703125 166.200195312 975 145.157226562 975 119.200195312 c 0
 975 93.2421875 953.95703125 72.2001953125 928 72.2001953125 c 0
 902.04296875 72.2001953125 881 93.2421875 881 119.200195312 c 0xff40
EndSplineSet
EndChar

StartChar: uniE12B
Encoding: 57643 57643 26
Width: 1000
Flags: W
HStem: -91.5996 84.1992<542.8 855.3> 272.7 83.0996<366.947 502.536> 416.7 82.0996<122.7 198.5 296.3 442.623 561.8 877.4> 566.7 64.2998<815.607 879.786> 701.2 64.2998<815.607 879.793>
VStem: 186.9 130.5<94.5052 223.236> 186.9 87.3994<276.8 413.489> 551.2 83.0996<92.781 223.13> 623.3 75.2998<669.021 696.903> 748.3 64.2998<634.007 698.193> 882.8 64.2998<634.007 698.193>
LayerCount: 2
Fore
SplineSet
847.700195312 765.5 m 4xf860
 902.5 765.5 947.099609375 720.900390625 947.099609375 666.099609375 c 4
 947.099609375 611.299804688 902.5 566.700195312 847.700195312 566.700195312 c 4
 792.900390625 566.700195312 748.299804688 611.299804688 748.299804688 666.099609375 c 4
 748.299804688 720.900390625 792.900390625 765.5 847.700195312 765.5 c 4xf860
847.700195312 631 m 4
 867 631 882.799804688 646.700195312 882.799804688 666.099609375 c 4
 882.799804688 685.5 867.099609375 701.200195312 847.700195312 701.200195312 c 4
 828.299804688 701.200195312 812.599609375 685.5 812.599609375 666.099609375 c 4
 812.599609375 646.700195312 828.299804688 631 847.700195312 631 c 4
187 210.299804688 m 1
 186.900390625 210.299804688 l 1
 187.200195312 279.299804688 191.099609375 348.200195312 198.5 416.700195312 c 1
 122.700195312 416.700195312 l 1
 122.700195312 498.799804688 l 1
 209.099609375 498.799804688 l 1
 223.900390625 597.299804688 246 694.599609375 275.5 790 c 1
 357.700195312 764.700195312 l 1
 330.799804688 677.599609375 310.400390625 588.700195312 296.299804688 498.799804688 c 1
 367.599609375 498.799804688 l 2
 486.900390625 517.200195312 586.599609375 601.700195312 623.299804688 718.400390625 c 1
 698.599609375 694.700195312 l 1xfce0
 673.599609375 615.099609375 625 547.5 561.799804688 498.799804688 c 1
 877.400390625 498.799804688 l 1
 877.400390625 416.700195312 l 1
 285.099609375 416.700195312 l 1
 279.799804688 370.200195312 276.099609375 323.599609375 274.299804688 276.799804688 c 1
 310.799804688 324.799804688 368.900390625 355.799804688 434.299804688 355.799804688 c 0
 544.799804688 355.799804688 634.299804688 267.400390625 634.299804688 158.400390625 c 0xfb60
 634.299804688 88.900390625 597.799804688 27.7998046875 542.799804688 -7.400390625 c 1
 855.299804688 -7.400390625 l 1
 855.299804688 -91.599609375 l 1
 478.400390625 -91.599609375 l 2
 314.099609375 -88 184.099609375 46 187 210.299804688 c 1
434.299804688 272.700195312 m 0
 369.700195312 272.700195312 317.400390625 221.5 317.400390625 158.400390625 c 0
 317.400390625 95.2998046875 369.700195312 44.099609375 434.299804688 44.099609375 c 0
 498.900390625 44.099609375 551.200195312 95.2998046875 551.200195312 158.400390625 c 0xfd60
 551.200195312 221.5 498.900390625 272.700195312 434.299804688 272.700195312 c 0
EndSplineSet
EndChar

StartChar: uniE12C
Encoding: 57644 57644 27
Width: 1000
Flags: W
HStem: -91.5996 84.1992<542.8 855.3> 269.8 94<640.294 719.507 797.004 876.195> 272.7 83.0996<366.947 502.536> 416.7 82.0996<122.7 198.5 296.3 442.623 561.8 877.4> 566.7 64.2998<815.607 879.786> 701.2 64.2998<815.607 879.793>
VStem: 186.9 130.5<94.5052 223.236> 186.9 87.3994<276.8 413.489> 551.2 83.0996<92.781 223.13> 623.3 75.2998<669.021 696.903> 632.9 94<277.219 356.406> 748.3 64.2998<634.007 698.193> 789.6 94<277.204 356.396> 882.8 64.2998<634.007 698.193>
LayerCount: 2
Fore
SplineSet
847.700195312 765.5 m 4x9c14
 902.5 765.5 947.099609375 720.900390625 947.099609375 666.099609375 c 4
 947.099609375 611.299804688 902.5 566.700195312 847.700195312 566.700195312 c 4
 792.900390625 566.700195312 748.299804688 611.299804688 748.299804688 666.099609375 c 4
 748.299804688 720.900390625 792.900390625 765.5 847.700195312 765.5 c 4x9c14
847.700195312 631 m 4
 867 631 882.799804688 646.700195312 882.799804688 666.099609375 c 4
 882.799804688 685.5 867.099609375 701.200195312 847.700195312 701.200195312 c 4
 828.299804688 701.200195312 812.599609375 685.5 812.599609375 666.099609375 c 4
 812.599609375 646.700195312 828.299804688 631 847.700195312 631 c 4
632.900390625 316.799804688 m 0xdc20
 632.900390625 342.799804688 653.900390625 363.799804688 679.900390625 363.799804688 c 0
 705.900390625 363.799804688 726.900390625 342.799804688 726.900390625 316.799804688 c 0
 726.900390625 290.799804688 705.900390625 269.799804688 679.900390625 269.799804688 c 0
 653.900390625 269.799804688 632.900390625 290.900390625 632.900390625 316.799804688 c 0xdc20
789.599609375 316.799804688 m 0xdc08
 789.599609375 342.7578125 810.642578125 363.799804688 836.599609375 363.799804688 c 0
 862.557617188 363.799804688 883.599609375 342.7578125 883.599609375 316.799804688 c 0
 883.599609375 290.842773438 862.557617188 269.799804688 836.599609375 269.799804688 c 0
 810.642578125 269.799804688 789.599609375 290.842773438 789.599609375 316.799804688 c 0xdc08
187 210.299804688 m 1
 186.900390625 210.299804688 l 1
 187.200195312 279.299804688 191.099609375 348.200195312 198.5 416.700195312 c 1
 122.700195312 416.700195312 l 1
 122.700195312 498.799804688 l 1
 209.099609375 498.799804688 l 1
 223.900390625 597.299804688 246 694.599609375 275.5 790 c 1
 357.700195312 764.700195312 l 1
 330.799804688 677.599609375 310.400390625 588.700195312 296.299804688 498.799804688 c 1
 367.599609375 498.799804688 l 2
 486.900390625 517.200195312 586.599609375 601.700195312 623.299804688 718.400390625 c 1
 698.599609375 694.700195312 l 1xbe40
 673.599609375 615.099609375 625 547.5 561.799804688 498.799804688 c 1
 877.400390625 498.799804688 l 1
 877.400390625 416.700195312 l 1
 285.099609375 416.700195312 l 1
 279.799804688 370.200195312 276.099609375 323.599609375 274.299804688 276.799804688 c 1
 310.799804688 324.799804688 368.900390625 355.799804688 434.299804688 355.799804688 c 0
 544.799804688 355.799804688 634.299804688 267.400390625 634.299804688 158.400390625 c 0xbd80
 634.299804688 88.900390625 597.799804688 27.7998046875 542.799804688 -7.400390625 c 1
 855.299804688 -7.400390625 l 1
 855.299804688 -91.599609375 l 1
 478.400390625 -91.599609375 l 2
 314.099609375 -88 184.099609375 46 187 210.299804688 c 1
434.299804688 272.700195312 m 0
 369.700195312 272.700195312 317.400390625 221.5 317.400390625 158.400390625 c 0
 317.400390625 95.2998046875 369.700195312 44.099609375 434.299804688 44.099609375 c 0
 498.900390625 44.099609375 551.200195312 95.2998046875 551.200195312 158.400390625 c 0xbe80
 551.200195312 221.5 498.900390625 272.700195312 434.299804688 272.700195312 c 0
EndSplineSet
EndChar

StartChar: uniE12D
Encoding: 57645 57645 28
Width: 1000
Flags: W
HStem: -102.8 83<190.27 319.73> -29.0996 84.1992<700.895 812.708> 208.8 83.2998<190.27 309.714> 286.6 84.3008<681.491 812.687> 416.7 82.0996<122.7 310.3 561.8 877.4> 566.7 64.2998<815.607 879.786> 701.2 64.2998<815.607 879.793>
VStem: 57.5996 83.1006<29.8652 159.33> 310.4 84.1992<284.2 416.7 504.3 773.2> 369.3 83.1006<29.8203 111.877> 547.1 84.2002<156.249 236.437> 610.3 84.2002<-97.5 -22.0996> 623.3 75.2998<669.991 696.903> 748.3 64.2998<634.007 698.193> 862.9 84.1992<105.258 236.459> 882.8 64.2998<634.007 698.193>
LayerCount: 2
Fore
SplineSet
847.700195312 765.5 m 4x0f05
 902.5 765.5 947.099609375 720.900390625 947.099609375 666.099609375 c 4
 947.099609375 611.299804688 902.5 566.700195312 847.700195312 566.700195312 c 4
 792.900390625 566.700195312 748.299804688 611.299804688 748.299804688 666.099609375 c 4
 748.299804688 720.900390625 792.900390625 765.5 847.700195312 765.5 c 4x0f05
847.700195312 631 m 4
 867 631 882.799804688 646.700195312 882.799804688 666.099609375 c 4
 882.799804688 685.5 867.099609375 701.200195312 847.700195312 701.200195312 c 4
 828.299804688 701.200195312 812.599609375 685.5 812.599609375 666.099609375 c 4
 812.599609375 646.700195312 828.299804688 631 847.700195312 631 c 4
255 -102.799804688 m 0x8f56
 146 -102.799804688 57.599609375 -14.2998046875 57.599609375 94.7001953125 c 0
 57.599609375 203.700195312 146 292.099609375 255 292.099609375 c 0
 274.200195312 292.099609375 292.799804688 289.299804688 310.299804688 284.200195312 c 1
 310.299804688 416.700195312 l 1
 122.700195312 416.700195312 l 1
 122.700195312 498.799804688 l 1
 310.400390625 498.799804688 l 1
 310.400390625 773.200195312 l 1
 394.599609375 773.200195312 l 1
 394.599609375 504.299804688 l 1
 501.700195312 530.400390625 589.400390625 610.599609375 623.299804688 718.400390625 c 1
 698.599609375 694.700195312 l 1xaf8c
 673.599609375 615.099609375 625 547.5 561.799804688 498.799804688 c 1
 877.400390625 498.799804688 l 1
 877.400390625 416.700195312 l 1
 394.5 416.700195312 l 1
 394.5 244 l 1
 547.700195312 155.5 l 1
 547.299804688 160.599609375 547.099609375 165.700195312 547.099609375 170.900390625 c 0
 547.099609375 281.400390625 636.599609375 370.900390625 747.099609375 370.900390625 c 0
 857.599609375 370.900390625 947.099609375 281.400390625 947.099609375 170.900390625 c 0
 947.099609375 60.400390625 857.599609375 -29.099609375 747.099609375 -29.099609375 c 0x5f26
 728.900390625 -29.099609375 711.299804688 -26.7001953125 694.5 -22.099609375 c 1
 694.5 -97.5 l 1
 610.299804688 -97.5 l 1
 610.299804688 20.599609375 l 1
 451.599609375 112.200195312 l 1
 452.099609375 106.400390625 452.400390625 100.5 452.400390625 94.599609375 c 0
 452.400390625 -14.400390625 364 -102.799804688 255 -102.799804688 c 0x8f56
747.099609375 286.599609375 m 0x5f26
 683.099609375 286.599609375 631.299804688 234.700195312 631.299804688 170.799804688 c 0
 631.299804688 137 645.900390625 106.599609375 669 85.400390625 c 2
 706.5 63.7001953125 l 1
 705.900390625 62.599609375 l 1
 718.700195312 57.7998046875 732.599609375 55.099609375 747.099609375 55.099609375 c 0
 811.099609375 55.099609375 862.900390625 106.799804688 862.900390625 170.799804688 c 0
 862.900390625 234.799804688 811 286.599609375 747.099609375 286.599609375 c 0x5f26
255 208.799804688 m 0xaf44
 191.900390625 208.799804688 140.700195312 157.599609375 140.700195312 94.5 c 0
 140.700195312 31.400390625 191.900390625 -19.7998046875 255 -19.7998046875 c 0
 318.099609375 -19.7998046875 369.299804688 31.400390625 369.299804688 94.5 c 0
 369.299804688 132.200195312 351 165.599609375 322.900390625 186.5 c 2
 300.5 199.400390625 l 2
 286.5 205.400390625 271.200195312 208.799804688 255 208.799804688 c 0xaf44
EndSplineSet
EndChar

StartChar: uniE12E
Encoding: 57646 57646 29
Width: 1000
Flags: W
HStem: -99.7002 83.1006<561.621 691.08> 211.9 98.8994<487.982 676.716> 416.7 82.0996<122.7 198 296.1 442.623 561.8 877.4> 566.7 64.2998<815.607 879.786> 701.2 64.2998<815.607 879.793>
VStem: 172 82.9004<-86.5 26.167> 198 86.0996<170.296 416.7> 429 83<32.9705 164.11> 623.3 75.2998<669.021 696.903> 740.6 83.2002<32.9374 164.044> 748.3 64.2998<634.007 698.193> 882.8 64.2998<634.007 698.193> 888 79.9004<105.2 200.603>
LayerCount: 2
Fore
SplineSet
847.700195312 765.5 m 4xf9b0
 902.5 765.5 947.099609375 720.900390625 947.099609375 666.099609375 c 4
 947.099609375 611.299804688 902.5 566.700195312 847.700195312 566.700195312 c 4
 792.900390625 566.700195312 748.299804688 611.299804688 748.299804688 666.099609375 c 4
 748.299804688 720.900390625 792.900390625 765.5 847.700195312 765.5 c 4xf9b0
847.700195312 631 m 4
 867 631 882.799804688 646.700195312 882.799804688 666.099609375 c 4
 882.799804688 685.5 867.099609375 701.200195312 847.700195312 701.200195312 c 4
 828.299804688 701.200195312 812.599609375 685.5 812.599609375 666.099609375 c 4
 812.599609375 646.700195312 828.299804688 631 847.700195312 631 c 4
172 -83.900390625 m 2xfdc0
 172 83.900390625 177.5 251.5 198 416.700195312 c 1
 122.700195312 416.700195312 l 1
 122.700195312 498.799804688 l 1
 209.599609375 498.799804688 l 1
 225 597 246.200195312 694.200195312 275.5 790 c 1
 357.200195312 765 l 1
 330.700195312 678.200195312 310.799804688 589 296.099609375 498.799804688 c 1
 367.599609375 498.799804688 l 2
 486.900390625 517.200195312 586.599609375 601.700195312 623.299804688 718.400390625 c 1
 698.599609375 694.700195312 l 1
 673.599609375 615.099609375 625 547.5 561.799804688 498.799804688 c 1
 877.400390625 498.799804688 l 1
 877.400390625 416.700195312 l 1
 284.099609375 416.700195312 l 1xfb80
 273.400390625 333.400390625 266.700195312 249.5 263 166.400390625 c 1
 335.900390625 250.700195312 427.299804688 310.799804688 547.400390625 310.799804688 c 0
 594.900390625 310.799804688 642 302.200195312 686.299804688 285.700195312 c 0
 698.400390625 281.799804688 710 276.799804688 721 270.799804688 c 2
 721.599609375 270.5 l 2
 782.5 236.900390625 823.700195312 172.099609375 823.799804688 97.7001953125 c 0
 823.799804688 -11.2998046875 735.400390625 -99.7001953125 626.400390625 -99.7001953125 c 0
 517.400390625 -99.7001953125 429 -11.2998046875 429 97.7001953125 c 0
 429 143.099609375 444.400390625 184.900390625 470.200195312 218.299804688 c 1
 383.700195312 196.299804688 329 137.799804688 286.799804688 51.2998046875 c 0
 271.799804688 20.7001953125 262 -12.099609375 257.599609375 -45.7001953125 c 0
 255.599609375 -58.599609375 254.900390625 -71.2001953125 254.900390625 -83.900390625 c 2
 254.900390625 -86.5 l 1
 172 -86.5 l 1
 172 -83.900390625 l 2xfdc0
626.299804688 211.900390625 m 0
 563.200195312 211.900390625 512 160.799804688 512 97.7001953125 c 0
 512 34.599609375 563.200195312 -16.599609375 626.299804688 -16.599609375 c 0
 689.400390625 -16.599609375 740.599609375 34.5 740.599609375 97.599609375 c 0xf9c0
 740.599609375 141.700195312 715.599609375 180 679 199 c 0
 673.900390625 201.400390625 668.799804688 203.599609375 663.700195312 205.599609375 c 0
 652 209.700195312 639.400390625 211.900390625 626.299804688 211.900390625 c 0
831.400390625 263.5 m 1
 831.299804688 263.5 l 1
 897 309.200195312 l 1
 943.400390625 242.400390625 965.299804688 179.5 967.900390625 105.200195312 c 1
 888 102.400390625 l 1xf988
 885.900390625 162 869.5 208.599609375 831.400390625 263.5 c 1
EndSplineSet
EndChar

StartChar: uniE12F
Encoding: 57647 57647 30
Width: 1000
Flags: W
HStem: 416.7 82.0996<122.7 197.9 295.5 442.523 561.7 877.3> 566.7 64.2998<815.607 879.786> 701.2 64.2998<815.607 879.793>
VStem: 172 82.9004<-86.5 26.2468> 623.2 75.2998<669.021 696.903> 748.3 64.2998<634.007 698.193> 882.8 64.2998<634.007 698.193> 888 79.9004<105.2 200.603>
LayerCount: 2
Fore
SplineSet
847.700195312 765.5 m 4xfe
 902.5 765.5 947.099609375 720.900390625 947.099609375 666.099609375 c 4
 947.099609375 611.299804688 902.5 566.700195312 847.700195312 566.700195312 c 4
 792.900390625 566.700195312 748.299804688 611.299804688 748.299804688 666.099609375 c 4
 748.299804688 720.900390625 792.900390625 765.5 847.700195312 765.5 c 4xfe
847.700195312 631 m 4
 867 631 882.799804688 646.700195312 882.799804688 666.099609375 c 4
 882.799804688 685.5 867.099609375 701.200195312 847.700195312 701.200195312 c 4
 828.299804688 701.200195312 812.599609375 685.5 812.599609375 666.099609375 c 4
 812.599609375 646.700195312 828.299804688 631 847.700195312 631 c 4
172 -83.900390625 m 2
 172 84.099609375 177.400390625 251.5 197.900390625 416.700195312 c 1
 122.700195312 416.700195312 l 1
 122.700195312 498.799804688 l 1
 209.599609375 498.799804688 l 1
 225 596.900390625 246.099609375 694.099609375 275.5 790 c 1
 357.099609375 765 l 1
 330.200195312 677 310.200195312 588.400390625 295.5 498.799804688 c 1
 367.5 498.799804688 l 2
 486.799804688 517.200195312 586.5 601.700195312 623.200195312 718.400390625 c 1
 698.5 694.700195312 l 1
 673.5 615.099609375 624.900390625 547.5 561.700195312 498.799804688 c 1
 877.299804688 498.799804688 l 1
 877.299804688 416.700195312 l 1
 283.5 416.700195312 l 1
 273 334.299804688 266.400390625 250.900390625 262.900390625 166.400390625 c 1
 335.700195312 254.599609375 424 310.799804688 547.299804688 310.799804688 c 0
 597.799804688 310.799804688 647.900390625 301.400390625 694.599609375 282.799804688 c 0
 703.700195312 279.400390625 712.400390625 275.5 720.599609375 271 c 0
 720.900390625 270.799804688 721.200195312 270.700195312 721.5 270.5 c 0
 805.700195312 224.299804688 845.700195312 122.099609375 811.5 29.400390625 c 0
 773.799804688 -72.900390625 660.299804688 -125.200195312 558 -87.400390625 c 0
 542.200195312 -81.599609375 527.299804688 -73.7998046875 513.5 -64.2001953125 c 1
 560.599609375 3.400390625 l 1
 612.700195312 -32.900390625 684.400390625 -20.099609375 720.700195312 32 c 0
 757 84.099609375 744.200195312 155.799804688 692.099609375 192.099609375 c 0
 689.900390625 193.599609375 687.700195312 195 685.400390625 196.400390625 c 0
 529.200195312 272.5 362.900390625 207.5 286.700195312 51.400390625 c 0
 265.799804688 8.400390625 254.900390625 -38.7001953125 254.900390625 -86.5 c 1
 172 -86.5 l 1
 172 -83.900390625 l 2
831.400390625 263.5 m 1
 831.299804688 263.5 l 1
 897 309.200195312 l 1
 943.400390625 242.400390625 965.299804688 179.5 967.900390625 105.200195312 c 1
 888 102.400390625 l 1xfd
 885.900390625 162 869.5 208.599609375 831.400390625 263.5 c 1
EndSplineSet
EndChar

StartChar: uniE130
Encoding: 57648 57648 31
Width: 1000
Flags: W
HStem: -100.6 83.0996<169.42 300.336> 211.1 83.1006<169.42 300.873> 275.9 82.0996<633.4 817.3> 416.7 82.0996<122.7 309.1 561.7 877.3> 566.7 64.2998<815.607 879.786> 701.2 64.2998<815.607 879.793>
VStem: 36.7998 83<32.0703 161.53> 308.8 85.9004<279.6 416.7 504.4 773.2> 623.2 75.2998<670.038 696.903> 748.3 64.2998<634.007 698.193> 882.8 64.2998<634.007 698.193>
LayerCount: 2
Fore
SplineSet
847.700195312 765.5 m 4x9fe0
 902.5 765.5 947.099609375 720.900390625 947.099609375 666.099609375 c 4
 947.099609375 611.299804688 902.5 566.700195312 847.700195312 566.700195312 c 4
 792.900390625 566.700195312 748.299804688 611.299804688 748.299804688 666.099609375 c 4
 748.299804688 720.900390625 792.900390625 765.5 847.700195312 765.5 c 4x9fe0
847.700195312 631 m 4
 867 631 882.799804688 646.700195312 882.799804688 666.099609375 c 4
 882.799804688 685.5 867.099609375 701.200195312 847.700195312 701.200195312 c 4
 828.299804688 701.200195312 812.599609375 685.5 812.599609375 666.099609375 c 4
 812.599609375 646.700195312 828.299804688 631 847.700195312 631 c 4
633.400390625 275.900390625 m 1xbfe0
 633.400390625 358 l 1
 817.299804688 358 l 1
 817.299804688 275.900390625 l 1
 633.400390625 275.900390625 l 1xbfe0
694 2.7001953125 m 0
 772.5 4.7001953125 847.299804688 36.099609375 903.700195312 90.7001953125 c 1
 963.200195312 29.400390625 l 1
 805.400390625 -123.599609375 573.5 -139.599609375 420.599609375 18.2001953125 c 0
 419.400390625 19.5 418.099609375 20.7998046875 416.900390625 22.099609375 c 1
 387.5 -49.900390625 316.799804688 -100.599609375 234.200195312 -100.599609375 c 0
 125.200195312 -100.599609375 36.7998046875 -12.2001953125 36.7998046875 96.7998046875 c 0
 36.7998046875 205.799804688 125.200195312 294.200195312 234.200195312 294.200195312 c 0xdfe0
 260.599609375 294.200195312 285.799804688 289 308.799804688 279.599609375 c 1
 308.700195312 281.5 308.599609375 283.400390625 308.599609375 285.299804688 c 2
 309.099609375 416.700195312 l 1
 122.700195312 416.700195312 l 1
 122.700195312 498.799804688 l 1
 309.400390625 498.799804688 l 1
 310.5 773.200195312 l 1
 394.700195312 773.200195312 l 1
 394.700195312 504.400390625 l 1
 501.799804688 530.599609375 589.299804688 610.700195312 623.200195312 718.400390625 c 1
 698.5 694.700195312 l 1
 673.5 615.099609375 624.900390625 547.5 561.700195312 498.799804688 c 1
 877.299804688 498.799804688 l 1
 877.299804688 416.700195312 l 1
 394.700195312 416.700195312 l 1
 394.700195312 273.400390625 l 2
 406.099609375 107.599609375 526.200195312 -1.400390625 694 2.7001953125 c 0
234.099609375 -17.5 m 0
 297.200195312 -17.5 348.400390625 33.7001953125 348.400390625 96.7998046875 c 0
 348.400390625 111.700195312 345.599609375 125.900390625 340.299804688 138.900390625 c 0
 339.799804688 140.299804688 339.200195312 141.700195312 338.599609375 143.099609375 c 0
 320.900390625 183.099609375 280.799804688 211.099609375 234.099609375 211.099609375 c 0
 171 211.099609375 119.799804688 159.900390625 119.799804688 96.7998046875 c 0
 119.799804688 33.7001953125 171 -17.5 234.099609375 -17.5 c 0
EndSplineSet
EndChar

StartChar: uniE131
Encoding: 57649 57649 32
Width: 1000
Flags: W
HStem: -20.7002 83<314.99 450.715> 275.9 82.0996<633.4 817.3> 290.9 83.0996<314.943 450.716> 416.7 82.0996<122.7 198.1 295.5 442.523 561.7 877.3> 566.7 64.2998<815.607 879.786> 701.2 64.2998<815.607 879.793>
VStem: 172 82.9004<-86.5 16.0829> 499.4 83.0996<111.92 241.374> 623.2 75.2998<669.021 696.903> 748.3 64.2998<634.007 698.193> 882.8 64.2998<634.007 698.193>
LayerCount: 2
Fore
SplineSet
847.700195312 765.5 m 4x9fe0
 902.5 765.5 947.099609375 720.900390625 947.099609375 666.099609375 c 4
 947.099609375 611.299804688 902.5 566.700195312 847.700195312 566.700195312 c 4
 792.900390625 566.700195312 748.299804688 611.299804688 748.299804688 666.099609375 c 4
 748.299804688 720.900390625 792.900390625 765.5 847.700195312 765.5 c 4x9fe0
847.700195312 631 m 4
 867 631 882.799804688 646.700195312 882.799804688 666.099609375 c 4
 882.799804688 685.5 867.099609375 701.200195312 847.700195312 701.200195312 c 4
 828.299804688 701.200195312 812.599609375 685.5 812.599609375 666.099609375 c 4
 812.599609375 646.700195312 828.299804688 631 847.700195312 631 c 4
633.400390625 275.900390625 m 1xdfe0
 633.400390625 358 l 1
 817.299804688 358 l 1
 817.299804688 275.900390625 l 1
 633.400390625 275.900390625 l 1xdfe0
172 -86.5 m 1
 172 81.7998046875 177.5 250.5 198.099609375 416.700195312 c 1
 122.700195312 416.700195312 l 1
 122.700195312 498.799804688 l 1
 209.700195312 498.799804688 l 1
 225.099609375 597.099609375 246.200195312 694.299804688 275.5 790 c 1
 357 765 l 1
 330.400390625 678.099609375 310.299804688 589.400390625 295.5 498.799804688 c 1
 367.5 498.799804688 l 2
 486.799804688 517.200195312 586.5 601.700195312 623.200195312 718.400390625 c 1
 698.5 694.700195312 l 1
 673.5 615.099609375 624.900390625 547.5 561.700195312 498.799804688 c 1
 877.299804688 498.799804688 l 1
 877.299804688 416.700195312 l 1
 283.599609375 416.700195312 l 2
 280.5 391.900390625 277.5 367.099609375 275 342 c 1
 302.299804688 360.799804688 346.900390625 374 382.5 374 c 0xbfe0
 492.900390625 374 582.5 285.700195312 582.5 176.700195312 c 0
 582.5 67.7001953125 493 -20.7001953125 382.5 -20.7001953125 c 0
 333.599609375 -20.7001953125 293.099609375 -9.7001953125 258.400390625 19 c 1
 257 -17.400390625 254.900390625 -50.099609375 254.900390625 -86.5 c 1
 172 -86.5 l 1
382.5 290.900390625 m 0
 317.900390625 290.900390625 265.599609375 239.700195312 265.599609375 176.599609375 c 0
 265.599609375 113.5 318 62.2998046875 382.5 62.2998046875 c 0
 447 62.2998046875 499.400390625 113.5 499.400390625 176.599609375 c 0
 499.400390625 239.700195312 447.099609375 290.900390625 382.5 290.900390625 c 0
EndSplineSet
EndChar

StartChar: uniE132
Encoding: 57650 57650 33
Width: 1000
Flags: W
HStem: -93 85.5996<397.798 585.569> 275.9 82.0996<540.2 724.1> 416.7 82.0996<122.7 198.5 296.1 442.623 561.8 877.4> 566.7 64.2998<815.607 879.786> 701.2 64.2998<815.607 879.793>
VStem: 186.9 86<116.252 413.381> 623.3 75.2998<669.021 696.903> 748.3 64.2998<634.007 698.193> 788.6 84.2002<-86.4004 58.2998 194.485 299.5> 882.8 64.2998<634.007 698.193>
LayerCount: 2
Fore
SplineSet
847.700195312 765.5 m 4xff40
 902.5 765.5 947.099609375 720.900390625 947.099609375 666.099609375 c 4
 947.099609375 611.299804688 902.5 566.700195312 847.700195312 566.700195312 c 4
 792.900390625 566.700195312 748.299804688 611.299804688 748.299804688 666.099609375 c 4
 748.299804688 720.900390625 792.900390625 765.5 847.700195312 765.5 c 4xff40
847.700195312 631 m 4
 867 631 882.799804688 646.700195312 882.799804688 666.099609375 c 4
 882.799804688 685.5 867.099609375 701.200195312 847.700195312 701.200195312 c 4
 828.299804688 701.200195312 812.599609375 685.5 812.599609375 666.099609375 c 4
 812.599609375 646.700195312 828.299804688 631 847.700195312 631 c 4
187 203.099609375 m 1
 186.900390625 203.099609375 l 1
 186.900390625 274.599609375 190.900390625 345.900390625 198.5 416.700195312 c 1
 122.700195312 416.700195312 l 1
 122.700195312 498.799804688 l 1
 209.099609375 498.799804688 l 1
 223.900390625 597.299804688 246 694.599609375 275.5 790 c 1
 357.599609375 764.700195312 l 1
 330.700195312 677.5 310.200195312 588.700195312 296.099609375 498.799804688 c 1
 367.599609375 498.799804688 l 2
 486.900390625 517.200195312 586.599609375 601.700195312 623.299804688 718.400390625 c 1
 698.599609375 694.700195312 l 1
 673.599609375 615.099609375 625 547.5 561.799804688 498.799804688 c 1
 877.400390625 498.799804688 l 1
 877.400390625 416.700195312 l 1
 285 416.700195312 l 1
 277.200195312 347.799804688 273.099609375 278.400390625 272.900390625 208.799804688 c 0
 270.900390625 93.7001953125 361.700195312 -1.7001953125 476.099609375 -7.400390625 c 2
 480.700195312 -7.400390625 l 2
 649.099609375 -5 785.599609375 130.599609375 788.599609375 299.5 c 1
 872.799804688 300 l 1
 872.799804688 -86.400390625 l 1
 788.599609375 -86.400390625 l 1
 788.599609375 58.2998046875 l 1xfec0
 716 -33.599609375 603.700195312 -92.5 477.799804688 -93 c 0
 315.900390625 -89.5 187.900390625 42 187 203.099609375 c 1
540.200195312 275.900390625 m 1
 540.200195312 358 l 1
 724.099609375 358 l 1
 724.099609375 275.900390625 l 1
 540.200195312 275.900390625 l 1
EndSplineSet
EndChar

StartChar: uniE133
Encoding: 57651 57651 34
Width: 1000
HStem: -99.7002 83.1006<561.52 690.98> 211.9 98.8994<487.882 676.617>
VStem: 171.9 82.8994<-86.5 25.479> 428.9 83<32.9705 164.11> 740.5 83.2002<32.9374 164.044>
LayerCount: 2
Fore
SplineSet
863.7265625 584.807617188 m 5
 829.9609375 765.581054688 l 5
 910.665039062 780.655273438 l 5
 944.430664062 599.881835938 l 5
 863.7265625 584.807617188 l 5
626.299804688 -99.7001953125 m 0
 517.299804688 -99.7001953125 428.900390625 -11.2998046875 428.900390625 97.7001953125 c 0
 428.900390625 143.099609375 444.299804688 184.900390625 470.099609375 218.299804688 c 1
 383.599609375 196.299804688 328.900390625 137.799804688 286.700195312 51.2998046875 c 0
 271.700195312 20.7001953125 261.900390625 -12.099609375 257.5 -45.7001953125 c 0
 255.5 -58.599609375 254.799804688 -71.2001953125 254.799804688 -83.900390625 c 2
 254.799804688 -86.5 l 1
 171.900390625 -86.5 l 1
 171.900390625 -83.900390625 l 2
 171.900390625 128.400390625 180.599609375 339.900390625 217.5 547.200195312 c 0
 249.599609375 708.299804688 404.700195312 813 565.700195312 780.799804688 c 0
 675.200195312 758.900390625 763.200195312 677.5 793.599609375 570.200195312 c 1
 710.599609375 546.700195312 l 1
 678.900390625 658.900390625 562.200195312 724.099609375 450 692.400390625 c 0
 376.900390625 671.799804688 321.400390625 613.299804688 303.200195312 540 c 0
 280.799804688 416.5 268.400390625 290.700195312 262.900390625 166.400390625 c 1
 335.799804688 250.700195312 427.200195312 310.799804688 547.299804688 310.799804688 c 0
 594.799804688 310.799804688 641.900390625 302.200195312 686.200195312 285.700195312 c 0
 698.299804688 281.799804688 709.900390625 276.799804688 720.900390625 270.799804688 c 2
 721.5 270.5 l 2
 782.400390625 236.900390625 823.599609375 172.099609375 823.700195312 97.7001953125 c 0
 823.700195312 -11.2998046875 735.299804688 -99.7001953125 626.299804688 -99.7001953125 c 0
626.200195312 211.900390625 m 0
 563.099609375 211.900390625 511.900390625 160.799804688 511.900390625 97.7001953125 c 0
 511.900390625 34.599609375 563.099609375 -16.599609375 626.200195312 -16.599609375 c 0
 689.299804688 -16.599609375 740.5 34.5 740.5 97.599609375 c 0
 740.5 141.700195312 715.5 180 678.900390625 199 c 0
 673.799804688 201.400390625 668.700195312 203.599609375 663.599609375 205.599609375 c 0
 651.900390625 209.700195312 639.299804688 211.900390625 626.200195312 211.900390625 c 0
EndSplineSet
EndChar

StartChar: uniE134
Encoding: 57652 57652 35
Width: 1000
VStem: 172 82.9004<-86.5 25.5494>
LayerCount: 2
Fore
SplineSet
863.7265625 584.807617188 m 5
 829.9609375 765.581054688 l 5
 910.665039062 780.655273438 l 5
 944.430664062 599.881835938 l 5
 863.7265625 584.807617188 l 5
560.599609375 3.400390625 m 1
 612.700195312 -32.900390625 684.400390625 -20.099609375 720.700195312 32 c 0
 757 84.099609375 744.200195312 155.799804688 692.099609375 192.099609375 c 0
 689.900390625 193.599609375 687.700195312 195 685.400390625 196.400390625 c 0
 529.200195312 272.5 362.900390625 207.5 286.700195312 51.400390625 c 0
 265.799804688 8.400390625 254.900390625 -38.7001953125 254.900390625 -86.5 c 1
 172 -86.5 l 1
 172 -83.900390625 l 2
 172 128.599609375 180.599609375 339.900390625 217.5 547.200195312 c 0
 249.599609375 708.299804688 404.700195312 813 565.700195312 780.799804688 c 0
 675.200195312 758.900390625 763.200195312 677.5 793.599609375 570.200195312 c 1
 710.599609375 546.700195312 l 1
 678.900390625 658.900390625 562.200195312 724.099609375 450 692.400390625 c 0
 376.599609375 671.599609375 320.599609375 612.799804688 302.599609375 539.200195312 c 0
 280.299804688 417 268.200195312 293 262.900390625 166.400390625 c 1
 335.700195312 254.599609375 424 310.799804688 547.299804688 310.799804688 c 0
 597.799804688 310.799804688 647.900390625 301.400390625 694.599609375 282.799804688 c 0
 703.700195312 279.400390625 712.400390625 275.5 720.599609375 271 c 0
 720.900390625 270.799804688 721.200195312 270.700195312 721.5 270.5 c 0
 805.700195312 224.299804688 845.700195312 122.099609375 811.5 29.400390625 c 0
 773.799804688 -72.900390625 660.299804688 -125.200195312 558 -87.400390625 c 0
 542.200195312 -81.599609375 527.299804688 -73.7998046875 513.5 -64.2001953125 c 1
 560.599609375 3.400390625 l 1
EndSplineSet
EndChar

StartChar: uniE135
Encoding: 57653 57653 36
Width: 1000
HStem: -100.5 83<169.42 300.336> 211.1 83.2002<169.42 300.873>
VStem: 36.7998 83<32.1206 161.58> 308.8 85.9004<279.7 598.949> 750.9 83<566.118 597.637>
LayerCount: 2
Fore
SplineSet
863.7265625 584.807617188 m 5
 829.9609375 765.581054688 l 5
 910.665039062 780.655273438 l 5
 944.430664062 599.881835938 l 5
 863.7265625 584.807617188 l 5
694 2.7001953125 m 1
 694 2.7998046875 l 1
 772.5 4.7998046875 847.299804688 36.2001953125 903.700195312 90.7998046875 c 1
 963.200195312 29.5 l 1
 805.400390625 -123.5 573.5 -139.5 420.599609375 18.2998046875 c 0
 419.400390625 19.599609375 418.099609375 20.900390625 416.900390625 22.2001953125 c 1
 387.5 -49.7998046875 316.799804688 -100.5 234.200195312 -100.5 c 0
 125.200195312 -100.5 36.7998046875 -12.099609375 36.7998046875 96.900390625 c 0
 36.7998046875 205.900390625 125.200195312 294.299804688 234.200195312 294.299804688 c 0
 260.599609375 294.299804688 285.799804688 289.099609375 308.799804688 279.700195312 c 1
 308.700195312 281.599609375 308.599609375 283.5 308.599609375 285.400390625 c 2
 309.400390625 495 l 2
 313.5 654.099609375 413.900390625 782.700195312 574.299804688 784.5 c 0
 708.599609375 786.099609375 797.299804688 697.400390625 833.900390625 568.099609375 c 1
 750.900390625 544.599609375 l 1
 719.200195312 656.799804688 632.5 722 520.299804688 690.299804688 c 0
 430.599609375 665 395.200195312 583.799804688 394.700195312 491.099609375 c 2
 394.700195312 273.400390625 l 2
 406.099609375 107.599609375 526.200195312 -1.400390625 694 2.7001953125 c 1
234.099609375 -17.5 m 0
 297.200195312 -17.5 348.400390625 33.7001953125 348.400390625 96.7998046875 c 0
 348.400390625 111.700195312 345.599609375 125.900390625 340.299804688 138.900390625 c 0
 339.799804688 140.299804688 339.200195312 141.700195312 338.599609375 143.099609375 c 0
 320.900390625 183.099609375 280.799804688 211.099609375 234.099609375 211.099609375 c 0
 171 211.099609375 119.799804688 159.900390625 119.799804688 96.7998046875 c 0
 119.799804688 33.7001953125 171 -17.5 234.099609375 -17.5 c 0
EndSplineSet
EndChar

StartChar: uniE136
Encoding: 57654 57654 37
Width: 1000
HStem: -20.7002 83<314.94 450.665> 290.9 83.0996<314.893 450.666>
VStem: 171.9 82.8994<-86.5 13.1926> 499.4 83<111.92 241.374>
LayerCount: 2
Fore
SplineSet
863.7265625 584.807617188 m 5
 829.9609375 765.581054688 l 5
 910.665039062 780.655273438 l 5
 944.430664062 599.881835938 l 5
 863.7265625 584.807617188 l 5
450 692.400390625 m 2
 449.900390625 692.400390625 l 2
 376.700195312 671.599609375 320.799804688 613 302.700195312 539.5 c 0
 290.799804688 474.700195312 281.599609375 409 274.900390625 342 c 1
 302.200195312 360.799804688 346.799804688 374 382.400390625 374 c 0
 492.799804688 374 582.400390625 285.700195312 582.400390625 176.700195312 c 0
 582.400390625 67.7001953125 492.900390625 -20.7001953125 382.400390625 -20.7001953125 c 0
 333.5 -20.7001953125 293 -9.7001953125 258.299804688 19 c 1
 256.900390625 -17.400390625 254.799804688 -50.099609375 254.799804688 -86.5 c 1
 171.900390625 -86.5 l 1
 171.900390625 126.200195312 180.5 339 217.5 547.200195312 c 0
 249.599609375 708.299804688 404.700195312 813 565.700195312 780.799804688 c 0
 675.200195312 758.900390625 763.200195312 677.5 793.599609375 570.200195312 c 1
 710.599609375 546.700195312 l 1
 678.900390625 658.900390625 562.200195312 724.099609375 450 692.400390625 c 2
382.5 290.900390625 m 0
 317.900390625 290.900390625 265.599609375 239.700195312 265.599609375 176.599609375 c 0
 265.599609375 113.5 318 62.2998046875 382.5 62.2998046875 c 0
 447 62.2998046875 499.400390625 113.5 499.400390625 176.599609375 c 0
 499.400390625 239.700195312 447.099609375 290.900390625 382.5 290.900390625 c 0
EndSplineSet
EndChar

StartChar: uniE137
Encoding: 57655 57655 38
Width: 1000
Flags: W
HStem: -93 85.5996<397.825 585.581>
VStem: 186.9 85.8994<116.252 451.081> 788.6 85.5<264.325 297.9>
LayerCount: 2
Fore
SplineSet
863.7265625 584.807617188 m 5
 829.9609375 765.581054688 l 5
 910.665039062 780.655273438 l 5
 944.430664062 599.881835938 l 5
 863.7265625 584.807617188 l 5
450 692.400390625 m 2
 449.900390625 692.400390625 l 2
 376.5 671.599609375 320.799804688 612.700195312 302.799804688 539 c 0
 283.299804688 430.099609375 273.200195312 319.700195312 272.799804688 208.799804688 c 0
 270.799804688 93.7001953125 361.799804688 -1.7001953125 476.099609375 -7.400390625 c 2
 480.700195312 -7.400390625 l 2
 649.099609375 -5.099609375 785.700195312 130.599609375 788.599609375 299.400390625 c 1
 874.099609375 297.900390625 l 2
 873.900390625 286.400390625 873.299804688 275 872.099609375 263.799804688 c 0
 959 217.599609375 1000.59960938 113.099609375 965.599609375 18 c 0
 927.299804688 -85.599609375 812.299804688 -138.599609375 708.700195312 -100.299804688 c 0
 683.200195312 -90.900390625 659.900390625 -76.400390625 640.299804688 -57.7998046875 c 0
 590.700195312 -80.2001953125 535.700195312 -92.7998046875 477.799804688 -93 c 0
 316 -89.5 187.799804688 42 186.900390625 203.099609375 c 0
 186.900390625 318.599609375 197.599609375 433.700195312 217.5 547.200195312 c 0
 249.599609375 708.299804688 404.700195312 813 565.700195312 780.799804688 c 0
 675.200195312 758.900390625 763.200195312 677.5 793.599609375 570.200195312 c 1
 710.599609375 546.700195312 l 1
 678.900390625 658.900390625 562.200195312 724.099609375 450 692.400390625 c 2
852.799804688 176.200195312 m 1
 827 100.700195312 779.200195312 35.5 717.099609375 -11.7998046875 c 1
 757.900390625 -36.7001953125 811.700195312 -34.7998046875 851 -3 c 0
 901 37.2998046875 908.700195312 110.599609375 868.200195312 160.5 c 0
 863.599609375 166.200195312 858.400390625 171.5 852.799804688 176.200195312 c 1
EndSplineSet
EndChar

StartChar: uniE138
Encoding: 57656 57656 39
Width: 1000
Flags: W
HStem: -93 85.7002<394.267 528.042> 293.9 83<542.27 673.097>
VStem: 186.9 86<114.619 455.777> 409.6 83.1006<113.69 244.28> 721.3 151.5<113.444 245.756> 788.5 84.2998<-91.5996 61.5>
LayerCount: 2
Fore
SplineSet
863.7265625 584.807617188 m 5xf0
 829.9609375 765.581054688 l 5
 910.665039062 780.655273438 l 5
 944.430664062 599.881835938 l 5
 863.7265625 584.807617188 l 5xf0
872.799804688 -91.599609375 m 1xf4
 872.700195312 -91.599609375 l 1
 788.5 -91.599609375 l 1
 788.5 61.5 l 1
 716 -32.2001953125 602.599609375 -92.5 475.200195312 -93 c 0
 310.900390625 -89.400390625 184 46 186.900390625 210.299804688 c 0
 187.299804688 323.400390625 198 436.099609375 217.5 547.200195312 c 0
 249.599609375 708.299804688 404.700195312 813 565.799804688 780.799804688 c 0
 675.299804688 758.900390625 763.299804688 677.5 793.700195312 570.200195312 c 1
 710.700195312 546.700195312 l 1
 679 658.900390625 562.299804688 724.099609375 450.099609375 692.400390625 c 0
 376.700195312 671.700195312 321 612.799804688 303 539.099609375 c 0
 283.099609375 428.400390625 272.900390625 316 272.900390625 203.200195312 c 0
 273.900390625 90.599609375 361.200195312 -1.7998046875 473.599609375 -7.2998046875 c 2
 478.200195312 -7.2998046875 l 2
 495.900390625 -7.099609375 513.200195312 -5.400390625 530.099609375 -2.2998046875 c 1
 459.299804688 27.599609375 409.599609375 97.7998046875 409.599609375 179.5 c 0
 409.599609375 288.5 498 376.900390625 607 376.900390625 c 0
 684.5 376.900390625 753.5 327.799804688 785.799804688 262.799804688 c 1
 787.200195312 274.299804688 788.599609375 299.400390625 788.599609375 299.400390625 c 1
 872.799804688 299.400390625 l 1
 872.799804688 -91.599609375 l 1xf4
607 65.2998046875 m 0
 670.099609375 65.2998046875 721.299804688 116.5 721.299804688 179.599609375 c 0xf8
 721.299804688 242.700195312 670.099609375 293.900390625 607 293.900390625 c 0
 543.900390625 293.900390625 492.700195312 242.700195312 492.700195312 179.599609375 c 0
 492.700195312 116.5 543.900390625 65.2998046875 607 65.2998046875 c 0
EndSplineSet
EndChar

StartChar: uniE139
Encoding: 57657 57657 40
Width: 1000
HStem: -93 85.5996<397.698 585.569>
VStem: 186.9 86<116.252 451.081> 788.5 84.2998<-86.4004 58.2998 194.485 299.5>
LayerCount: 2
Fore
SplineSet
863.7265625 584.807617188 m 5
 829.9609375 765.581054688 l 5
 910.665039062 780.655273438 l 5
 944.430664062 599.881835938 l 5
 863.7265625 584.807617188 l 5
872.799804688 -86.400390625 m 1
 872.700195312 -86.400390625 l 1
 788.5 -86.400390625 l 1
 788.5 58.2998046875 l 1
 715.900390625 -33.599609375 603.599609375 -92.5 477.700195312 -93 c 0
 315.799804688 -89.5 187.799804688 42 186.900390625 203.099609375 c 0
 186.900390625 318.599609375 197.599609375 433.700195312 217.5 547.200195312 c 0
 249.599609375 708.299804688 404.700195312 813 565.700195312 780.799804688 c 0
 675.200195312 758.900390625 763.200195312 677.5 793.599609375 570.200195312 c 1
 710.599609375 546.700195312 l 1
 678.900390625 658.900390625 562.200195312 724.099609375 450 692.400390625 c 0
 376.599609375 671.599609375 320.900390625 612.700195312 302.900390625 539 c 0
 283.400390625 430.200195312 273.299804688 319.700195312 272.900390625 208.799804688 c 0
 270.900390625 93.7001953125 361.700195312 -1.7001953125 476.099609375 -7.400390625 c 2
 480.700195312 -7.400390625 l 2
 649.099609375 -5 785.599609375 130.599609375 788.599609375 299.5 c 1
 872.799804688 300 l 1
 872.799804688 -86.400390625 l 1
EndSplineSet
EndChar

StartChar: uniE13A
Encoding: 57658 57658 41
Width: 1000
HStem: 304.3 83.1006<566.92 696.379>
VStem: 186.9 85.8994<117.788 451.081> 434.2 83.2002<120.577 255.636> 746 83<119.029 255.636> 896 86.9004<-87.5996 -22.9855>
LayerCount: 2
Fore
SplineSet
863.7265625 584.807617188 m 5
 829.9609375 765.581054688 l 5
 910.665039062 780.655273438 l 5
 944.430664062 599.881835938 l 5
 863.7265625 584.807617188 l 5
813.200195312 108.799804688 m 2
 813.099609375 108.799804688 l 1
 865.099609375 101.099609375 913.900390625 73 946.5 26.7001953125 c 0
 970.099609375 -6.7001953125 982.799804688 -46.599609375 982.900390625 -87.599609375 c 1
 896 -87.7998046875 l 1
 895.900390625 -25.900390625 845.700195312 24.099609375 783.799804688 24 c 0
 760.700195312 23.900390625 737.700195312 17.5 718.900390625 4.2001953125 c 2
 644 -48.2998046875 l 2
 510.599609375 -131.5 333.900390625 -97 242.299804688 33.099609375 c 0
 207.200195312 83 187.299804688 142.299804688 186.900390625 203.099609375 c 0
 186.900390625 318.599609375 197.599609375 433.700195312 217.5 547.200195312 c 0
 249.599609375 708.299804688 404.700195312 813 565.700195312 780.799804688 c 0
 675.200195312 758.900390625 763.200195312 677.5 793.599609375 570.200195312 c 1
 710.599609375 546.700195312 l 1
 678.900390625 658.900390625 562.200195312 724.099609375 450 692.400390625 c 0
 376.599609375 671.700195312 320.799804688 612.799804688 302.799804688 539 c 0
 283.700195312 432.299804688 273.599609375 324.099609375 272.799804688 215.5 c 0
 270.799804688 98.2001953125 358.900390625 -1 475.799804688 -6.7001953125 c 0
 502.200195312 -8 528.299804688 -4.2998046875 553 3.900390625 c 1
 483.099609375 34.7001953125 434.200195312 105.200195312 434.200195312 187.400390625 c 0
 434.200195312 297.900390625 522.599609375 387.400390625 631.599609375 387.400390625 c 0
 740.599609375 387.400390625 829 297.900390625 829 187.400390625 c 0
 829 159.5 823.400390625 132.900390625 813.200195312 108.799804688 c 2
694.299804688 89.599609375 m 0
 725.400390625 110.5 746 146.5 746 187.400390625 c 0
 746 252 694.799804688 304.299804688 631.700195312 304.299804688 c 0
 568.599609375 304.299804688 517.400390625 252 517.400390625 187.400390625 c 0
 517.400390625 122.799804688 568.599609375 70.5 631.700195312 70.5 c 0
 648.5 70.5 664.5 74.2001953125 678.900390625 80.900390625 c 0
 684 84.099609375 689.099609375 87 694.299804688 89.599609375 c 0
EndSplineSet
EndChar

StartChar: uniE13B
Encoding: 57659 57659 42
Width: 1000
VStem: 172 82.9004<-86.5 25.5494>
LayerCount: 2
Fore
SplineSet
863.7265625 584.807617188 m 5
 829.9609375 765.581054688 l 5
 910.665039062 780.655273438 l 5
 944.430664062 599.881835938 l 5
 863.7265625 584.807617188 l 5
640 436.900390625 m 0
 658.299804688 455.200195312 688.099609375 455.200195312 706.400390625 436.900390625 c 0
 724.700195312 418.599609375 724.700195312 388.799804688 706.400390625 370.5 c 0
 688.099609375 352.200195312 658.299804688 352.200195312 640 370.5 c 0
 621.700195312 388.799804688 621.700195312 418.599609375 640 436.900390625 c 0
837.700195312 372 m 0
 856 353.700195312 856 323.900390625 837.700195312 305.599609375 c 0
 819.400390625 287.299804688 789.599609375 287.299804688 771.299804688 305.599609375 c 0
 753 323.900390625 753 353.700195312 771.299804688 372 c 0
 789.599609375 390.299804688 819.400390625 390.299804688 837.700195312 372 c 0
560.599609375 3.400390625 m 1
 612.700195312 -32.900390625 684.400390625 -20.099609375 720.700195312 32 c 0
 757 84.099609375 744.200195312 155.799804688 692.099609375 192.099609375 c 0
 689.900390625 193.599609375 687.700195312 195 685.400390625 196.400390625 c 0
 529.200195312 272.5 362.900390625 207.5 286.700195312 51.400390625 c 0
 265.799804688 8.400390625 254.900390625 -38.7001953125 254.900390625 -86.5 c 1
 172 -86.5 l 1
 172 -83.900390625 l 2
 172 128.599609375 180.599609375 339.900390625 217.5 547.200195312 c 0
 249.599609375 708.299804688 404.700195312 813 565.700195312 780.799804688 c 0
 675.200195312 758.900390625 763.200195312 677.5 793.599609375 570.200195312 c 1
 710.599609375 546.700195312 l 1
 678.900390625 658.900390625 562.200195312 724.099609375 450 692.400390625 c 0
 376.599609375 671.700195312 320.599609375 612.799804688 302.599609375 539.200195312 c 0
 280.299804688 417 268.200195312 293 262.900390625 166.400390625 c 1
 335.700195312 254.599609375 424 310.799804688 547.299804688 310.799804688 c 0
 597.799804688 310.799804688 647.900390625 301.400390625 694.599609375 282.799804688 c 0
 703.700195312 279.400390625 712.400390625 275.5 720.599609375 271 c 0
 720.900390625 270.799804688 721.200195312 270.700195312 721.5 270.5 c 0
 805.700195312 224.299804688 845.700195312 122.099609375 811.5 29.400390625 c 0
 773.799804688 -72.900390625 660.299804688 -125.200195312 558 -87.400390625 c 0
 542.200195312 -81.599609375 527.299804688 -73.7998046875 513.5 -64.2001953125 c 1
 560.599609375 3.400390625 l 1
EndSplineSet
EndChar

StartChar: uniE13C
Encoding: 57660 57660 43
Width: 1000
HStem: -91.5996 84.1992<542.7 855.2> 272.7 83.0996<366.847 502.436>
VStem: 186.9 87.2998<276.8 463.594> 551.1 83.1006<92.781 223.13>
LayerCount: 2
Fore
SplineSet
863.7265625 584.807617188 m 5
 829.9609375 765.581054688 l 5
 910.665039062 780.655273438 l 5
 944.430664062 599.881835938 l 5
 863.7265625 584.807617188 l 5
450 692.400390625 m 2
 449.900390625 692.400390625 l 2
 376.599609375 671.700195312 321.099609375 613 303 539.400390625 c 0
 287.400390625 452.599609375 277.599609375 364.900390625 274.200195312 276.799804688 c 1
 310.700195312 324.799804688 368.799804688 355.799804688 434.200195312 355.799804688 c 0
 544.700195312 355.799804688 634.200195312 267.400390625 634.200195312 158.400390625 c 0
 634.200195312 88.900390625 597.700195312 27.7998046875 542.700195312 -7.400390625 c 1
 855.200195312 -7.400390625 l 1
 855.200195312 -91.599609375 l 1
 478.299804688 -91.599609375 l 2
 314 -88 184 46 186.900390625 210.299804688 c 0
 187.299804688 323.400390625 198 436.099609375 217.5 547.200195312 c 0
 249.599609375 708.299804688 404.700195312 813 565.700195312 780.799804688 c 0
 675.200195312 758.900390625 763.200195312 677.5 793.599609375 570.200195312 c 1
 710.599609375 546.700195312 l 1
 678.900390625 658.900390625 562.200195312 724.099609375 450 692.400390625 c 2
434.200195312 272.700195312 m 0
 369.599609375 272.700195312 317.299804688 221.5 317.299804688 158.400390625 c 0
 317.299804688 95.2998046875 369.599609375 44.099609375 434.200195312 44.099609375 c 0
 498.799804688 44.099609375 551.099609375 95.2998046875 551.099609375 158.400390625 c 0
 551.099609375 221.5 498.799804688 272.700195312 434.200195312 272.700195312 c 0
EndSplineSet
EndChar

StartChar: uniE13D
Encoding: 57661 57661 44
Width: 1000
HStem: -91.5996 84.1992<542.7 855.2> 269.8 94<640.294 719.507> 272.7 83.0996<366.847 502.436>
VStem: 186.9 87.2998<276.8 463.594> 551.1 83.1006<92.781 223.13> 632.9 94<277.219 356.406>
LayerCount: 2
Fore
SplineSet
863.7265625 584.807617188 m 5x90
 829.9609375 765.581054688 l 5
 910.665039062 780.655273438 l 5
 944.430664062 599.881835938 l 5
 863.7265625 584.807617188 l 5x90
632.900390625 316.799804688 m 0xd4
 632.900390625 342.799804688 653.900390625 363.799804688 679.900390625 363.799804688 c 0
 705.900390625 363.799804688 726.900390625 342.799804688 726.900390625 316.799804688 c 0
 726.900390625 290.799804688 705.900390625 269.799804688 679.900390625 269.799804688 c 0
 653.900390625 269.799804688 632.900390625 290.900390625 632.900390625 316.799804688 c 0xd4
818.584960938 273.3828125 m 0
 794.603515625 283.31640625 783.215820312 310.809570312 793.149414062 334.791015625 c 0
 803.083007812 358.772460938 830.576171875 370.161132812 854.557617188 360.227539062 c 0
 878.5390625 350.293945312 889.927734375 322.80078125 879.994140625 298.819335938 c 0
 870.060546875 274.836914062 842.567382812 263.44921875 818.584960938 273.3828125 c 0
565.700195312 780.799804688 m 1
 565.599609375 780.799804688 l 1
 675.099609375 758.900390625 763.099609375 677.5 793.5 570.200195312 c 1
 710.5 546.700195312 l 1
 678.799804688 658.900390625 562.099609375 724.099609375 449.900390625 692.400390625 c 0
 376.599609375 671.700195312 321.099609375 613 303 539.400390625 c 0
 287.400390625 452.599609375 277.599609375 364.900390625 274.200195312 276.799804688 c 1
 310.700195312 324.799804688 368.799804688 355.799804688 434.200195312 355.799804688 c 0
 544.700195312 355.799804688 634.200195312 267.400390625 634.200195312 158.400390625 c 0xb8
 634.200195312 88.900390625 597.700195312 27.7998046875 542.700195312 -7.400390625 c 1
 855.200195312 -7.400390625 l 1
 855.200195312 -91.599609375 l 1
 478.299804688 -91.599609375 l 2
 314 -88 184 46 186.900390625 210.299804688 c 0
 187.299804688 323.400390625 198 436.099609375 217.5 547.200195312 c 0
 249.599609375 708.299804688 404.700195312 813 565.700195312 780.799804688 c 1
434.200195312 272.700195312 m 0
 369.599609375 272.700195312 317.299804688 221.5 317.299804688 158.400390625 c 0
 317.299804688 95.2998046875 369.599609375 44.099609375 434.200195312 44.099609375 c 0
 498.799804688 44.099609375 551.099609375 95.2998046875 551.099609375 158.400390625 c 0
 551.099609375 221.5 498.799804688 272.700195312 434.200195312 272.700195312 c 0
EndSplineSet
EndChar

StartChar: uniE13E
Encoding: 57662 57662 45
Width: 1000
HStem: -102.7 82.9004<191.696 318.304> -29.0996 84.1992<700.895 812.708> 208.8 83.4004<190.27 309.714> 286.6 84.3008<681.491 812.687>
VStem: 57.5996 83.1006<29.915 159.379> 310.3 84.2002<284.3 599.578> 369.3 83.1006<29.8203 111.877> 547.1 84.2002<156.249 236.437> 610.3 84.2002<-97.5 -22.0996> 750.9 83<566.118 597.637> 862.9 84.1992<105.258 236.459>
LayerCount: 2
Fore
SplineSet
863.7265625 584.807617188 m 5x0860
 829.9609375 765.581054688 l 5
 910.665039062 780.655273438 l 5
 944.430664062 599.881835938 l 5
 863.7265625 584.807617188 l 5x0860
255 -102.799804688 m 1
 255 -102.700195312 l 1
 146 -102.700195312 57.599609375 -14.2001953125 57.599609375 94.7998046875 c 0
 57.599609375 203.799804688 146 292.200195312 255 292.200195312 c 0
 274.200195312 292.200195312 292.799804688 289.400390625 310.299804688 284.299804688 c 1
 309.400390625 495 l 2
 313.5 654.099609375 413.900390625 782.700195312 574.299804688 784.5 c 0
 708.599609375 786.099609375 797.299804688 697.400390625 833.900390625 568.099609375 c 1
 750.900390625 544.599609375 l 1
 719.200195312 656.799804688 632.5 722 520.299804688 690.299804688 c 0
 428.5 664.400390625 393.5 580.099609375 394.599609375 484.700195312 c 1
 394.5 484.700195312 l 1
 394.5 244 l 1
 547.700195312 155.5 l 1
 547.299804688 160.599609375 547.099609375 165.700195312 547.099609375 170.900390625 c 0xad60
 547.099609375 281.400390625 636.599609375 370.900390625 747.099609375 370.900390625 c 0
 857.599609375 370.900390625 947.099609375 281.400390625 947.099609375 170.900390625 c 0
 947.099609375 60.400390625 857.599609375 -29.099609375 747.099609375 -29.099609375 c 0
 728.900390625 -29.099609375 711.299804688 -26.7001953125 694.5 -22.099609375 c 1
 694.5 -97.5 l 1
 610.299804688 -97.5 l 1
 610.299804688 20.599609375 l 1
 451.599609375 112.200195312 l 1
 452.099609375 106.400390625 452.400390625 100.5 452.400390625 94.599609375 c 0x5ae0
 452.400390625 -14.400390625 364 -102.799804688 255 -102.799804688 c 1
747.099609375 286.599609375 m 0x5960
 683.099609375 286.599609375 631.299804688 234.700195312 631.299804688 170.799804688 c 0
 631.299804688 137 645.900390625 106.599609375 669 85.400390625 c 2
 706.5 63.7001953125 l 1
 705.900390625 62.599609375 l 1
 718.700195312 57.7998046875 732.599609375 55.099609375 747.099609375 55.099609375 c 0
 811.099609375 55.099609375 862.900390625 106.799804688 862.900390625 170.799804688 c 0
 862.900390625 234.799804688 811 286.599609375 747.099609375 286.599609375 c 0x5960
255 208.799804688 m 0xaa60
 191.900390625 208.799804688 140.700195312 157.599609375 140.700195312 94.5 c 0
 140.700195312 31.400390625 191.900390625 -19.7998046875 255 -19.7998046875 c 0
 318.099609375 -19.7998046875 369.299804688 31.400390625 369.299804688 94.5 c 0
 369.299804688 132.200195312 351 165.599609375 322.900390625 186.5 c 2
 300.5 199.400390625 l 2
 286.5 205.400390625 271.200195312 208.799804688 255 208.799804688 c 0xaa60
EndSplineSet
EndChar

StartChar: uniE13F
Encoding: 57663 57663 46
Width: 1000
HStem: -99.7002 83.1006<561.52 690.98> 211.9 98.8994<487.882 676.617>
VStem: 171.9 82.8994<-86.5 25.479> 428.9 83<32.9705 164.11> 740.5 83.2002<32.9374 164.044>
LayerCount: 2
Fore
SplineSet
863.7265625 584.807617188 m 5
 829.9609375 765.581054688 l 5
 910.665039062 780.655273438 l 5
 944.430664062 599.881835938 l 5
 863.7265625 584.807617188 l 5
657.900390625 442.599609375 m 1
 657.799804688 442.599609375 l 1
 737.900390625 428.200195312 797.799804688 399.200195312 852.200195312 348.5 c 1
 797.700195312 290 l 1
 754.099609375 330.700195312 709.400390625 352.099609375 643.700195312 363.900390625 c 1
 657.900390625 442.599609375 l 1
626.299804688 -99.7001953125 m 0
 517.299804688 -99.7001953125 428.900390625 -11.2998046875 428.900390625 97.7001953125 c 0
 428.900390625 143.099609375 444.299804688 184.900390625 470.099609375 218.299804688 c 1
 383.599609375 196.299804688 328.900390625 137.799804688 286.700195312 51.2998046875 c 0
 271.700195312 20.7001953125 261.900390625 -12.099609375 257.5 -45.7001953125 c 0
 255.5 -58.599609375 254.799804688 -71.2001953125 254.799804688 -83.900390625 c 2
 254.799804688 -86.5 l 1
 171.900390625 -86.5 l 1
 171.900390625 -83.900390625 l 2
 171.900390625 128.400390625 180.599609375 339.900390625 217.5 547.200195312 c 0
 249.599609375 708.299804688 404.700195312 813 565.700195312 780.799804688 c 0
 675.200195312 758.900390625 763.200195312 677.5 793.599609375 570.200195312 c 1
 710.599609375 546.700195312 l 1
 678.900390625 658.900390625 562.200195312 724.099609375 450 692.400390625 c 0
 376.900390625 671.799804688 321.400390625 613.299804688 303.200195312 540 c 0
 280.799804688 416.5 268.400390625 290.700195312 262.900390625 166.400390625 c 1
 335.799804688 250.700195312 427.200195312 310.799804688 547.299804688 310.799804688 c 0
 594.799804688 310.799804688 641.900390625 302.200195312 686.200195312 285.700195312 c 0
 698.299804688 281.799804688 709.900390625 276.799804688 720.900390625 270.799804688 c 2
 721.5 270.5 l 2
 782.400390625 236.900390625 823.599609375 172.099609375 823.700195312 97.7001953125 c 0
 823.700195312 -11.2998046875 735.299804688 -99.7001953125 626.299804688 -99.7001953125 c 0
626.200195312 211.900390625 m 0
 563.099609375 211.900390625 511.900390625 160.799804688 511.900390625 97.7001953125 c 0
 511.900390625 34.599609375 563.099609375 -16.599609375 626.200195312 -16.599609375 c 0
 689.299804688 -16.599609375 740.5 34.5 740.5 97.599609375 c 0
 740.5 141.700195312 715.5 180 678.900390625 199 c 0
 673.799804688 201.400390625 668.700195312 203.599609375 663.599609375 205.599609375 c 0
 651.900390625 209.700195312 639.299804688 211.900390625 626.200195312 211.900390625 c 0
EndSplineSet
EndChar

StartChar: uniE140
Encoding: 57664 57664 47
Width: 1000
VStem: 172 82.9004<-86.5 25.5494>
LayerCount: 2
Fore
SplineSet
863.7265625 584.807617188 m 5
 829.9609375 765.581054688 l 5
 910.665039062 780.655273438 l 5
 944.430664062 599.881835938 l 5
 863.7265625 584.807617188 l 5
657.900390625 442.599609375 m 1
 657.799804688 442.599609375 l 1
 737.900390625 428.200195312 797.799804688 399.200195312 852.200195312 348.5 c 1
 797.700195312 290 l 1
 754.099609375 330.700195312 709.400390625 352.099609375 643.700195312 363.900390625 c 1
 657.900390625 442.599609375 l 1
560.599609375 3.400390625 m 1
 612.700195312 -32.900390625 684.400390625 -20.099609375 720.700195312 32 c 0
 757 84.099609375 744.200195312 155.799804688 692.099609375 192.099609375 c 0
 689.900390625 193.599609375 687.700195312 195 685.400390625 196.400390625 c 0
 529.200195312 272.5 362.900390625 207.5 286.700195312 51.400390625 c 0
 265.799804688 8.400390625 254.900390625 -38.7001953125 254.900390625 -86.5 c 1
 172 -86.5 l 1
 172 -83.900390625 l 2
 172 128.599609375 180.599609375 339.900390625 217.5 547.200195312 c 0
 249.599609375 708.299804688 404.700195312 813 565.700195312 780.799804688 c 0
 675.200195312 758.900390625 763.200195312 677.5 793.599609375 570.200195312 c 1
 710.599609375 546.700195312 l 1
 678.900390625 658.900390625 562.200195312 724.099609375 450 692.400390625 c 0
 376.599609375 671.599609375 320.599609375 612.799804688 302.599609375 539.200195312 c 0
 280.299804688 417 268.200195312 293 262.900390625 166.400390625 c 1
 335.700195312 254.599609375 424 310.799804688 547.299804688 310.799804688 c 0
 597.799804688 310.799804688 647.900390625 301.400390625 694.599609375 282.799804688 c 0
 703.700195312 279.400390625 712.400390625 275.5 720.599609375 271 c 0
 720.900390625 270.799804688 721.200195312 270.700195312 721.5 270.5 c 0
 805.700195312 224.299804688 845.700195312 122.099609375 811.5 29.400390625 c 0
 773.799804688 -72.900390625 660.299804688 -125.200195312 558 -87.400390625 c 0
 542.200195312 -81.599609375 527.299804688 -73.7998046875 513.5 -64.2001953125 c 1
 560.599609375 3.400390625 l 1
EndSplineSet
EndChar

StartChar: uniE141
Encoding: 57665 57665 48
Width: 1000
HStem: -100.5 83<169.42 300.336> 211.1 83.2002<169.42 300.873> 275.9 82.0996<633.4 817.3>
VStem: 36.7998 83<32.1206 161.58> 308.8 85.9004<279.7 598.949> 750.9 83<566.118 597.637>
LayerCount: 2
Fore
SplineSet
863.7265625 584.807617188 m 5x9c
 829.9609375 765.581054688 l 5
 910.665039062 780.655273438 l 5
 944.430664062 599.881835938 l 5
 863.7265625 584.807617188 l 5x9c
633.400390625 275.900390625 m 1xbc
 633.400390625 358 l 1
 817.299804688 358 l 1
 817.299804688 275.900390625 l 1
 633.400390625 275.900390625 l 1xbc
694 2.7001953125 m 1
 694 2.7998046875 l 1
 772.5 4.7998046875 847.299804688 36.2001953125 903.700195312 90.7998046875 c 1
 963.200195312 29.5 l 1
 805.400390625 -123.5 573.5 -139.5 420.599609375 18.2998046875 c 0
 419.400390625 19.599609375 418.099609375 20.900390625 416.900390625 22.2001953125 c 1
 387.5 -49.7998046875 316.799804688 -100.5 234.200195312 -100.5 c 0
 125.200195312 -100.5 36.7998046875 -12.099609375 36.7998046875 96.900390625 c 0
 36.7998046875 205.900390625 125.200195312 294.299804688 234.200195312 294.299804688 c 0xdc
 260.599609375 294.299804688 285.799804688 289.099609375 308.799804688 279.700195312 c 1
 308.700195312 281.599609375 308.599609375 283.5 308.599609375 285.400390625 c 2
 309.400390625 495 l 2
 313.5 654.099609375 413.900390625 782.700195312 574.299804688 784.5 c 0
 708.599609375 786.099609375 797.299804688 697.400390625 833.900390625 568.099609375 c 1
 750.900390625 544.599609375 l 1
 719.200195312 656.799804688 632.5 722 520.299804688 690.299804688 c 0
 430.599609375 665 395.200195312 583.799804688 394.700195312 491.099609375 c 2
 394.700195312 273.400390625 l 2
 406.099609375 107.599609375 526.200195312 -1.400390625 694 2.7001953125 c 1
234.099609375 -17.5 m 0
 297.200195312 -17.5 348.400390625 33.7001953125 348.400390625 96.7998046875 c 0
 348.400390625 111.700195312 345.599609375 125.900390625 340.299804688 138.900390625 c 0
 339.799804688 140.299804688 339.200195312 141.700195312 338.599609375 143.099609375 c 0
 320.900390625 183.099609375 280.799804688 211.099609375 234.099609375 211.099609375 c 0
 171 211.099609375 119.799804688 159.900390625 119.799804688 96.7998046875 c 0
 119.799804688 33.7001953125 171 -17.5 234.099609375 -17.5 c 0
EndSplineSet
EndChar

StartChar: uniE142
Encoding: 57666 57666 49
Width: 1000
HStem: -20.7002 83<314.94 450.665> 275.9 82.0996<633.4 817.3> 290.9 83.0996<314.893 450.666>
VStem: 171.9 82.8994<-86.5 13.1926> 499.4 83<111.92 241.374>
LayerCount: 2
Fore
SplineSet
863.7265625 584.807617188 m 5x98
 829.9609375 765.581054688 l 5
 910.665039062 780.655273438 l 5
 944.430664062 599.881835938 l 5
 863.7265625 584.807617188 l 5x98
633.400390625 275.900390625 m 1xd8
 633.400390625 358 l 1
 817.299804688 358 l 1
 817.299804688 275.900390625 l 1
 633.400390625 275.900390625 l 1xd8
450 692.400390625 m 2
 449.900390625 692.400390625 l 2
 376.700195312 671.599609375 320.799804688 613 302.700195312 539.5 c 0
 290.799804688 474.700195312 281.599609375 409 274.900390625 342 c 1
 302.200195312 360.799804688 346.799804688 374 382.400390625 374 c 0xb8
 492.799804688 374 582.400390625 285.700195312 582.400390625 176.700195312 c 0
 582.400390625 67.7001953125 492.900390625 -20.7001953125 382.400390625 -20.7001953125 c 0
 333.5 -20.7001953125 293 -9.7001953125 258.299804688 19 c 1
 256.900390625 -17.400390625 254.799804688 -50.099609375 254.799804688 -86.5 c 1
 171.900390625 -86.5 l 1
 171.900390625 126.200195312 180.5 339 217.5 547.200195312 c 0
 249.599609375 708.299804688 404.700195312 813 565.700195312 780.799804688 c 0
 675.200195312 758.900390625 763.200195312 677.5 793.599609375 570.200195312 c 1
 710.599609375 546.700195312 l 1
 678.900390625 658.900390625 562.200195312 724.099609375 450 692.400390625 c 2
382.5 290.900390625 m 0
 317.900390625 290.900390625 265.599609375 239.700195312 265.599609375 176.599609375 c 0
 265.599609375 113.5 318 62.2998046875 382.5 62.2998046875 c 0
 447 62.2998046875 499.400390625 113.5 499.400390625 176.599609375 c 0
 499.400390625 239.700195312 447.099609375 290.900390625 382.5 290.900390625 c 0
EndSplineSet
EndChar

StartChar: uniE143
Encoding: 57667 57667 50
Width: 1000
HStem: -93 85.5996<397.698 585.569> 275.9 82.0996<540.2 724.1>
VStem: 186.9 86<116.252 451.081> 788.5 84.2998<-86.4004 58.2998 194.485 299.5>
LayerCount: 2
Fore
SplineSet
863.7265625 584.807617188 m 5
 829.9609375 765.581054688 l 5
 910.665039062 780.655273438 l 5
 944.430664062 599.881835938 l 5
 863.7265625 584.807617188 l 5
540.200195312 275.900390625 m 1
 540.200195312 358 l 1
 724.099609375 358 l 1
 724.099609375 275.900390625 l 1
 540.200195312 275.900390625 l 1
872.799804688 -86.400390625 m 1
 872.700195312 -86.400390625 l 1
 788.5 -86.400390625 l 1
 788.5 58.2998046875 l 1
 715.900390625 -33.599609375 603.599609375 -92.5 477.700195312 -93 c 0
 315.799804688 -89.5 187.799804688 42 186.900390625 203.099609375 c 0
 186.900390625 318.599609375 197.599609375 433.700195312 217.5 547.200195312 c 0
 249.599609375 708.299804688 404.700195312 813 565.700195312 780.799804688 c 0
 675.200195312 758.900390625 763.200195312 677.5 793.599609375 570.200195312 c 1
 710.599609375 546.700195312 l 1
 678.900390625 658.900390625 562.200195312 724.099609375 450 692.400390625 c 0
 376.599609375 671.599609375 320.900390625 612.700195312 302.900390625 539 c 0
 283.400390625 430.200195312 273.299804688 319.700195312 272.900390625 208.799804688 c 0
 270.900390625 93.7001953125 361.700195312 -1.7001953125 476.099609375 -7.400390625 c 2
 480.700195312 -7.400390625 l 2
 649.099609375 -5 785.599609375 130.599609375 788.599609375 299.5 c 1
 872.799804688 300 l 1
 872.799804688 -86.400390625 l 1
EndSplineSet
EndChar

StartChar: uniE144
Encoding: 57668 57668 51
Width: 1000
HStem: -99.7002 83.1006<561.621 691.08> 211.9 98.8994<487.982 676.716> 416.7 82.0996<122.7 198 296 877.4>
VStem: 172 82.9004<-86.5 26.167> 198 86.0996<170.296 416.7> 429 83<32.9705 164.11> 740.6 83.2002<32.9374 164.044>
LayerCount: 2
Fore
SplineSet
172 -83.900390625 m 2xf6
 172 83.900390625 177.5 251.5 198 416.700195312 c 1
 122.700195312 416.700195312 l 1
 122.700195312 498.799804688 l 1
 209.599609375 498.799804688 l 1
 225 597 246.200195312 694.200195312 275.5 790 c 1
 357.099609375 765 l 1
 330.599609375 678.200195312 310.700195312 589 296 498.799804688 c 1
 877.400390625 498.799804688 l 1
 877.400390625 416.700195312 l 1
 284.099609375 416.700195312 l 1xee
 273.400390625 333.400390625 266.700195312 249.5 263 166.400390625 c 1
 335.900390625 250.700195312 427.299804688 310.799804688 547.400390625 310.799804688 c 0
 594.900390625 310.799804688 642 302.200195312 686.299804688 285.700195312 c 0
 698.400390625 281.799804688 710 276.799804688 721 270.799804688 c 2
 721.599609375 270.5 l 2
 782.5 236.900390625 823.700195312 172.099609375 823.799804688 97.7001953125 c 0
 823.799804688 -11.2998046875 735.400390625 -99.7001953125 626.400390625 -99.7001953125 c 0
 517.400390625 -99.7001953125 429 -11.2998046875 429 97.7001953125 c 0
 429 143.099609375 444.400390625 184.900390625 470.200195312 218.299804688 c 1
 383.700195312 196.299804688 329 137.799804688 286.799804688 51.2998046875 c 0
 271.799804688 20.7001953125 262 -12.099609375 257.599609375 -45.7001953125 c 0
 255.599609375 -58.599609375 254.900390625 -71.2001953125 254.900390625 -83.900390625 c 2
 254.900390625 -86.5 l 1
 172 -86.5 l 1
 172 -83.900390625 l 2xf6
626.299804688 211.900390625 m 0
 563.200195312 211.900390625 512 160.799804688 512 97.7001953125 c 0
 512 34.599609375 563.200195312 -16.599609375 626.299804688 -16.599609375 c 0
 689.400390625 -16.599609375 740.599609375 34.5 740.599609375 97.599609375 c 0
 740.599609375 141.700195312 715.599609375 180 679 199 c 0
 673.900390625 201.400390625 668.799804688 203.599609375 663.700195312 205.599609375 c 0
 652 209.700195312 639.400390625 211.900390625 626.299804688 211.900390625 c 0
EndSplineSet
EndChar

StartChar: uniE155
Encoding: 57685 57685 52
Width: 1000
Flags: W
HStem: -99.7002 83.1006<561.621 691.08> 211.9 98.8994<487.982 676.716> 416.7 82.0996<122.7 198 296 877.4> 566.7 64.2998<815.607 879.786> 701.2 64.2998<815.607 879.793>
VStem: 172 82.9004<-86.5 26.167> 198 86.0996<170.296 416.7> 429 83<32.9705 164.11> 740.6 83.2002<32.9374 164.044> 748.3 64.2998<634.007 698.193> 882.8 64.2998<634.007 698.193>
LayerCount: 2
Fore
SplineSet
847.700195312 765.5 m 4xf960
 902.5 765.5 947.099609375 720.900390625 947.099609375 666.099609375 c 4
 947.099609375 611.299804688 902.5 566.700195312 847.700195312 566.700195312 c 4
 792.900390625 566.700195312 748.299804688 611.299804688 748.299804688 666.099609375 c 4
 748.299804688 720.900390625 792.900390625 765.5 847.700195312 765.5 c 4xf960
847.700195312 631 m 4
 867 631 882.799804688 646.700195312 882.799804688 666.099609375 c 4
 882.799804688 685.5 867.099609375 701.200195312 847.700195312 701.200195312 c 4
 828.299804688 701.200195312 812.599609375 685.5 812.599609375 666.099609375 c 4
 812.599609375 646.700195312 828.299804688 631 847.700195312 631 c 4
172 -83.900390625 m 2xfda0
 172 83.900390625 177.5 251.5 198 416.700195312 c 1
 122.700195312 416.700195312 l 1
 122.700195312 498.799804688 l 1
 209.599609375 498.799804688 l 1
 225 597 246.200195312 694.200195312 275.5 790 c 1
 357.099609375 765 l 1
 330.599609375 678.200195312 310.700195312 589 296 498.799804688 c 1
 877.400390625 498.799804688 l 1
 877.400390625 416.700195312 l 1
 284.099609375 416.700195312 l 1xfb20
 273.400390625 333.400390625 266.700195312 249.5 263 166.400390625 c 1
 335.900390625 250.700195312 427.299804688 310.799804688 547.400390625 310.799804688 c 0
 594.900390625 310.799804688 642 302.200195312 686.299804688 285.700195312 c 0
 698.400390625 281.799804688 710 276.799804688 721 270.799804688 c 2
 721.599609375 270.5 l 2
 782.5 236.900390625 823.700195312 172.099609375 823.799804688 97.7001953125 c 0
 823.799804688 -11.2998046875 735.400390625 -99.7001953125 626.400390625 -99.7001953125 c 0
 517.400390625 -99.7001953125 429 -11.2998046875 429 97.7001953125 c 0
 429 143.099609375 444.400390625 184.900390625 470.200195312 218.299804688 c 1
 383.700195312 196.299804688 329 137.799804688 286.799804688 51.2998046875 c 0
 271.799804688 20.7001953125 262 -12.099609375 257.599609375 -45.7001953125 c 0
 255.599609375 -58.599609375 254.900390625 -71.2001953125 254.900390625 -83.900390625 c 2
 254.900390625 -86.5 l 1
 172 -86.5 l 1
 172 -83.900390625 l 2xfda0
626.299804688 211.900390625 m 0
 563.200195312 211.900390625 512 160.799804688 512 97.7001953125 c 0
 512 34.599609375 563.200195312 -16.599609375 626.299804688 -16.599609375 c 0
 689.400390625 -16.599609375 740.599609375 34.5 740.599609375 97.599609375 c 0xf9a0
 740.599609375 141.700195312 715.599609375 180 679 199 c 0
 673.900390625 201.400390625 668.799804688 203.599609375 663.700195312 205.599609375 c 0
 652 209.700195312 639.400390625 211.900390625 626.299804688 211.900390625 c 0
EndSplineSet
EndChar

StartChar: uniE156
Encoding: 57686 57686 53
Width: 1000
Flags: W
HStem: 416.7 82.0996<122.7 197.9 295.5 877.3> 566.7 64.2998<815.607 879.786> 701.2 64.2998<815.607 879.793>
VStem: 172 82.9004<-86.5 26.2468> 748.3 64.2998<634.007 698.193> 882.8 64.2998<634.007 698.193>
LayerCount: 2
Fore
SplineSet
847.700195312 765.5 m 4
 902.5 765.5 947.099609375 720.900390625 947.099609375 666.099609375 c 4
 947.099609375 611.299804688 902.5 566.700195312 847.700195312 566.700195312 c 4
 792.900390625 566.700195312 748.299804688 611.299804688 748.299804688 666.099609375 c 4
 748.299804688 720.900390625 792.900390625 765.5 847.700195312 765.5 c 4
847.700195312 631 m 4
 867 631 882.799804688 646.700195312 882.799804688 666.099609375 c 4
 882.799804688 685.5 867.099609375 701.200195312 847.700195312 701.200195312 c 4
 828.299804688 701.200195312 812.599609375 685.5 812.599609375 666.099609375 c 4
 812.599609375 646.700195312 828.299804688 631 847.700195312 631 c 4
172 -83.900390625 m 2
 172 84.099609375 177.400390625 251.5 197.900390625 416.700195312 c 1
 122.700195312 416.700195312 l 1
 122.700195312 498.799804688 l 1
 209.599609375 498.799804688 l 1
 225 596.900390625 246.099609375 694.099609375 275.5 790 c 1
 357.099609375 765 l 1
 330.200195312 677 310.200195312 588.400390625 295.5 498.799804688 c 1
 877.299804688 498.799804688 l 1
 877.299804688 416.700195312 l 1
 283.5 416.700195312 l 1
 273 334.299804688 266.400390625 250.900390625 262.900390625 166.400390625 c 1
 335.700195312 254.599609375 424 310.799804688 547.299804688 310.799804688 c 0
 597.799804688 310.799804688 647.900390625 301.400390625 694.599609375 282.799804688 c 0
 703.700195312 279.400390625 712.400390625 275.5 720.599609375 271 c 0
 720.900390625 270.799804688 721.200195312 270.700195312 721.5 270.5 c 0
 805.700195312 224.299804688 845.700195312 122.099609375 811.5 29.400390625 c 0
 773.799804688 -72.900390625 660.299804688 -125.200195312 558 -87.400390625 c 0
 542.200195312 -81.599609375 527.299804688 -73.7998046875 513.5 -64.2001953125 c 1
 560.599609375 3.400390625 l 1
 612.700195312 -32.900390625 684.400390625 -20.099609375 720.700195312 32 c 0
 757 84.099609375 744.200195312 155.799804688 692.099609375 192.099609375 c 0
 689.900390625 193.599609375 687.700195312 195 685.400390625 196.400390625 c 0
 529.200195312 272.5 362.900390625 207.5 286.700195312 51.400390625 c 0
 265.799804688 8.400390625 254.900390625 -38.7001953125 254.900390625 -86.5 c 1
 172 -86.5 l 1
 172 -83.900390625 l 2
EndSplineSet
EndChar

StartChar: uniE157
Encoding: 57687 57687 54
Width: 1000
Flags: W
HStem: -100.6 83.0996<169.42 300.336> 211.1 83.1006<169.42 300.873> 416.7 82.0996<122.7 309.1 394.7 877.3> 566.7 64.2998<815.607 879.786> 701.2 64.2998<815.607 879.793>
VStem: 36.7998 83<32.0703 161.53> 308.8 85.9004<279.6 416.7 498.8 773.2> 748.3 64.2998<634.007 698.193> 882.8 64.2998<634.007 698.193>
LayerCount: 2
Fore
SplineSet
847.700195312 765.5 m 4
 902.5 765.5 947.099609375 720.900390625 947.099609375 666.099609375 c 4
 947.099609375 611.299804688 902.5 566.700195312 847.700195312 566.700195312 c 4
 792.900390625 566.700195312 748.299804688 611.299804688 748.299804688 666.099609375 c 4
 748.299804688 720.900390625 792.900390625 765.5 847.700195312 765.5 c 4
847.700195312 631 m 4
 867 631 882.799804688 646.700195312 882.799804688 666.099609375 c 4
 882.799804688 685.5 867.099609375 701.200195312 847.700195312 701.200195312 c 4
 828.299804688 701.200195312 812.599609375 685.5 812.599609375 666.099609375 c 4
 812.599609375 646.700195312 828.299804688 631 847.700195312 631 c 4
694 2.7001953125 m 0
 772.5 4.7001953125 847.299804688 36.099609375 903.700195312 90.7001953125 c 1
 963.200195312 29.400390625 l 1
 805.400390625 -123.599609375 573.5 -139.599609375 420.599609375 18.2001953125 c 0
 419.400390625 19.5 418.099609375 20.7998046875 416.900390625 22.099609375 c 1
 387.5 -49.900390625 316.799804688 -100.599609375 234.200195312 -100.599609375 c 0
 125.200195312 -100.599609375 36.7998046875 -12.2001953125 36.7998046875 96.7998046875 c 0
 36.7998046875 205.799804688 125.200195312 294.200195312 234.200195312 294.200195312 c 0
 260.599609375 294.200195312 285.799804688 289 308.799804688 279.599609375 c 1
 308.700195312 281.5 308.599609375 283.400390625 308.599609375 285.299804688 c 2
 309.099609375 416.700195312 l 1
 122.700195312 416.700195312 l 1
 122.700195312 498.799804688 l 1
 309.400390625 498.799804688 l 1
 310.5 773.200195312 l 1
 394.700195312 773.200195312 l 1
 394.700195312 498.799804688 l 1
 877.299804688 498.799804688 l 1
 877.299804688 416.700195312 l 1
 394.700195312 416.700195312 l 1
 394.700195312 273.400390625 l 2
 406.099609375 107.599609375 526.200195312 -1.400390625 694 2.7001953125 c 0
234.099609375 -17.5 m 0
 297.200195312 -17.5 348.400390625 33.7001953125 348.400390625 96.7998046875 c 0
 348.400390625 111.700195312 345.599609375 125.900390625 340.299804688 138.900390625 c 0
 339.799804688 140.299804688 339.200195312 141.700195312 338.599609375 143.099609375 c 0
 320.900390625 183.099609375 280.799804688 211.099609375 234.099609375 211.099609375 c 0
 171 211.099609375 119.799804688 159.900390625 119.799804688 96.7998046875 c 0
 119.799804688 33.7001953125 171 -17.5 234.099609375 -17.5 c 0
EndSplineSet
EndChar

StartChar: uniE158
Encoding: 57688 57688 55
Width: 1000
Flags: W
HStem: -20.7002 83<314.99 450.715> 290.9 83.0996<314.943 450.716> 416.7 82.0996<122.7 198.1 295.5 877.3> 566.7 64.2998<815.607 879.786> 701.2 64.2998<815.607 879.793>
VStem: 172 82.9004<-86.5 16.0829> 499.4 83.0996<111.92 241.374> 748.3 64.2998<634.007 698.193> 882.8 64.2998<634.007 698.193>
LayerCount: 2
Fore
SplineSet
847.700195312 765.5 m 4
 902.5 765.5 947.099609375 720.900390625 947.099609375 666.099609375 c 4
 947.099609375 611.299804688 902.5 566.700195312 847.700195312 566.700195312 c 4
 792.900390625 566.700195312 748.299804688 611.299804688 748.299804688 666.099609375 c 4
 748.299804688 720.900390625 792.900390625 765.5 847.700195312 765.5 c 4
847.700195312 631 m 4
 867 631 882.799804688 646.700195312 882.799804688 666.099609375 c 4
 882.799804688 685.5 867.099609375 701.200195312 847.700195312 701.200195312 c 4
 828.299804688 701.200195312 812.599609375 685.5 812.599609375 666.099609375 c 4
 812.599609375 646.700195312 828.299804688 631 847.700195312 631 c 4
172 -86.5 m 1
 172 81.7998046875 177.5 250.5 198.099609375 416.700195312 c 1
 122.700195312 416.700195312 l 1
 122.700195312 498.799804688 l 1
 209.700195312 498.799804688 l 1
 225.099609375 597.099609375 246.200195312 694.299804688 275.5 790 c 1
 357 765 l 1
 330.400390625 678.099609375 310.299804688 589.400390625 295.5 498.799804688 c 1
 877.299804688 498.799804688 l 1
 877.299804688 416.700195312 l 1
 283.599609375 416.700195312 l 2
 280.5 391.900390625 277.5 367.099609375 275 342 c 1
 302.299804688 360.799804688 346.900390625 374 382.5 374 c 0
 492.900390625 374 582.5 285.700195312 582.5 176.700195312 c 0
 582.5 67.7001953125 493 -20.7001953125 382.5 -20.7001953125 c 0
 333.599609375 -20.7001953125 293.099609375 -9.7001953125 258.400390625 19 c 1
 257 -17.400390625 254.900390625 -50.099609375 254.900390625 -86.5 c 1
 172 -86.5 l 1
382.5 290.900390625 m 0
 317.900390625 290.900390625 265.599609375 239.700195312 265.599609375 176.599609375 c 0
 265.599609375 113.5 318 62.2998046875 382.5 62.2998046875 c 0
 447 62.2998046875 499.400390625 113.5 499.400390625 176.599609375 c 0
 499.400390625 239.700195312 447.099609375 290.900390625 382.5 290.900390625 c 0
EndSplineSet
EndChar

StartChar: uniE159
Encoding: 57689 57689 56
Width: 1000
Flags: W
HStem: -93 85.5996<397.925 585.681> 416.7 82.0996<122.7 198.5 296 877.4> 566.7 64.2998<815.607 879.786> 701.2 64.2998<815.607 879.793>
VStem: 186.9 86<116.252 413.381> 748.3 64.2998<634.007 698.193> 788.7 85.5<264.325 297.9> 882.8 64.2998<634.007 698.193>
LayerCount: 2
Fore
SplineSet
847.700195312 765.5 m 4xfd
 902.5 765.5 947.099609375 720.900390625 947.099609375 666.099609375 c 4
 947.099609375 611.299804688 902.5 566.700195312 847.700195312 566.700195312 c 4
 792.900390625 566.700195312 748.299804688 611.299804688 748.299804688 666.099609375 c 4
 748.299804688 720.900390625 792.900390625 765.5 847.700195312 765.5 c 4xfd
847.700195312 631 m 4
 867 631 882.799804688 646.700195312 882.799804688 666.099609375 c 4
 882.799804688 685.5 867.099609375 701.200195312 847.700195312 701.200195312 c 4
 828.299804688 701.200195312 812.599609375 685.5 812.599609375 666.099609375 c 4
 812.599609375 646.700195312 828.299804688 631 847.700195312 631 c 4
187 203.099609375 m 1
 186.900390625 203.099609375 l 1
 186.900390625 274.599609375 190.900390625 345.900390625 198.5 416.700195312 c 1
 122.700195312 416.700195312 l 1
 122.700195312 498.799804688 l 1
 209.099609375 498.799804688 l 1
 223.900390625 597.299804688 246 694.599609375 275.5 790 c 1
 357.5 764.700195312 l 1
 330.599609375 677.5 310.099609375 588.700195312 296 498.799804688 c 1
 877.400390625 498.799804688 l 1
 877.400390625 416.700195312 l 1
 285 416.700195312 l 1
 277.200195312 347.700195312 273.099609375 278.299804688 272.900390625 208.799804688 c 0
 270.900390625 93.7001953125 361.900390625 -1.7001953125 476.200195312 -7.400390625 c 2
 480.799804688 -7.400390625 l 2
 649.200195312 -5.099609375 785.799804688 130.599609375 788.700195312 299.400390625 c 1
 874.200195312 297.900390625 l 2xfb
 874 286.400390625 873.400390625 275 872.200195312 263.799804688 c 0
 959.099609375 217.599609375 1000.70019531 113.099609375 965.700195312 18 c 0
 927.400390625 -85.599609375 812.400390625 -138.599609375 708.799804688 -100.299804688 c 0
 683.299804688 -90.900390625 660 -76.400390625 640.400390625 -57.7998046875 c 0
 590.799804688 -80.2001953125 535.799804688 -92.7998046875 477.900390625 -93 c 0
 316.099609375 -89.5 187.900390625 42 187 203.099609375 c 1
852.900390625 176.200195312 m 1
 827.099609375 100.700195312 779.299804688 35.5 717.200195312 -11.7998046875 c 1
 758 -36.7001953125 811.799804688 -34.7998046875 851.099609375 -3 c 0
 901.099609375 37.2998046875 908.799804688 110.599609375 868.299804688 160.5 c 0
 863.700195312 166.200195312 858.5 171.5 852.900390625 176.200195312 c 1
EndSplineSet
EndChar

StartChar: uniE15A
Encoding: 57690 57690 57
Width: 1000
Flags: W
HStem: -93 85.7002<394.366 528.141> 293.9 83<542.27 673.097> 416.7 82.0996<122.7 198.5 296 877.4> 566.7 64.2998<815.607 879.786> 701.2 64.2998<815.607 879.793>
VStem: 186.9 86<114.619 413.381> 409.6 83.1006<113.69 244.28> 721.3 151.5<113.444 245.756> 748.3 64.2998<634.007 698.193> 788.6 84.2002<-91.5996 61.5> 882.8 64.2998<634.007 698.193>
LayerCount: 2
Fore
SplineSet
847.700195312 765.5 m 4xfea0
 902.5 765.5 947.099609375 720.900390625 947.099609375 666.099609375 c 4
 947.099609375 611.299804688 902.5 566.700195312 847.700195312 566.700195312 c 4
 792.900390625 566.700195312 748.299804688 611.299804688 748.299804688 666.099609375 c 4
 748.299804688 720.900390625 792.900390625 765.5 847.700195312 765.5 c 4xfea0
847.700195312 631 m 4
 867 631 882.799804688 646.700195312 882.799804688 666.099609375 c 4
 882.799804688 685.5 867.099609375 701.200195312 847.700195312 701.200195312 c 4
 828.299804688 701.200195312 812.599609375 685.5 812.599609375 666.099609375 c 4
 812.599609375 646.700195312 828.299804688 631 847.700195312 631 c 4
187 210.299804688 m 1
 186.900390625 210.299804688 l 1
 187.200195312 279.299804688 191.099609375 348.200195312 198.5 416.700195312 c 1
 122.700195312 416.700195312 l 1
 122.700195312 498.799804688 l 1
 209.099609375 498.799804688 l 1
 223.900390625 597.299804688 246 694.599609375 275.5 790 c 1
 357.5 764.700195312 l 1
 330.599609375 677.5 310.099609375 588.700195312 296 498.799804688 c 1
 877.400390625 498.799804688 l 1
 877.400390625 416.700195312 l 1
 284.900390625 416.700195312 l 1
 276.900390625 345.900390625 272.900390625 274.599609375 272.900390625 203.200195312 c 0
 273.900390625 90.599609375 361.200195312 -1.7998046875 473.599609375 -7.2998046875 c 2
 478.200195312 -7.2998046875 l 2
 495.900390625 -7.099609375 513.200195312 -5.400390625 530.099609375 -2.2998046875 c 1
 459.299804688 27.599609375 409.599609375 97.7998046875 409.599609375 179.5 c 0
 409.599609375 288.5 498 376.900390625 607 376.900390625 c 0
 684.5 376.900390625 753.5 327.799804688 785.799804688 262.799804688 c 1
 787.200195312 274.299804688 788.599609375 299.400390625 788.599609375 299.400390625 c 1
 872.799804688 299.400390625 l 1
 872.799804688 -91.599609375 l 1
 788.599609375 -91.599609375 l 1
 788.599609375 61.5 l 1xfe60
 716.099609375 -32.2001953125 602.700195312 -92.5 475.299804688 -93 c 0
 311 -89.400390625 184.099609375 46 187 210.299804688 c 1
492.700195312 179.599609375 m 0
 492.700195312 116.5 543.900390625 65.2998046875 607 65.2998046875 c 0
 670.099609375 65.2998046875 721.299804688 116.5 721.299804688 179.599609375 c 0xff20
 721.299804688 242.700195312 670.099609375 293.900390625 607 293.900390625 c 0
 543.900390625 293.900390625 492.700195312 242.700195312 492.700195312 179.599609375 c 0
EndSplineSet
EndChar

StartChar: uniE15B
Encoding: 57691 57691 58
Width: 1000
Flags: W
HStem: -93 85.5996<397.798 585.569> 416.7 82.0996<122.7 198.5 296 877.4> 566.7 64.2998<815.607 879.786> 701.2 64.2998<815.607 879.793>
VStem: 186.9 86<116.252 413.381> 748.3 64.2998<634.007 698.193> 788.6 84.2002<-86.4004 58.2998 194.485 299.5> 882.8 64.2998<634.007 698.193>
LayerCount: 2
Fore
SplineSet
847.700195312 765.5 m 4xfd
 902.5 765.5 947.099609375 720.900390625 947.099609375 666.099609375 c 4
 947.099609375 611.299804688 902.5 566.700195312 847.700195312 566.700195312 c 4
 792.900390625 566.700195312 748.299804688 611.299804688 748.299804688 666.099609375 c 4
 748.299804688 720.900390625 792.900390625 765.5 847.700195312 765.5 c 4xfd
847.700195312 631 m 4
 867 631 882.799804688 646.700195312 882.799804688 666.099609375 c 4
 882.799804688 685.5 867.099609375 701.200195312 847.700195312 701.200195312 c 4
 828.299804688 701.200195312 812.599609375 685.5 812.599609375 666.099609375 c 4
 812.599609375 646.700195312 828.299804688 631 847.700195312 631 c 4
187 203.099609375 m 1
 186.900390625 203.099609375 l 1
 186.900390625 274.599609375 190.900390625 345.900390625 198.5 416.700195312 c 1
 122.700195312 416.700195312 l 1
 122.700195312 498.799804688 l 1
 209.099609375 498.799804688 l 1
 223.900390625 597.299804688 246 694.599609375 275.5 790 c 1
 357.5 764.700195312 l 1
 330.599609375 677.5 310.099609375 588.700195312 296 498.799804688 c 1
 877.400390625 498.799804688 l 1
 877.400390625 416.700195312 l 1
 285 416.700195312 l 1
 277.200195312 347.799804688 273.099609375 278.400390625 272.900390625 208.799804688 c 0
 270.900390625 93.7001953125 361.700195312 -1.7001953125 476.099609375 -7.400390625 c 2
 480.700195312 -7.400390625 l 2
 649.099609375 -5 785.599609375 130.599609375 788.599609375 299.5 c 1
 872.799804688 300 l 1
 872.799804688 -86.400390625 l 1
 788.599609375 -86.400390625 l 1
 788.599609375 58.2998046875 l 1xfb
 716 -33.599609375 603.700195312 -92.5 477.799804688 -93 c 0
 315.900390625 -89.5 187.900390625 42 187 203.099609375 c 1
EndSplineSet
EndChar

StartChar: uniE15C
Encoding: 57692 57692 59
Width: 1000
Flags: W
HStem: 304.3 83.1006<566.92 696.379> 416.7 82.0996<122.7 198.5 295.9 877.4> 566.7 64.2998<815.607 879.786> 701.2 64.2998<815.607 879.793>
VStem: 186.9 85.8994<117.788 413.381> 434.2 83.2002<120.577 255.636> 746 83<119.029 255.636> 748.3 64.2998<634.007 698.193> 882.8 64.2998<634.007 698.193> 896 86.9004<-87.5996 -22.9855>
LayerCount: 2
Fore
SplineSet
847.700195312 765.5 m 4xfd80
 902.5 765.5 947.099609375 720.900390625 947.099609375 666.099609375 c 4
 947.099609375 611.299804688 902.5 566.700195312 847.700195312 566.700195312 c 4
 792.900390625 566.700195312 748.299804688 611.299804688 748.299804688 666.099609375 c 4
 748.299804688 720.900390625 792.900390625 765.5 847.700195312 765.5 c 4xfd80
847.700195312 631 m 4
 867 631 882.799804688 646.700195312 882.799804688 666.099609375 c 4
 882.799804688 685.5 867.099609375 701.200195312 847.700195312 701.200195312 c 4
 828.299804688 701.200195312 812.599609375 685.5 812.599609375 666.099609375 c 4
 812.599609375 646.700195312 828.299804688 631 847.700195312 631 c 4
813.200195312 108.799804688 m 2
 813.099609375 108.799804688 l 1
 865.099609375 101.099609375 913.900390625 73 946.5 26.7001953125 c 0
 970.099609375 -6.7001953125 982.799804688 -46.599609375 982.900390625 -87.599609375 c 1
 896 -87.7998046875 l 1
 895.900390625 -25.900390625 845.700195312 24.099609375 783.799804688 24 c 0
 760.700195312 23.900390625 737.700195312 17.5 718.900390625 4.2001953125 c 2
 644 -48.2998046875 l 2
 510.599609375 -131.5 333.900390625 -97 242.299804688 33.099609375 c 0
 207.200195312 83 187.299804688 142.299804688 186.900390625 203.099609375 c 0
 186.900390625 274.599609375 190.900390625 345.900390625 198.5 416.700195312 c 1
 122.700195312 416.700195312 l 1
 122.700195312 498.799804688 l 1
 209.099609375 498.799804688 l 1
 223.900390625 597.299804688 246 694.599609375 275.5 790 c 1
 357.5 764.700195312 l 1
 330.599609375 677.5 310 588.700195312 295.900390625 498.799804688 c 1
 877.400390625 498.799804688 l 1
 877.400390625 416.700195312 l 1
 284.900390625 416.700195312 l 1
 277.299804688 350 273.299804688 282.799804688 272.799804688 215.5 c 0
 270.799804688 98.2001953125 358.900390625 -1 475.799804688 -6.7001953125 c 0
 502.200195312 -8 528.299804688 -4.2998046875 553 3.900390625 c 1
 483.099609375 34.7001953125 434.200195312 105.200195312 434.200195312 187.400390625 c 0
 434.200195312 297.900390625 522.599609375 387.400390625 631.599609375 387.400390625 c 0
 740.599609375 387.400390625 829 297.900390625 829 187.400390625 c 0xfe40
 829 159.5 823.400390625 132.900390625 813.200195312 108.799804688 c 2
694.299804688 89.599609375 m 0
 725.400390625 110.5 746 146.5 746 187.400390625 c 0
 746 252 694.799804688 304.299804688 631.700195312 304.299804688 c 0
 568.599609375 304.299804688 517.400390625 252 517.400390625 187.400390625 c 0
 517.400390625 122.799804688 568.599609375 70.5 631.700195312 70.5 c 0
 648.5 70.5 664.5 74.2001953125 678.900390625 80.900390625 c 0
 684 84.099609375 689.099609375 87 694.299804688 89.599609375 c 0
EndSplineSet
EndChar

StartChar: uniE15D
Encoding: 57693 57693 60
Width: 1000
Flags: W
HStem: 72.2002 94<888.405 967.595> 211 94<841.394 920.581> 416.7 82.0996<122.7 197.9 295.5 877.3> 566.7 64.2998<815.607 879.786> 701.2 64.2998<815.607 879.793>
VStem: 172 82.9004<-86.5 26.2468> 748.3 64.2998<634.007 698.193> 834 94<218.394 297.606> 881 94<79.6045 158.796> 882.8 64.2998<634.007 698.193>
LayerCount: 2
Fore
SplineSet
847.700195312 765.5 m 4xfe40
 902.5 765.5 947.099609375 720.900390625 947.099609375 666.099609375 c 4
 947.099609375 611.299804688 902.5 566.700195312 847.700195312 566.700195312 c 4
 792.900390625 566.700195312 748.299804688 611.299804688 748.299804688 666.099609375 c 4
 748.299804688 720.900390625 792.900390625 765.5 847.700195312 765.5 c 4xfe40
847.700195312 631 m 4
 867 631 882.799804688 646.700195312 882.799804688 666.099609375 c 4
 882.799804688 685.5 867.099609375 701.200195312 847.700195312 701.200195312 c 4
 828.299804688 701.200195312 812.599609375 685.5 812.599609375 666.099609375 c 4
 812.599609375 646.700195312 828.299804688 631 847.700195312 631 c 4
172 -83.900390625 m 2
 172 84.099609375 177.400390625 251.5 197.900390625 416.700195312 c 1
 122.700195312 416.700195312 l 1
 122.700195312 498.799804688 l 1
 209.599609375 498.799804688 l 1
 225 596.900390625 246.099609375 694.099609375 275.5 790 c 1
 357.099609375 765 l 1
 330.200195312 677 310.200195312 588.400390625 295.5 498.799804688 c 1
 877.299804688 498.799804688 l 1
 877.299804688 416.700195312 l 1
 283.5 416.700195312 l 1
 273 334.299804688 266.400390625 250.900390625 262.900390625 166.400390625 c 1
 335.700195312 254.599609375 424 310.799804688 547.299804688 310.799804688 c 0
 597.799804688 310.799804688 647.900390625 301.400390625 694.599609375 282.799804688 c 0
 703.700195312 279.400390625 712.400390625 275.5 720.599609375 271 c 0
 720.900390625 270.799804688 721.200195312 270.700195312 721.5 270.5 c 0
 805.700195312 224.299804688 845.700195312 122.099609375 811.5 29.400390625 c 0
 773.799804688 -72.900390625 660.299804688 -125.200195312 558 -87.400390625 c 0
 542.200195312 -81.599609375 527.299804688 -73.7998046875 513.5 -64.2001953125 c 1
 560.599609375 3.400390625 l 1
 612.700195312 -32.900390625 684.400390625 -20.099609375 720.700195312 32 c 0
 757 84.099609375 744.200195312 155.799804688 692.099609375 192.099609375 c 0
 689.900390625 193.599609375 687.700195312 195 685.400390625 196.400390625 c 0
 529.200195312 272.5 362.900390625 207.5 286.700195312 51.400390625 c 0
 265.799804688 8.400390625 254.900390625 -38.7001953125 254.900390625 -86.5 c 1
 172 -86.5 l 1
 172 -83.900390625 l 2
881 211 m 0xfe80
 855 211 834 232 834 258 c 0xff
 834 284 855 305 881 305 c 0xfe80
 907 305 928 284 928 258 c 0xff
 928 232 906.900390625 211 881 211 c 0xfe80
881 119.200195312 m 0xfe80
 881 145.157226562 902.04296875 166.200195312 928 166.200195312 c 0xff
 953.95703125 166.200195312 975 145.157226562 975 119.200195312 c 0xfe80
 975 93.2421875 953.95703125 72.2001953125 928 72.2001953125 c 0xff
 902.04296875 72.2001953125 881 93.2421875 881 119.200195312 c 0xfe80
EndSplineSet
EndChar

StartChar: uniE15E
Encoding: 57694 57694 61
Width: 1000
Flags: W
HStem: -91.5996 84.1992<542.8 855.3> 272.7 83.0996<366.947 502.536> 416.7 82.0996<122.7 198.5 296.2 877.4> 566.7 64.2998<815.607 879.786> 701.2 64.2998<815.607 879.793>
VStem: 186.9 130.5<94.5052 223.236> 186.9 87.3994<276.8 413.489> 551.2 83.0996<92.781 223.13> 748.3 64.2998<634.007 698.193> 882.8 64.2998<634.007 698.193>
LayerCount: 2
Fore
SplineSet
847.700195312 765.5 m 4xf9c0
 902.5 765.5 947.099609375 720.900390625 947.099609375 666.099609375 c 4
 947.099609375 611.299804688 902.5 566.700195312 847.700195312 566.700195312 c 4
 792.900390625 566.700195312 748.299804688 611.299804688 748.299804688 666.099609375 c 4
 748.299804688 720.900390625 792.900390625 765.5 847.700195312 765.5 c 4xf9c0
847.700195312 631 m 4
 867 631 882.799804688 646.700195312 882.799804688 666.099609375 c 4
 882.799804688 685.5 867.099609375 701.200195312 847.700195312 701.200195312 c 4
 828.299804688 701.200195312 812.599609375 685.5 812.599609375 666.099609375 c 4
 812.599609375 646.700195312 828.299804688 631 847.700195312 631 c 4
187 210.299804688 m 1
 186.900390625 210.299804688 l 1xfdc0
 187.200195312 279.299804688 191.099609375 348.200195312 198.5 416.700195312 c 1
 122.700195312 416.700195312 l 1
 122.700195312 498.799804688 l 1
 209.099609375 498.799804688 l 1
 223.900390625 597.299804688 246 694.599609375 275.5 790 c 1
 357.599609375 764.700195312 l 1
 330.700195312 677.599609375 310.299804688 588.700195312 296.200195312 498.799804688 c 1
 877.400390625 498.799804688 l 1
 877.400390625 416.700195312 l 1
 285.099609375 416.700195312 l 1
 279.799804688 370.200195312 276.099609375 323.599609375 274.299804688 276.799804688 c 1xfbc0
 310.799804688 324.799804688 368.900390625 355.799804688 434.299804688 355.799804688 c 0
 544.799804688 355.799804688 634.299804688 267.400390625 634.299804688 158.400390625 c 0
 634.299804688 88.900390625 597.799804688 27.7998046875 542.799804688 -7.400390625 c 1
 855.299804688 -7.400390625 l 1
 855.299804688 -91.599609375 l 1
 478.400390625 -91.599609375 l 2
 314.099609375 -88 184.099609375 46 187 210.299804688 c 1
434.299804688 272.700195312 m 0
 369.700195312 272.700195312 317.400390625 221.5 317.400390625 158.400390625 c 0
 317.400390625 95.2998046875 369.700195312 44.099609375 434.299804688 44.099609375 c 0
 498.900390625 44.099609375 551.200195312 95.2998046875 551.200195312 158.400390625 c 0
 551.200195312 221.5 498.900390625 272.700195312 434.299804688 272.700195312 c 0
EndSplineSet
EndChar

StartChar: uniE15F
Encoding: 57695 57695 62
Width: 1000
Flags: W
HStem: -91.5996 84.1992<542.8 855.3> 269.8 94<640.294 719.507 797.004 876.195> 272.7 83.0996<366.947 502.536> 416.7 82.0996<122.7 198.5 296.2 877.4> 566.7 64.2998<815.607 879.786> 701.2 64.2998<815.607 879.793>
VStem: 186.9 130.5<94.5052 223.236> 186.9 87.3994<276.8 413.489> 551.2 83.0996<92.781 223.13> 632.9 94<277.219 356.406> 748.3 64.2998<634.007 698.193> 789.6 94<277.204 356.396> 882.8 64.2998<634.007 698.193>
LayerCount: 2
Fore
SplineSet
847.700195312 765.5 m 4x9c28
 902.5 765.5 947.099609375 720.900390625 947.099609375 666.099609375 c 4
 947.099609375 611.299804688 902.5 566.700195312 847.700195312 566.700195312 c 4
 792.900390625 566.700195312 748.299804688 611.299804688 748.299804688 666.099609375 c 4
 748.299804688 720.900390625 792.900390625 765.5 847.700195312 765.5 c 4x9c28
847.700195312 631 m 4
 867 631 882.799804688 646.700195312 882.799804688 666.099609375 c 4
 882.799804688 685.5 867.099609375 701.200195312 847.700195312 701.200195312 c 4
 828.299804688 701.200195312 812.599609375 685.5 812.599609375 666.099609375 c 4
 812.599609375 646.700195312 828.299804688 631 847.700195312 631 c 4
187 210.299804688 m 1
 186.900390625 210.299804688 l 1xbe80
 187.200195312 279.299804688 191.099609375 348.200195312 198.5 416.700195312 c 1
 122.700195312 416.700195312 l 1
 122.700195312 498.799804688 l 1
 209.099609375 498.799804688 l 1
 223.900390625 597.299804688 246 694.599609375 275.5 790 c 1
 357.599609375 764.700195312 l 1
 330.700195312 677.599609375 310.299804688 588.700195312 296.200195312 498.799804688 c 1
 877.400390625 498.799804688 l 1
 877.400390625 416.700195312 l 1
 285.099609375 416.700195312 l 1
 279.799804688 370.200195312 276.099609375 323.599609375 274.299804688 276.799804688 c 1
 310.799804688 324.799804688 368.900390625 355.799804688 434.299804688 355.799804688 c 0
 544.799804688 355.799804688 634.299804688 267.400390625 634.299804688 158.400390625 c 0xbd80
 634.299804688 88.900390625 597.799804688 27.7998046875 542.799804688 -7.400390625 c 1
 855.299804688 -7.400390625 l 1
 855.299804688 -91.599609375 l 1
 478.400390625 -91.599609375 l 2
 314.099609375 -88 184.099609375 46 187 210.299804688 c 1
434.299804688 272.700195312 m 0
 369.700195312 272.700195312 317.400390625 221.5 317.400390625 158.400390625 c 0
 317.400390625 95.2998046875 369.700195312 44.099609375 434.299804688 44.099609375 c 0
 498.900390625 44.099609375 551.200195312 95.2998046875 551.200195312 158.400390625 c 0
 551.200195312 221.5 498.900390625 272.700195312 434.299804688 272.700195312 c 0
632.900390625 316.799804688 m 0xdc40
 632.900390625 342.799804688 653.900390625 363.799804688 679.900390625 363.799804688 c 0
 705.900390625 363.799804688 726.900390625 342.799804688 726.900390625 316.799804688 c 0
 726.900390625 290.799804688 705.900390625 269.799804688 679.900390625 269.799804688 c 0
 653.900390625 269.799804688 632.900390625 290.900390625 632.900390625 316.799804688 c 0xdc40
789.599609375 316.799804688 m 0xdc10
 789.599609375 342.7578125 810.642578125 363.799804688 836.599609375 363.799804688 c 0
 862.557617188 363.799804688 883.599609375 342.7578125 883.599609375 316.799804688 c 0
 883.599609375 290.842773438 862.557617188 269.799804688 836.599609375 269.799804688 c 0
 810.642578125 269.799804688 789.599609375 290.842773438 789.599609375 316.799804688 c 0xdc10
EndSplineSet
EndChar

StartChar: uniE160
Encoding: 57696 57696 63
Width: 1000
Flags: W
HStem: -102.8 83<190.27 319.73> -29.0996 84.1992<700.895 812.708> 208.8 83.2998<190.27 309.714> 286.6 84.3008<681.491 812.687> 416.7 82.0996<122.7 310.3 394.5 877.4> 566.7 64.2998<815.607 879.786> 701.2 64.2998<815.607 879.793>
VStem: 57.5996 83.1006<29.8652 159.33> 310.3 84.2002<284.2 416.7 498.8 773.2> 369.3 83.1006<29.8203 111.877> 547.1 84.2002<156.249 236.437> 610.3 84.2002<-97.5 -22.0996> 748.3 64.2998<634.007 698.193> 862.9 84.1992<105.258 236.459> 882.8 64.2998<634.007 698.193>
LayerCount: 2
Fore
SplineSet
847.700195312 765.5 m 4x0f0a
 902.5 765.5 947.099609375 720.900390625 947.099609375 666.099609375 c 4
 947.099609375 611.299804688 902.5 566.700195312 847.700195312 566.700195312 c 4
 792.900390625 566.700195312 748.299804688 611.299804688 748.299804688 666.099609375 c 4
 748.299804688 720.900390625 792.900390625 765.5 847.700195312 765.5 c 4x0f0a
847.700195312 631 m 4
 867 631 882.799804688 646.700195312 882.799804688 666.099609375 c 4
 882.799804688 685.5 867.099609375 701.200195312 847.700195312 701.200195312 c 4
 828.299804688 701.200195312 812.599609375 685.5 812.599609375 666.099609375 c 4
 812.599609375 646.700195312 828.299804688 631 847.700195312 631 c 4
255 -102.799804688 m 0x8f5c
 146 -102.799804688 57.599609375 -14.2998046875 57.599609375 94.7001953125 c 0
 57.599609375 203.700195312 146 292.099609375 255 292.099609375 c 0xaf5c
 274.200195312 292.099609375 292.799804688 289.299804688 310.299804688 284.200195312 c 1
 310.299804688 416.700195312 l 1
 122.700195312 416.700195312 l 1
 122.700195312 498.799804688 l 1
 310.299804688 498.799804688 l 1
 310.299804688 773.200195312 l 1
 394.5 773.200195312 l 1
 394.5 498.799804688 l 1
 877.400390625 498.799804688 l 1
 877.400390625 416.700195312 l 1
 394.5 416.700195312 l 1
 394.5 244 l 1
 547.700195312 155.5 l 1
 547.299804688 160.599609375 547.099609375 165.700195312 547.099609375 170.900390625 c 0
 547.099609375 281.400390625 636.599609375 370.900390625 747.099609375 370.900390625 c 0
 857.599609375 370.900390625 947.099609375 281.400390625 947.099609375 170.900390625 c 0
 947.099609375 60.400390625 857.599609375 -29.099609375 747.099609375 -29.099609375 c 0x5fac
 728.900390625 -29.099609375 711.299804688 -26.7001953125 694.5 -22.099609375 c 1
 694.5 -97.5 l 1
 610.299804688 -97.5 l 1
 610.299804688 20.599609375 l 1
 451.599609375 112.200195312 l 1
 452.099609375 106.400390625 452.400390625 100.5 452.400390625 94.599609375 c 0
 452.400390625 -14.400390625 364 -102.799804688 255 -102.799804688 c 0x8f5c
747.099609375 286.599609375 m 0x5f2c
 683.099609375 286.599609375 631.299804688 234.700195312 631.299804688 170.799804688 c 0
 631.299804688 137 645.900390625 106.599609375 669 85.400390625 c 2
 706.5 63.7001953125 l 1
 705.900390625 62.599609375 l 1
 718.700195312 57.7998046875 732.599609375 55.099609375 747.099609375 55.099609375 c 0
 811.099609375 55.099609375 862.900390625 106.799804688 862.900390625 170.799804688 c 0
 862.900390625 234.799804688 811 286.599609375 747.099609375 286.599609375 c 0x5f2c
255 208.799804688 m 0xaf48
 191.900390625 208.799804688 140.700195312 157.599609375 140.700195312 94.5 c 0
 140.700195312 31.400390625 191.900390625 -19.7998046875 255 -19.7998046875 c 0
 318.099609375 -19.7998046875 369.299804688 31.400390625 369.299804688 94.5 c 0
 369.299804688 132.200195312 351 165.599609375 322.900390625 186.5 c 2
 300.5 199.400390625 l 2
 286.5 205.400390625 271.200195312 208.799804688 255 208.799804688 c 0xaf48
EndSplineSet
EndChar

StartChar: uniE161
Encoding: 57697 57697 64
Width: 1000
Flags: W
HStem: -99.7002 83.1006<561.621 691.08> 211.9 98.8994<487.982 676.716> 416.7 82.0996<122.7 198 296 877.4> 566.7 64.2998<815.607 879.786> 701.2 64.2998<815.607 879.793>
VStem: 172 82.9004<-86.5 26.167> 198 86.0996<170.296 416.7> 429 83<32.9705 164.11> 740.6 83.2002<32.9374 164.044> 748.3 64.2998<634.007 698.193> 882.8 64.2998<634.007 698.193> 888 79.9004<105.2 200.603>
LayerCount: 2
Fore
SplineSet
847.700195312 765.5 m 4xf960
 902.5 765.5 947.099609375 720.900390625 947.099609375 666.099609375 c 4
 947.099609375 611.299804688 902.5 566.700195312 847.700195312 566.700195312 c 4
 792.900390625 566.700195312 748.299804688 611.299804688 748.299804688 666.099609375 c 4
 748.299804688 720.900390625 792.900390625 765.5 847.700195312 765.5 c 4xf960
847.700195312 631 m 4
 867 631 882.799804688 646.700195312 882.799804688 666.099609375 c 4
 882.799804688 685.5 867.099609375 701.200195312 847.700195312 701.200195312 c 4
 828.299804688 701.200195312 812.599609375 685.5 812.599609375 666.099609375 c 4
 812.599609375 646.700195312 828.299804688 631 847.700195312 631 c 4
172 -83.900390625 m 2xfd80
 172 83.900390625 177.5 251.5 198 416.700195312 c 1
 122.700195312 416.700195312 l 1
 122.700195312 498.799804688 l 1
 209.599609375 498.799804688 l 1
 225 597 246.200195312 694.200195312 275.5 790 c 1
 357.099609375 765 l 1
 330.599609375 678.200195312 310.700195312 589 296 498.799804688 c 1
 877.400390625 498.799804688 l 1
 877.400390625 416.700195312 l 1
 284.099609375 416.700195312 l 1xfb
 273.400390625 333.400390625 266.700195312 249.5 263 166.400390625 c 1
 335.900390625 250.700195312 427.299804688 310.799804688 547.400390625 310.799804688 c 0
 594.900390625 310.799804688 642 302.200195312 686.299804688 285.700195312 c 0
 698.400390625 281.799804688 710 276.799804688 721 270.799804688 c 2
 721.599609375 270.5 l 2
 782.5 236.900390625 823.700195312 172.099609375 823.799804688 97.7001953125 c 0
 823.799804688 -11.2998046875 735.400390625 -99.7001953125 626.400390625 -99.7001953125 c 0
 517.400390625 -99.7001953125 429 -11.2998046875 429 97.7001953125 c 0
 429 143.099609375 444.400390625 184.900390625 470.200195312 218.299804688 c 1
 383.700195312 196.299804688 329 137.799804688 286.799804688 51.2998046875 c 0
 271.799804688 20.7001953125 262 -12.099609375 257.599609375 -45.7001953125 c 0
 255.599609375 -58.599609375 254.900390625 -71.2001953125 254.900390625 -83.900390625 c 2
 254.900390625 -86.5 l 1
 172 -86.5 l 1
 172 -83.900390625 l 2xfd80
626.299804688 211.900390625 m 0
 563.200195312 211.900390625 512 160.799804688 512 97.7001953125 c 0
 512 34.599609375 563.200195312 -16.599609375 626.299804688 -16.599609375 c 0
 689.400390625 -16.599609375 740.599609375 34.5 740.599609375 97.599609375 c 0xf980
 740.599609375 141.700195312 715.599609375 180 679 199 c 0
 673.900390625 201.400390625 668.799804688 203.599609375 663.700195312 205.599609375 c 0
 652 209.700195312 639.400390625 211.900390625 626.299804688 211.900390625 c 0
831.400390625 263.5 m 1
 831.299804688 263.5 l 1
 897 309.200195312 l 1
 943.400390625 242.400390625 965.299804688 179.5 967.900390625 105.200195312 c 1
 888 102.400390625 l 1xf910
 885.900390625 162 869.5 208.599609375 831.400390625 263.5 c 1
EndSplineSet
EndChar

StartChar: uniE162
Encoding: 57698 57698 65
Width: 1000
Flags: W
HStem: 416.7 82.0996<122.7 197.9 295.5 877.3> 566.7 64.2998<815.607 879.786> 701.2 64.2998<815.607 879.793>
VStem: 172 82.9004<-86.5 26.2468> 748.3 64.2998<634.007 698.193> 882.8 64.2998<634.007 698.193> 888 79.9004<105.2 200.603>
LayerCount: 2
Fore
SplineSet
847.700195312 765.5 m 4xfc
 902.5 765.5 947.099609375 720.900390625 947.099609375 666.099609375 c 4
 947.099609375 611.299804688 902.5 566.700195312 847.700195312 566.700195312 c 4
 792.900390625 566.700195312 748.299804688 611.299804688 748.299804688 666.099609375 c 4
 748.299804688 720.900390625 792.900390625 765.5 847.700195312 765.5 c 4xfc
847.700195312 631 m 4
 867 631 882.799804688 646.700195312 882.799804688 666.099609375 c 4
 882.799804688 685.5 867.099609375 701.200195312 847.700195312 701.200195312 c 4
 828.299804688 701.200195312 812.599609375 685.5 812.599609375 666.099609375 c 4
 812.599609375 646.700195312 828.299804688 631 847.700195312 631 c 4
172 -83.900390625 m 2
 172 84.099609375 177.400390625 251.5 197.900390625 416.700195312 c 1
 122.700195312 416.700195312 l 1
 122.700195312 498.799804688 l 1
 209.599609375 498.799804688 l 1
 225 596.900390625 246.099609375 694.099609375 275.5 790 c 1
 357.099609375 765 l 1
 330.200195312 677 310.200195312 588.400390625 295.5 498.799804688 c 1
 877.299804688 498.799804688 l 1
 877.299804688 416.700195312 l 1
 283.5 416.700195312 l 1
 273 334.299804688 266.400390625 250.900390625 262.900390625 166.400390625 c 1
 335.700195312 254.599609375 424 310.799804688 547.299804688 310.799804688 c 0
 597.799804688 310.799804688 647.900390625 301.400390625 694.599609375 282.799804688 c 0
 703.700195312 279.400390625 712.400390625 275.5 720.599609375 271 c 0
 720.900390625 270.799804688 721.200195312 270.700195312 721.5 270.5 c 0
 805.700195312 224.299804688 845.700195312 122.099609375 811.5 29.400390625 c 0
 773.799804688 -72.900390625 660.299804688 -125.200195312 558 -87.400390625 c 0
 542.200195312 -81.599609375 527.299804688 -73.7998046875 513.5 -64.2001953125 c 1
 560.599609375 3.400390625 l 1
 612.700195312 -32.900390625 684.400390625 -20.099609375 720.700195312 32 c 0
 757 84.099609375 744.200195312 155.799804688 692.099609375 192.099609375 c 0
 689.900390625 193.599609375 687.700195312 195 685.400390625 196.400390625 c 0
 529.200195312 272.5 362.900390625 207.5 286.700195312 51.400390625 c 0
 265.799804688 8.400390625 254.900390625 -38.7001953125 254.900390625 -86.5 c 1
 172 -86.5 l 1
 172 -83.900390625 l 2
831.400390625 263.5 m 1
 831.299804688 263.5 l 1
 897 309.200195312 l 1
 943.400390625 242.400390625 965.299804688 179.5 967.900390625 105.200195312 c 1
 888 102.400390625 l 1xfa
 885.900390625 162 869.5 208.599609375 831.400390625 263.5 c 1
EndSplineSet
EndChar

StartChar: uniE163
Encoding: 57699 57699 66
Width: 1000
Flags: W
HStem: -100.6 83.0996<169.42 300.336> 211.1 83.1006<169.42 300.873> 275.9 82.0996<633.4 817.3> 416.7 82.0996<122.7 309.1 394.7 877.3> 566.7 64.2998<815.607 879.786> 701.2 64.2998<815.607 879.793>
VStem: 36.7998 83<32.0703 161.53> 308.8 85.9004<279.6 416.7 498.8 773.2> 748.3 64.2998<634.007 698.193> 882.8 64.2998<634.007 698.193>
LayerCount: 2
Fore
SplineSet
847.700195312 765.5 m 4x9fc0
 902.5 765.5 947.099609375 720.900390625 947.099609375 666.099609375 c 4
 947.099609375 611.299804688 902.5 566.700195312 847.700195312 566.700195312 c 4
 792.900390625 566.700195312 748.299804688 611.299804688 748.299804688 666.099609375 c 4
 748.299804688 720.900390625 792.900390625 765.5 847.700195312 765.5 c 4x9fc0
847.700195312 631 m 4
 867 631 882.799804688 646.700195312 882.799804688 666.099609375 c 4
 882.799804688 685.5 867.099609375 701.200195312 847.700195312 701.200195312 c 4
 828.299804688 701.200195312 812.599609375 685.5 812.599609375 666.099609375 c 4
 812.599609375 646.700195312 828.299804688 631 847.700195312 631 c 4
633.400390625 275.900390625 m 1xbfc0
 633.400390625 358 l 1
 817.299804688 358 l 1
 817.299804688 275.900390625 l 1
 633.400390625 275.900390625 l 1xbfc0
694 2.7001953125 m 0
 772.5 4.7001953125 847.299804688 36.099609375 903.700195312 90.7001953125 c 1
 963.200195312 29.400390625 l 1
 805.400390625 -123.599609375 573.5 -139.599609375 420.599609375 18.2001953125 c 0
 419.400390625 19.5 418.099609375 20.7998046875 416.900390625 22.099609375 c 1
 387.5 -49.900390625 316.799804688 -100.599609375 234.200195312 -100.599609375 c 0
 125.200195312 -100.599609375 36.7998046875 -12.2001953125 36.7998046875 96.7998046875 c 0
 36.7998046875 205.799804688 125.200195312 294.200195312 234.200195312 294.200195312 c 0xdfc0
 260.599609375 294.200195312 285.799804688 289 308.799804688 279.599609375 c 1
 308.700195312 281.5 308.599609375 283.400390625 308.599609375 285.299804688 c 2
 309.099609375 416.700195312 l 1
 122.700195312 416.700195312 l 1
 122.700195312 498.799804688 l 1
 309.400390625 498.799804688 l 1
 310.5 773.200195312 l 1
 394.700195312 773.200195312 l 1
 394.700195312 498.799804688 l 1
 877.299804688 498.799804688 l 1
 877.299804688 416.700195312 l 1
 394.700195312 416.700195312 l 1
 394.700195312 273.400390625 l 2
 406.099609375 107.599609375 526.200195312 -1.400390625 694 2.7001953125 c 0
234.099609375 -17.5 m 0
 297.200195312 -17.5 348.400390625 33.7001953125 348.400390625 96.7998046875 c 0
 348.400390625 111.700195312 345.599609375 125.900390625 340.299804688 138.900390625 c 0
 339.799804688 140.299804688 339.200195312 141.700195312 338.599609375 143.099609375 c 0
 320.900390625 183.099609375 280.799804688 211.099609375 234.099609375 211.099609375 c 0
 171 211.099609375 119.799804688 159.900390625 119.799804688 96.7998046875 c 0
 119.799804688 33.7001953125 171 -17.5 234.099609375 -17.5 c 0
EndSplineSet
EndChar

StartChar: uniE164
Encoding: 57700 57700 67
Width: 1000
Flags: W
HStem: -20.7002 83<314.99 450.715> 275.9 82.0996<633.4 817.3> 290.9 83.0996<314.943 450.716> 416.7 82.0996<122.7 198.1 295.5 877.3> 566.7 64.2998<815.607 879.786> 701.2 64.2998<815.607 879.793>
VStem: 172 82.9004<-86.5 16.0829> 499.4 83.0996<111.92 241.374> 748.3 64.2998<634.007 698.193> 882.8 64.2998<634.007 698.193>
LayerCount: 2
Fore
SplineSet
847.700195312 765.5 m 4x9fc0
 902.5 765.5 947.099609375 720.900390625 947.099609375 666.099609375 c 4
 947.099609375 611.299804688 902.5 566.700195312 847.700195312 566.700195312 c 4
 792.900390625 566.700195312 748.299804688 611.299804688 748.299804688 666.099609375 c 4
 748.299804688 720.900390625 792.900390625 765.5 847.700195312 765.5 c 4x9fc0
847.700195312 631 m 4
 867 631 882.799804688 646.700195312 882.799804688 666.099609375 c 4
 882.799804688 685.5 867.099609375 701.200195312 847.700195312 701.200195312 c 4
 828.299804688 701.200195312 812.599609375 685.5 812.599609375 666.099609375 c 4
 812.599609375 646.700195312 828.299804688 631 847.700195312 631 c 4
633.400390625 275.900390625 m 1xdfc0
 633.400390625 358 l 1
 817.299804688 358 l 1
 817.299804688 275.900390625 l 1
 633.400390625 275.900390625 l 1xdfc0
172 -86.5 m 1
 172 81.7998046875 177.5 250.5 198.099609375 416.700195312 c 1
 122.700195312 416.700195312 l 1
 122.700195312 498.799804688 l 1
 209.700195312 498.799804688 l 1
 225.099609375 597.099609375 246.200195312 694.299804688 275.5 790 c 1
 357 765 l 1
 330.400390625 678.099609375 310.299804688 589.400390625 295.5 498.799804688 c 1
 877.299804688 498.799804688 l 1
 877.299804688 416.700195312 l 1
 283.599609375 416.700195312 l 2
 280.5 391.900390625 277.5 367.099609375 275 342 c 1
 302.299804688 360.799804688 346.900390625 374 382.5 374 c 0xbfc0
 492.900390625 374 582.5 285.700195312 582.5 176.700195312 c 0
 582.5 67.7001953125 493 -20.7001953125 382.5 -20.7001953125 c 0
 333.599609375 -20.7001953125 293.099609375 -9.7001953125 258.400390625 19 c 1
 257 -17.400390625 254.900390625 -50.099609375 254.900390625 -86.5 c 1
 172 -86.5 l 1
382.5 290.900390625 m 0
 317.900390625 290.900390625 265.599609375 239.700195312 265.599609375 176.599609375 c 0
 265.599609375 113.5 318 62.2998046875 382.5 62.2998046875 c 0
 447 62.2998046875 499.400390625 113.5 499.400390625 176.599609375 c 0
 499.400390625 239.700195312 447.099609375 290.900390625 382.5 290.900390625 c 0
EndSplineSet
EndChar

StartChar: uniE165
Encoding: 57701 57701 68
Width: 1000
Flags: W
HStem: -93 85.5996<397.798 585.569> 275.9 82.0996<540.2 724.1> 416.7 82.0996<122.7 198.5 296 877.4> 566.7 64.2998<815.607 879.786> 701.2 64.2998<815.607 879.793>
VStem: 186.9 86<116.252 413.381> 748.3 64.2998<634.007 698.193> 788.6 84.2002<-86.4004 58.2998 194.485 299.5> 882.8 64.2998<634.007 698.193>
LayerCount: 2
Fore
SplineSet
847.700195312 765.5 m 4xfe80
 902.5 765.5 947.099609375 720.900390625 947.099609375 666.099609375 c 4
 947.099609375 611.299804688 902.5 566.700195312 847.700195312 566.700195312 c 4
 792.900390625 566.700195312 748.299804688 611.299804688 748.299804688 666.099609375 c 4
 748.299804688 720.900390625 792.900390625 765.5 847.700195312 765.5 c 4xfe80
847.700195312 631 m 4
 867 631 882.799804688 646.700195312 882.799804688 666.099609375 c 4
 882.799804688 685.5 867.099609375 701.200195312 847.700195312 701.200195312 c 4
 828.299804688 701.200195312 812.599609375 685.5 812.599609375 666.099609375 c 4
 812.599609375 646.700195312 828.299804688 631 847.700195312 631 c 4
187 203.099609375 m 1
 186.900390625 203.099609375 l 1
 186.900390625 274.599609375 190.900390625 345.900390625 198.5 416.700195312 c 1
 122.700195312 416.700195312 l 1
 122.700195312 498.799804688 l 1
 209.099609375 498.799804688 l 1
 223.900390625 597.299804688 246 694.599609375 275.5 790 c 1
 357.5 764.700195312 l 1
 330.599609375 677.5 310.099609375 588.700195312 296 498.799804688 c 1
 877.400390625 498.799804688 l 1
 877.400390625 416.700195312 l 1
 285 416.700195312 l 1
 277.200195312 347.799804688 273.099609375 278.400390625 272.900390625 208.799804688 c 0
 270.900390625 93.7001953125 361.700195312 -1.7001953125 476.099609375 -7.400390625 c 2
 480.700195312 -7.400390625 l 2
 649.099609375 -5 785.599609375 130.599609375 788.599609375 299.5 c 1
 872.799804688 300 l 1
 872.799804688 -86.400390625 l 1
 788.599609375 -86.400390625 l 1
 788.599609375 58.2998046875 l 1xfd80
 716 -33.599609375 603.700195312 -92.5 477.799804688 -93 c 0
 315.900390625 -89.5 187.900390625 42 187 203.099609375 c 1
540.200195312 275.900390625 m 1
 540.200195312 358 l 1
 724.099609375 358 l 1
 724.099609375 275.900390625 l 1
 540.200195312 275.900390625 l 1
EndSplineSet
EndChar

StartChar: uniE166
Encoding: 57702 57702 69
Width: 1000
HStem: -99.7002 83.1006<673.42 802.88> -86.5 83.4004<10.7002 99.2455> 211.9 98.8994<599.782 788.516>
VStem: 283.8 82.9004<-86.5 27.9594> 540.8 83<32.9705 164.11> 852.4 83.1992<32.9374 164.044>
LayerCount: 2
Fore
SplineSet
286.599609375 100.599609375 m 1x7c
 286.599609375 100.5 l 1
 242.200195312 -11.5 133.200195312 -86.900390625 10.7001953125 -87.7998046875 c 1
 10 -3.099609375 l 1x7c
 103.5 -2.2998046875 185.400390625 59 212.599609375 147.900390625 c 2
 357.5 680.799804688 l 2
 365.5 713.900390625 374.5 746.799804688 384.299804688 779.599609375 c 2
 385.700195312 784.799804688 l 2
 386.299804688 786.5 386.799804688 788.299804688 387.299804688 790 c 1
 468.900390625 764.900390625 l 1
 469.400390625 764.700195312 l 2
 464.799804688 749.900390625 459.799804688 733.099609375 454.5 714.900390625 c 0
 405.700195312 537 382.900390625 350 374.799804688 166.400390625 c 1
 447.700195312 250.700195312 539.099609375 310.799804688 659.200195312 310.799804688 c 0
 706.700195312 310.799804688 753.799804688 302.200195312 798.099609375 285.700195312 c 0
 810.200195312 281.799804688 821.799804688 276.799804688 832.799804688 270.799804688 c 2
 833.400390625 270.5 l 2
 894.299804688 236.900390625 935.5 172.099609375 935.599609375 97.7001953125 c 0
 935.599609375 -11.2998046875 847.200195312 -99.7001953125 738.200195312 -99.7001953125 c 0xbc
 629.200195312 -99.7001953125 540.799804688 -11.2998046875 540.799804688 97.7001953125 c 0
 540.799804688 143.099609375 556.200195312 184.900390625 582 218.299804688 c 1
 495.5 196.299804688 440.799804688 137.799804688 398.599609375 51.2998046875 c 0
 383.599609375 20.7001953125 373.799804688 -12.099609375 369.400390625 -45.7001953125 c 0
 367.400390625 -58.599609375 366.700195312 -71.2001953125 366.700195312 -83.900390625 c 2
 366.700195312 -86.5 l 1
 283.799804688 -86.5 l 1
 283.799804688 -83.900390625 l 2
 283.799804688 -22.2998046875 284.700195312 39.2001953125 286.599609375 100.599609375 c 1x7c
738.099609375 211.900390625 m 0
 675 211.900390625 623.799804688 160.799804688 623.799804688 97.7001953125 c 0
 623.799804688 34.599609375 675 -16.599609375 738.099609375 -16.599609375 c 0xbc
 801.200195312 -16.599609375 852.400390625 34.5 852.400390625 97.599609375 c 0
 852.400390625 141.700195312 827.400390625 180 790.799804688 199 c 0
 785.700195312 201.400390625 780.599609375 203.599609375 775.5 205.599609375 c 0
 763.799804688 209.700195312 751.200195312 211.900390625 738.099609375 211.900390625 c 0
EndSplineSet
EndChar

StartChar: uniE167
Encoding: 57703 57703 70
Width: 1000
HStem: -86.5 83.5<10.7998 99.4017>
VStem: 283.9 82.8994<-86.5 28.8824>
LayerCount: 2
Fore
SplineSet
286.599609375 100.700195312 m 1
 286.700195312 100.700195312 l 1
 242.400390625 -11.2998046875 133.400390625 -86.7998046875 10.7998046875 -87.7001953125 c 1
 10.099609375 -3 l 1
 103.599609375 -2.2001953125 185.5 59.099609375 212.700195312 148 c 2
 357.200195312 679.799804688 l 2
 365.299804688 713.299804688 374.400390625 746.700195312 384.400390625 779.900390625 c 2
 385.700195312 784.799804688 l 2
 386.299804688 786.5 386.799804688 788.299804688 387.299804688 790 c 1
 468.900390625 764.900390625 l 1
 469.400390625 764.700195312 l 2
 464.5 748.900390625 459.200195312 731 453.5 711.5 c 0
 404.799804688 533.700195312 382.599609375 352.900390625 374.799804688 166.400390625 c 1
 447.599609375 254.599609375 535.900390625 310.799804688 659.200195312 310.799804688 c 0
 709.700195312 310.799804688 759.799804688 301.400390625 806.5 282.799804688 c 0
 815.599609375 279.400390625 824.299804688 275.5 832.5 271 c 0
 832.799804688 270.799804688 833.099609375 270.700195312 833.400390625 270.5 c 0
 917.599609375 224.299804688 957.599609375 122.099609375 923.400390625 29.400390625 c 0
 885.700195312 -72.900390625 772.200195312 -125.200195312 669.900390625 -87.400390625 c 0
 654.099609375 -81.599609375 639.200195312 -73.7998046875 625.400390625 -64.2001953125 c 1
 672.5 3.400390625 l 1
 724.599609375 -32.900390625 796.299804688 -20.099609375 832.599609375 32 c 0
 868.900390625 84.099609375 856.099609375 155.799804688 804 192.099609375 c 0
 801.799804688 193.599609375 799.599609375 195 797.299804688 196.400390625 c 0
 641.099609375 272.5 474.799804688 207.5 398.599609375 51.400390625 c 0
 377.700195312 8.400390625 366.799804688 -38.7001953125 366.799804688 -86.5 c 1
 283.900390625 -86.5 l 1
 283.900390625 -83.900390625 l 2
 283.900390625 -22.2001953125 284.700195312 39.2998046875 286.599609375 100.700195312 c 1
EndSplineSet
EndChar

StartChar: uniE168
Encoding: 57704 57704 71
Width: 1000
HStem: -103 85.4004<834.762 947.2> -100.7 83<12.9004 95.7545 410.218 541.19> 210.9 83.0996<452.769 542.625>
VStem: 547.1 89.4004<280.8 456.9 620.494 773>
LayerCount: 2
Fore
SplineSet
289.5 31.900390625 m 1x70
 218.400390625 -44.099609375 119.299804688 -90.2001953125 12.900390625 -93.900390625 c 1
 10 -11 l 1
 109.799804688 -7.5 200.400390625 43.7001953125 256.700195312 125.099609375 c 2
 477.400390625 507.400390625 l 2
 523.700195312 585.900390625 547 676.5 547 767.700195312 c 2
 547 773 l 1
 636.5 773 l 1
 636.5 257.700195312 l 2
 654.900390625 102.099609375 787.299804688 -17.7998046875 947.200195312 -17.599609375 c 1
 947.200195312 -103 l 1xb0
 833.700195312 -103.099609375 731 -55.599609375 658.299804688 20.900390625 c 1
 628.599609375 -50.5 562.299804688 -100.700195312 476 -100.700195312 c 0
 389.700195312 -100.700195312 316.299804688 -45.2998046875 289.5 31.900390625 c 1x70
547.099609375 456.900390625 m 1
 452.200195312 292.599609375 l 1
 460 293.5 467.900390625 294 476 294 c 0
 501.099609375 294 525.099609375 289.299804688 547.099609375 280.799804688 c 1
 547.099609375 456.900390625 l 1
476 210.900390625 m 0
 412.900390625 210.900390625 361.700195312 159.700195312 361.700195312 96.599609375 c 0
 361.700195312 33.5 412.900390625 -17.7001953125 476 -17.7001953125 c 0x70
 539.099609375 -17.7001953125 590.299804688 33.5 590.299804688 96.599609375 c 0
 590.299804688 106.700195312 589 116.5 586.5 125.799804688 c 0
 584 136.5 579.5 146.200195312 574 155.400390625 c 0
 554.099609375 188.599609375 517.599609375 210.900390625 476 210.900390625 c 0
EndSplineSet
EndChar

StartChar: uniE169
Encoding: 57705 57705 72
Width: 1000
HStem: -86.5 83.5<10.7002 99.1001> -20.7002 83<426.54 562.264> 290.9 83.0996<426.493 562.266>
VStem: 283.5 82.9004<-86.5 19> 611 83<111.92 241.374>
LayerCount: 2
Fore
SplineSet
286.299804688 99.7998046875 m 1xb8
 241.799804688 -11.7001953125 133 -86.7998046875 10.7001953125 -87.7001953125 c 1
 10 -3 l 1xb8
 103.5 -2.2001953125 185.400390625 59.099609375 212.599609375 148 c 2
 355.299804688 672.799804688 l 2
 364.700195312 712.099609375 375.099609375 751.200195312 387 790 c 2
 387.299804688 790 l 1
 441.200195312 773.400390625 l 1
 468.599609375 765 l 1
 469.400390625 764.700195312 l 2
 463.5 745.599609375 456.900390625 723.299804688 449.799804688 698.900390625 c 0
 418.900390625 583.200195312 398.700195312 464.599609375 386.5 342 c 1
 413.799804688 360.799804688 458.400390625 374 494 374 c 0
 604.400390625 374 694 285.700195312 694 176.700195312 c 0
 694 67.7001953125 604.5 -20.7001953125 494 -20.7001953125 c 0x78
 445.099609375 -20.7001953125 404.599609375 -9.7001953125 369.900390625 19 c 1
 368.5 -17.400390625 366.400390625 -50.099609375 366.400390625 -86.5 c 1
 283.5 -86.5 l 1
 283.5 -24.400390625 284.299804688 37.7001953125 286.299804688 99.7998046875 c 1xb8
494.099609375 290.900390625 m 0
 429.5 290.900390625 377.200195312 239.700195312 377.200195312 176.599609375 c 0
 377.200195312 113.5 429.599609375 62.2998046875 494.099609375 62.2998046875 c 0x78
 558.599609375 62.2998046875 611 113.5 611 176.599609375 c 0
 611 239.700195312 558.700195312 290.900390625 494.099609375 290.900390625 c 0
EndSplineSet
EndChar

StartChar: uniE16A
Encoding: 57706 57706 73
Width: 1000
HStem: -87.4004 84.7002<10.7002 99.0717 489.029 659.179>
VStem: 798.4 84.1992<228.968 298.1>
LayerCount: 2
Fore
SplineSet
882.599609375 240.400390625 m 1
 972.400390625 196.200195312 1016.20019531 91.599609375 981.099609375 -3.5 c 0
 943.299804688 -105.900390625 828.5 -158.700195312 724.700195312 -121.400390625 c 0
 700.900390625 -112.900390625 679.099609375 -100 660.299804688 -83.5 c 0
 636.400390625 -89.7001953125 611.400390625 -93 585.599609375 -93 c 0
 439.200195312 -93.2001953125 327.400390625 12 301.799804688 151 c 1
 294.299804688 122.900390625 l 2
 256.200195312 -1.099609375 141.099609375 -86.400390625 10.7001953125 -87.400390625 c 1
 10 -2.7001953125 l 1
 103.5 -2 185.400390625 59.400390625 212.599609375 148.200195312 c 2
 384.900390625 785.200195312 l 2
 385.400390625 786.900390625 385.900390625 788.5 386.400390625 790.200195312 c 1
 468.5 765 l 1
 412.400390625 583.099609375 383.799804688 393.900390625 383.799804688 203.5 c 0
 384.799804688 88.599609375 466.099609375 -5.2998046875 581.599609375 -7.2998046875 c 0
 699 -9.400390625 796.299804688 84.099609375 798.400390625 201.5 c 2
 798.400390625 298.099609375 l 1
 882.599609375 298.099609375 l 1
 882.599609375 240.400390625 l 1
867.900390625 -24.5 m 0
 917.900390625 15.900390625 924.900390625 88.2001953125 883.5 137 c 0
 881.599609375 139.400390625 879.5 141.599609375 877.299804688 143.799804688 c 1
 861.099609375 66.099609375 814.599609375 -0.5 750.700195312 -43.099609375 c 1
 789 -57.599609375 834 -51.900390625 867.900390625 -24.5 c 0
EndSplineSet
EndChar

StartChar: uniE16B
Encoding: 57707 57707 74
Width: 1000
HStem: -93.0996 158.5<559.574 685.935> -87.5 84.7002<9.90039 98.2719> 294 83.0996<556.62 687.075>
VStem: 423.9 83.1992<113.13 244.43> 735.7 151.399<113.545 245.855> 797.6 89.5<-91.2998 -5.59961 268.5 300>
LayerCount: 2
Fore
SplineSet
797.599609375 268.5 m 1x74
 797.599609375 300 l 1
 887.099609375 300 l 1
 887.099609375 -91.2998046875 l 1
 797.599609375 -91.2998046875 l 1
 797.599609375 -5.599609375 l 1
 743.700195312 -59.599609375 669.200195312 -93 586.900390625 -93.099609375 c 0xb4
 438.900390625 -93.2998046875 325.900390625 14.2998046875 302.299804688 155.700195312 c 1
 293.5 122.799804688 l 2
 255.400390625 -1.2001953125 140.299804688 -86.5 9.900390625 -87.5 c 1
 9.2001953125 -2.7998046875 l 1
 102.700195312 -2 184.599609375 59.2998046875 211.799804688 148.200195312 c 2
 384.099609375 785.200195312 l 2
 384.599609375 786.900390625 385.099609375 788.5 385.599609375 790.200195312 c 1
 467.700195312 764.900390625 l 1
 412.099609375 584.799804688 383.599609375 397.5 383 209 c 0
 381.200195312 103 448.200195312 13.7001953125 549.400390625 -4.2001953125 c 1
 475.900390625 24.599609375 423.900390625 96.099609375 423.900390625 179.700195312 c 0
 423.900390625 288.700195312 512.299804688 377.099609375 621.299804688 377.099609375 c 0
 698.400390625 377.099609375 765.099609375 332.900390625 797.599609375 268.5 c 1x74
621.400390625 65.400390625 m 0
 684.5 65.400390625 735.700195312 116.599609375 735.700195312 179.700195312 c 0xb8
 735.700195312 242.799804688 684.5 294 621.400390625 294 c 0
 558.299804688 294 507.099609375 242.799804688 507.099609375 179.700195312 c 0
 507.099609375 116.599609375 558.299804688 65.400390625 621.400390625 65.400390625 c 0
EndSplineSet
EndChar

StartChar: uniE16C
Encoding: 57708 57708 75
Width: 1000
HStem: -84.2002 84.7002<10.7002 99.0717 490.021 686.745>
VStem: 799.3 84.1006<-82.7998 -0.599609 117.589 301.4>
LayerCount: 2
Fore
SplineSet
883.5 301.400390625 m 1
 883.400390625 301.400390625 l 1
 883.400390625 208.900390625 l 2
 883.400390625 199.200195312 883.799804688 191.200195312 883.400390625 180.200195312 c 2
 883.400390625 -82.7998046875 l 1
 799.200195312 -82.7998046875 l 1
 799.200195312 -0.599609375 l 1
 745.099609375 -55.599609375 669.900390625 -89.900390625 586.700195312 -89.900390625 c 0
 439.5 -90.099609375 327 16.400390625 302.5 156.700195312 c 1
 294.299804688 126.099609375 l 2
 256.200195312 2.099609375 141.099609375 -83.2001953125 10.7001953125 -84.2001953125 c 1
 10 0.5 l 1
 103.5 1.2998046875 185.400390625 62.599609375 212.599609375 151.5 c 2
 385.700195312 788.299804688 l 2
 386.299804688 790 386.799804688 791.799804688 387.299804688 793.5 c 1
 469.400390625 768.200195312 l 1
 413.299804688 586.299804688 384.700195312 397.099609375 384.700195312 206.700195312 c 0
 385.599609375 91.7998046875 467.200195312 -2.099609375 582.700195312 -4.099609375 c 0
 700.200195312 -6.2001953125 797.200195312 87.2998046875 799.299804688 204.799804688 c 2
 799.299804688 301.400390625 l 1
 883.5 301.400390625 l 1
EndSplineSet
EndChar

StartChar: uniE177
Encoding: 57719 57719 76
Width: 1000
Flags: W
HStem: -99.7002 83.1006<673.42 802.88> -86.5 83.4004<10.7002 99.2455> 211.9 98.8994<599.782 788.516>
VStem: 283.8 82.9004<-86.5 27.9594> 540.8 83<32.9705 164.11> 852.4 83.1992<32.9374 164.044>
LayerCount: 2
Fore
SplineSet
863.7265625 584.807617188 m 5x3c
 829.9609375 765.581054688 l 5
 910.665039062 780.655273438 l 5
 944.430664062 599.881835938 l 5
 863.7265625 584.807617188 l 5x3c
286.599609375 100.599609375 m 1
 286.599609375 100.5 l 1
 242.200195312 -11.5 133.200195312 -86.900390625 10.7001953125 -87.7998046875 c 1
 10 -3.099609375 l 1x7c
 103.5 -2.2998046875 185.400390625 59 212.599609375 147.900390625 c 2
 357.5 680.799804688 l 2
 365.5 713.900390625 374.5 746.799804688 384.299804688 779.599609375 c 2
 385.700195312 784.799804688 l 2
 386.299804688 786.5 386.799804688 788.299804688 387.299804688 790 c 1
 468.900390625 764.900390625 l 1
 469.400390625 764.700195312 l 2
 464.799804688 749.900390625 459.799804688 733.099609375 454.5 714.900390625 c 0
 405.700195312 537 382.900390625 350 374.799804688 166.400390625 c 1
 447.700195312 250.700195312 539.099609375 310.799804688 659.200195312 310.799804688 c 0
 706.700195312 310.799804688 753.799804688 302.200195312 798.099609375 285.700195312 c 0
 810.200195312 281.799804688 821.799804688 276.799804688 832.799804688 270.799804688 c 2
 833.400390625 270.5 l 2
 894.299804688 236.900390625 935.5 172.099609375 935.599609375 97.7001953125 c 0
 935.599609375 -11.2998046875 847.200195312 -99.7001953125 738.200195312 -99.7001953125 c 0xbc
 629.200195312 -99.7001953125 540.799804688 -11.2998046875 540.799804688 97.7001953125 c 0
 540.799804688 143.099609375 556.200195312 184.900390625 582 218.299804688 c 1
 495.5 196.299804688 440.799804688 137.799804688 398.599609375 51.2998046875 c 0
 383.599609375 20.7001953125 373.799804688 -12.099609375 369.400390625 -45.7001953125 c 0
 367.400390625 -58.599609375 366.700195312 -71.2001953125 366.700195312 -83.900390625 c 2
 366.700195312 -86.5 l 1
 283.799804688 -86.5 l 1x7c
 283.799804688 -83.900390625 l 2
 283.799804688 -22.2998046875 284.700195312 39.2001953125 286.599609375 100.599609375 c 1
738.099609375 211.900390625 m 0
 675 211.900390625 623.799804688 160.799804688 623.799804688 97.7001953125 c 0
 623.799804688 34.599609375 675 -16.599609375 738.099609375 -16.599609375 c 0xbc
 801.200195312 -16.599609375 852.400390625 34.5 852.400390625 97.599609375 c 0
 852.400390625 141.700195312 827.400390625 180 790.799804688 199 c 0
 785.700195312 201.400390625 780.599609375 203.599609375 775.5 205.599609375 c 0
 763.799804688 209.700195312 751.200195312 211.900390625 738.099609375 211.900390625 c 0
EndSplineSet
EndChar

StartChar: uniE178
Encoding: 57720 57720 77
Width: 1000
Flags: W
HStem: -86.5 83.5<10.7998 99.4017>
VStem: 283.9 82.8994<-86.5 28.8824>
LayerCount: 2
Fore
SplineSet
863.7265625 584.807617188 m 5
 829.9609375 765.581054688 l 5
 910.665039062 780.655273438 l 5
 944.430664062 599.881835938 l 5
 863.7265625 584.807617188 l 5
286.599609375 100.700195312 m 1
 286.700195312 100.700195312 l 1
 242.400390625 -11.2998046875 133.400390625 -86.7998046875 10.7998046875 -87.7001953125 c 1
 10.099609375 -3 l 1
 103.599609375 -2.2001953125 185.5 59.099609375 212.700195312 148 c 2
 357.200195312 679.799804688 l 2
 365.299804688 713.299804688 374.400390625 746.700195312 384.400390625 779.900390625 c 2
 385.700195312 784.799804688 l 2
 386.299804688 786.5 386.799804688 788.299804688 387.299804688 790 c 1
 468.900390625 764.900390625 l 1
 469.400390625 764.700195312 l 2
 464.5 748.900390625 459.200195312 731 453.5 711.5 c 0
 404.799804688 533.700195312 382.599609375 352.900390625 374.799804688 166.400390625 c 1
 447.599609375 254.599609375 535.900390625 310.799804688 659.200195312 310.799804688 c 0
 709.700195312 310.799804688 759.799804688 301.400390625 806.5 282.799804688 c 0
 815.599609375 279.400390625 824.299804688 275.5 832.5 271 c 0
 832.799804688 270.799804688 833.099609375 270.700195312 833.400390625 270.5 c 0
 917.599609375 224.299804688 957.599609375 122.099609375 923.400390625 29.400390625 c 0
 885.700195312 -72.900390625 772.200195312 -125.200195312 669.900390625 -87.400390625 c 0
 654.099609375 -81.599609375 639.200195312 -73.7998046875 625.400390625 -64.2001953125 c 1
 672.5 3.400390625 l 1
 724.599609375 -32.900390625 796.299804688 -20.099609375 832.599609375 32 c 0
 868.900390625 84.099609375 856.099609375 155.799804688 804 192.099609375 c 0
 801.799804688 193.599609375 799.599609375 195 797.299804688 196.400390625 c 0
 641.099609375 272.5 474.799804688 207.5 398.599609375 51.400390625 c 0
 377.700195312 8.400390625 366.799804688 -38.7001953125 366.799804688 -86.5 c 1
 283.900390625 -86.5 l 1
 283.900390625 -83.900390625 l 2
 283.900390625 -22.2001953125 284.700195312 39.2998046875 286.599609375 100.700195312 c 1
EndSplineSet
EndChar

StartChar: uniE179
Encoding: 57721 57721 78
Width: 1000
Flags: W
HStem: -103 85.4004<834.762 947.2> -100.7 83<12.9004 95.7545 410.218 541.19> 210.9 83.0996<452.769 542.625>
VStem: 547.1 89.4004<280.8 456.9 620.494 773>
LayerCount: 2
Fore
SplineSet
863.7265625 584.807617188 m 5x30
 829.9609375 765.581054688 l 5
 910.665039062 780.655273438 l 5
 944.430664062 599.881835938 l 5
 863.7265625 584.807617188 l 5x30
289.5 31.900390625 m 1
 218.400390625 -44.099609375 119.299804688 -90.2001953125 12.900390625 -93.900390625 c 1
 10 -11 l 1
 109.799804688 -7.5 200.400390625 43.7001953125 256.700195312 125.099609375 c 2
 477.400390625 507.400390625 l 2
 523.700195312 585.900390625 547 676.5 547 767.700195312 c 2
 547 773 l 1
 636.5 773 l 1
 636.5 257.700195312 l 2
 654.900390625 102.099609375 787.299804688 -17.7998046875 947.200195312 -17.599609375 c 1
 947.200195312 -103 l 1xb0
 833.700195312 -103.099609375 731 -55.599609375 658.299804688 20.900390625 c 1
 628.599609375 -50.5 562.299804688 -100.700195312 476 -100.700195312 c 0x70
 389.700195312 -100.700195312 316.299804688 -45.2998046875 289.5 31.900390625 c 1
547.099609375 456.900390625 m 1
 452.200195312 292.599609375 l 1
 460 293.5 467.900390625 294 476 294 c 0
 501.099609375 294 525.099609375 289.299804688 547.099609375 280.799804688 c 1
 547.099609375 456.900390625 l 1
476 210.900390625 m 0
 412.900390625 210.900390625 361.700195312 159.700195312 361.700195312 96.599609375 c 0
 361.700195312 33.5 412.900390625 -17.7001953125 476 -17.7001953125 c 0x70
 539.099609375 -17.7001953125 590.299804688 33.5 590.299804688 96.599609375 c 0
 590.299804688 106.700195312 589 116.5 586.5 125.799804688 c 0
 584 136.5 579.5 146.200195312 574 155.400390625 c 0
 554.099609375 188.599609375 517.599609375 210.900390625 476 210.900390625 c 0
EndSplineSet
EndChar

StartChar: uniE17A
Encoding: 57722 57722 79
Width: 1000
Flags: W
HStem: -86.5 83.5<10.7002 99.1001> -20.7002 83<426.54 562.264> 290.9 83.0996<426.493 562.266>
VStem: 283.5 82.9004<-86.5 19> 611 83<111.92 241.374>
LayerCount: 2
Fore
SplineSet
863.7265625 584.807617188 m 5x38
 829.9609375 765.581054688 l 5
 910.665039062 780.655273438 l 5
 944.430664062 599.881835938 l 5
 863.7265625 584.807617188 l 5x38
286.299804688 99.7998046875 m 1
 241.799804688 -11.7001953125 133 -86.7998046875 10.7001953125 -87.7001953125 c 1
 10 -3 l 1xb8
 103.5 -2.2001953125 185.400390625 59.099609375 212.599609375 148 c 2
 355.299804688 672.799804688 l 2
 364.700195312 712.099609375 375.099609375 751.200195312 387 790 c 2
 387.299804688 790 l 1
 441.200195312 773.400390625 l 1
 468.599609375 765 l 1
 469.400390625 764.700195312 l 2
 463.5 745.599609375 456.900390625 723.299804688 449.799804688 698.900390625 c 0
 418.900390625 583.200195312 398.700195312 464.599609375 386.5 342 c 1
 413.799804688 360.799804688 458.400390625 374 494 374 c 0
 604.400390625 374 694 285.700195312 694 176.700195312 c 0
 694 67.7001953125 604.5 -20.7001953125 494 -20.7001953125 c 0x78
 445.099609375 -20.7001953125 404.599609375 -9.7001953125 369.900390625 19 c 1
 368.5 -17.400390625 366.400390625 -50.099609375 366.400390625 -86.5 c 1
 283.5 -86.5 l 1xb8
 283.5 -24.400390625 284.299804688 37.7001953125 286.299804688 99.7998046875 c 1
494.099609375 290.900390625 m 0
 429.5 290.900390625 377.200195312 239.700195312 377.200195312 176.599609375 c 0
 377.200195312 113.5 429.599609375 62.2998046875 494.099609375 62.2998046875 c 0x78
 558.599609375 62.2998046875 611 113.5 611 176.599609375 c 0
 611 239.700195312 558.700195312 290.900390625 494.099609375 290.900390625 c 0
EndSplineSet
EndChar

